<svg width="500" height="500" viewBox="0 0 500 500" fill="none" xmlns="http://www.w3.org/2000/svg">
<path d="M463.12 466.85C463.12 466.99 367.69 467.11 250.01 467.11C132.33 467.11 36.8799 467 36.8799 466.85C36.8799 466.7 132.29 466.59 250.01 466.59C367.73 466.59 463.12 466.7 463.12 466.85Z" fill="#263238"/>
<path d="M267.189 432.42C267.25 432.381 267.32 432.359 267.393 432.355C267.465 432.351 267.537 432.366 267.602 432.398C267.667 432.43 267.722 432.479 267.763 432.539C267.803 432.599 267.828 432.668 267.834 432.74C267.84 432.812 267.827 432.885 267.796 432.951C267.766 433.016 267.719 433.073 267.66 433.115C267.601 433.157 267.533 433.184 267.461 433.192C267.389 433.2 267.316 433.189 267.249 433.16C267.184 433.125 267.128 433.075 267.087 433.013C267.047 432.951 267.022 432.88 267.016 432.806C267.01 432.733 267.023 432.659 267.053 432.591C267.083 432.523 267.13 432.465 267.189 432.42Z" fill="white"/>
<path d="M355 137.07L370.34 143.97C370.34 143.97 346.34 178.12 341.43 183.62C336.52 189.12 288.14 196 288.14 196L285.83 175.77L327.07 168.77L355 137.07Z" fill="#FF9A0D"/>
<path d="M339.27 185.24C339.18 185.24 339.07 184.02 338.55 182.14C338.242 181.04 337.847 179.967 337.37 178.93C336.765 177.673 336.056 176.469 335.25 175.33C334.413 174.211 333.479 173.167 332.46 172.21C331.623 171.434 330.723 170.728 329.77 170.1C328.14 169.02 327.01 168.55 327.05 168.47C327.09 168.39 327.35 168.53 327.87 168.73C328.599 169.022 329.302 169.377 329.97 169.79C330.97 170.391 331.913 171.08 332.79 171.85C333.846 172.815 334.811 173.876 335.67 175.02C336.504 176.185 337.217 177.431 337.8 178.74C338.273 179.806 338.644 180.914 338.91 182.05C339.097 182.811 339.217 183.588 339.27 184.37C339.321 184.658 339.321 184.952 339.27 185.24V185.24Z" fill="white"/>
<path d="M336.11 177.52C335.611 177.735 335.096 177.908 334.57 178.04C333.57 178.35 332.11 178.77 330.31 179.26C326.7 180.26 321.69 181.48 316.1 182.66C310.51 183.84 305.42 184.71 301.73 185.27C299.88 185.55 298.38 185.75 297.34 185.87C296.805 185.962 296.263 186.009 295.72 186.01C296.239 185.852 296.771 185.738 297.31 185.67L301.67 184.9C305.34 184.26 310.42 183.32 316 182.15C321.58 180.98 326.59 179.79 330.22 178.9L334.52 177.85C335.038 177.689 335.57 177.578 336.11 177.52V177.52Z" fill="white"/>
<path d="M359 139.3C359.11 139.39 352.9 146.59 345.14 155.37C337.38 164.15 331 171.2 330.84 171.11C330.68 171.02 336.94 163.81 344.7 155.03C352.46 146.25 358.84 139.2 359 139.3Z" fill="white"/>
<path d="M339.449 163.6C339.51 163.567 339.578 163.55 339.648 163.548C339.717 163.547 339.786 163.562 339.848 163.592C339.91 163.623 339.965 163.667 340.007 163.722C340.049 163.778 340.077 163.842 340.089 163.91C340.096 163.982 340.084 164.055 340.054 164.122C340.024 164.188 339.977 164.245 339.918 164.288C339.86 164.331 339.791 164.358 339.718 164.366C339.646 164.374 339.573 164.363 339.506 164.335C339.439 164.306 339.381 164.261 339.337 164.203C339.293 164.145 339.265 164.077 339.255 164.005C339.245 163.933 339.254 163.86 339.281 163.792C339.308 163.725 339.352 163.665 339.409 163.62" fill="white"/>
<path d="M314.329 179.88C314.39 179.845 314.459 179.825 314.529 179.823C314.599 179.82 314.668 179.835 314.731 179.866C314.794 179.896 314.849 179.942 314.891 179.998C314.932 180.055 314.959 180.121 314.969 180.19C314.977 180.263 314.966 180.337 314.936 180.404C314.907 180.471 314.86 180.53 314.801 180.574C314.742 180.617 314.672 180.644 314.599 180.653C314.526 180.661 314.452 180.65 314.385 180.621C314.318 180.592 314.259 180.545 314.215 180.486C314.171 180.427 314.143 180.358 314.135 180.285C314.126 180.212 314.137 180.138 314.166 180.07C314.195 180.003 314.241 179.944 314.299 179.9" fill="white"/>
<path d="M326.409 177.2C326.471 177.167 326.54 177.15 326.61 177.149C326.68 177.148 326.749 177.164 326.811 177.196C326.874 177.227 326.928 177.273 326.97 177.329C327.011 177.386 327.038 177.451 327.049 177.52C327.048 177.589 327.031 177.657 326.998 177.718C326.966 177.78 326.92 177.832 326.863 177.872C326.807 177.912 326.742 177.938 326.673 177.948C326.605 177.958 326.535 177.952 326.469 177.93C326.407 177.899 326.353 177.853 326.313 177.797C326.272 177.741 326.246 177.675 326.236 177.606C326.226 177.537 326.233 177.467 326.256 177.402C326.279 177.336 326.318 177.277 326.369 177.23" fill="white"/>
<path d="M346.3 155.91C346.361 155.875 346.429 155.855 346.499 155.853C346.569 155.85 346.639 155.865 346.702 155.896C346.765 155.926 346.82 155.972 346.861 156.028C346.903 156.085 346.93 156.151 346.94 156.22C346.948 156.293 346.937 156.367 346.907 156.434C346.878 156.501 346.831 156.56 346.772 156.604C346.713 156.647 346.643 156.675 346.57 156.683C346.497 156.691 346.423 156.68 346.356 156.651C346.288 156.622 346.23 156.575 346.186 156.516C346.142 156.458 346.114 156.388 346.105 156.315C346.097 156.242 346.107 156.168 346.136 156.101C346.165 156.033 346.211 155.974 346.27 155.93" fill="white"/>
<path d="M353.48 147.77C353.541 147.729 353.611 147.705 353.684 147.699C353.758 147.694 353.831 147.708 353.897 147.74C353.963 147.771 354.02 147.82 354.061 147.88C354.103 147.941 354.128 148.011 354.134 148.084C354.14 148.157 354.126 148.23 354.095 148.297C354.064 148.363 354.016 148.42 353.956 148.462C353.896 148.504 353.826 148.53 353.753 148.537C353.68 148.543 353.607 148.531 353.54 148.5C353.475 148.467 353.419 148.417 353.378 148.356C353.337 148.295 353.312 148.225 353.306 148.152C353.3 148.079 353.313 148.005 353.343 147.938C353.374 147.871 353.421 147.814 353.48 147.77Z" fill="white"/>
<g opacity="0.3">
<path opacity="0.3" d="M324.659 170.76C324.769 171.47 318.549 173.07 310.769 174.33C302.989 175.59 296.569 176.03 296.459 175.33C296.349 174.63 302.559 173.03 310.349 171.77C318.139 170.51 324.539 170.05 324.659 170.76Z" fill="white"/>
</g>
<path d="M303.87 181.75C303.931 181.709 304.001 181.685 304.074 181.679C304.147 181.674 304.22 181.688 304.286 181.72C304.353 181.751 304.409 181.8 304.451 181.86C304.492 181.921 304.517 181.991 304.523 182.064C304.529 182.137 304.516 182.21 304.485 182.277C304.454 182.343 304.406 182.4 304.346 182.442C304.286 182.484 304.216 182.51 304.143 182.516C304.07 182.523 303.996 182.511 303.93 182.48C303.864 182.447 303.808 182.397 303.767 182.336C303.726 182.275 303.702 182.205 303.696 182.132C303.69 182.059 303.703 181.985 303.733 181.918C303.764 181.851 303.811 181.794 303.87 181.75Z" fill="white"/>
<path d="M281.5 172.8C283.599 172.123 285.854 172.093 287.97 172.714C290.087 173.334 291.968 174.577 293.37 176.28C294.72 178.023 295.636 180.061 296.043 182.228C296.45 184.394 296.336 186.626 295.71 188.74C294.52 192.97 288.88 198.68 285.06 200.27" fill="#263238"/>
<path d="M374.439 139.3C375.75 137.593 376.882 135.757 377.819 133.82C378.761 131.873 379.082 129.685 378.739 127.55C378.559 126.488 378.115 125.488 377.447 124.642C376.78 123.797 375.911 123.132 374.919 122.71C373.915 122.323 372.807 122.295 371.784 122.633C370.761 122.97 369.887 123.651 369.309 124.56L373.379 116.56C373.879 115.56 374.379 114.33 373.719 113.44C373.371 113.06 372.895 112.822 372.383 112.771C371.87 112.719 371.356 112.858 370.939 113.16C370.126 113.793 369.486 114.622 369.079 115.57L363.079 126.86L357.759 118.53C357.219 117.69 356.449 116.73 355.459 116.89C355.072 116.993 354.731 117.224 354.492 117.546C354.252 117.867 354.128 118.259 354.139 118.66C354.193 119.464 354.425 120.247 354.819 120.95C356.369 124.23 359.179 131.7 359.179 131.7L374.439 139.3Z" fill="#FF9A0D"/>
<path d="M285.059 199.7C284.979 199.62 286.429 198.51 288.169 196.22C289.189 194.89 289.974 193.395 290.489 191.8C291.091 189.837 291.301 187.774 291.109 185.73C290.832 181.986 289.61 178.374 287.559 175.23C287.008 174.249 286.247 173.402 285.329 172.75C284.966 172.548 284.584 172.38 284.189 172.25C284.302 172.228 284.417 172.228 284.529 172.25C284.844 172.305 285.148 172.41 285.429 172.56C286.425 173.177 287.261 174.019 287.869 175.02C290.059 178.174 291.358 181.86 291.629 185.69C291.85 187.814 291.636 189.961 290.999 192C290.445 193.637 289.602 195.161 288.509 196.5C287.791 197.398 286.991 198.229 286.119 198.98C285.795 199.26 285.439 199.501 285.059 199.7V199.7Z" fill="#455A64"/>
<path d="M355 137.07C359.161 139.731 363.505 142.093 368 144.14C369.79 144.97 372 145.74 373.62 144.59C374.169 144.133 374.577 143.53 374.797 142.85C375.016 142.17 375.038 141.442 374.86 140.75C374.474 139.368 373.741 138.108 372.73 137.09C369.792 133.795 365.977 131.405 361.73 130.2C360.24 129.698 358.649 129.574 357.1 129.84C356.327 129.978 355.605 130.318 355.006 130.826C354.407 131.333 353.953 131.99 353.69 132.73C353.409 133.494 353.38 134.328 353.609 135.11C353.838 135.891 354.311 136.578 354.96 137.07" fill="#263238"/>
<path d="M374.29 142.7C374.21 142.7 373.63 141.5 372.29 139.8C370.542 137.571 368.315 135.764 365.774 134.512C363.233 133.26 360.443 132.597 357.61 132.57C355.44 132.57 354.1 132.83 354.08 132.74C354.375 132.606 354.689 132.518 355.01 132.48C355.868 132.319 356.737 132.225 357.61 132.2C360.521 132.125 363.406 132.758 366.019 134.043C368.631 135.328 370.893 137.228 372.61 139.58C373.131 140.282 373.59 141.028 373.98 141.81C374.133 142.087 374.238 142.388 374.29 142.7V142.7Z" fill="#455A64"/>
<path d="M275.44 247C275.58 247.3 273.66 248.67 270.15 250.15C268.093 251.008 265.973 251.706 263.81 252.24C258.484 253.544 252.978 253.95 247.52 253.44C245.301 253.227 243.102 252.85 240.94 252.31C237.25 251.36 235.15 250.31 235.25 249.97C235.35 249.63 237.64 250.04 241.25 250.5C243.07 250.74 245.25 250.93 247.66 251.04C250.27 251.142 252.884 251.102 255.49 250.92C258.096 250.727 260.689 250.393 263.26 249.92C265.63 249.45 267.75 248.92 269.52 248.44C273.08 247.4 275.27 246.63 275.44 247Z" fill="#263238"/>
<path d="M274.129 252.49C274.239 252.82 272.389 253.83 269.179 254.89C260.72 257.555 251.755 258.205 242.999 256.79C239.669 256.21 237.689 255.47 237.749 255.14C237.889 254.38 246.029 255.54 256.009 254.78C265.989 254.02 273.889 251.76 274.129 252.49Z" fill="#263238"/>
<path d="M237.909 105.26C237.909 105.26 204.909 111.36 205.329 140.91C205.749 170.46 233.689 165.49 241.809 164.45C245.489 163.98 252.809 162.94 259.739 161.94C274.409 159.82 285.359 152.68 286.229 137.88C286.339 136.145 286.278 134.403 286.049 132.68C283.999 117.06 269.409 98.26 237.909 105.26Z" fill="#FF9A0D"/>
<path d="M273.519 134.89L231.409 143.82C229.29 144.271 227.079 143.861 225.262 142.681C223.445 141.502 222.17 139.649 221.719 137.53C221.272 135.41 221.684 133.199 222.865 131.382C224.046 129.565 225.9 128.291 228.019 127.84L270.129 118.9C272.25 118.452 274.461 118.865 276.277 120.046C278.094 121.227 279.368 123.081 279.819 125.2V125.2C280.042 126.25 280.056 127.334 279.86 128.389C279.664 129.444 279.262 130.451 278.677 131.35C278.092 132.25 277.335 133.026 276.45 133.633C275.565 134.241 274.569 134.668 273.519 134.89V134.89Z" fill="#263238"/>
<path d="M237.1 137.58C238.546 137.58 239.719 136.407 239.719 134.96C239.719 133.513 238.546 132.34 237.1 132.34C235.653 132.34 234.479 133.513 234.479 134.96C234.479 136.407 235.653 137.58 237.1 137.58Z" fill="white"/>
<path d="M266.519 131.32C267.966 131.32 269.139 130.147 269.139 128.7C269.139 127.253 267.966 126.08 266.519 126.08C265.072 126.08 263.899 127.253 263.899 128.7C263.899 130.147 265.072 131.32 266.519 131.32Z" fill="white"/>
<path d="M250.77 120.86C250.24 119.889 249.769 118.887 249.36 117.86C248.303 115.45 246.928 113.193 245.27 111.15C243.659 109.082 241.525 107.48 239.09 106.51C238.055 106.173 237 105.906 235.93 105.71C236.224 105.652 236.526 105.652 236.82 105.71C237.633 105.772 238.436 105.933 239.21 106.19C241.765 107.093 244.007 108.711 245.67 110.85C247.352 112.926 248.701 115.25 249.67 117.74C250.05 118.74 250.33 119.47 250.51 120.01C250.638 120.279 250.726 120.565 250.77 120.86V120.86Z" fill="white"/>
<path d="M251.83 163.07C251.76 163.01 252.71 162.07 253.83 160.36C255.337 158.097 256.328 155.529 256.73 152.84C257.055 150.135 257.031 147.399 256.66 144.7C256.437 143.581 256.287 142.449 256.21 141.31C256.339 141.591 256.433 141.886 256.49 142.19C256.63 142.77 256.82 143.6 257.02 144.64C257.512 147.37 257.586 150.158 257.24 152.91C256.841 155.678 255.773 158.307 254.13 160.57C253.639 161.25 253.094 161.889 252.5 162.48C252.305 162.707 252.08 162.906 251.83 163.07V163.07Z" fill="white"/>
<g opacity="0.3">
<path opacity="0.3" d="M282.48 150.24C278.605 147.859 274.184 146.513 269.64 146.33C265.12 146.165 260.595 146.477 256.14 147.26C245.8 148.82 235.21 151.26 226.84 157.52C224.378 159.175 222.42 161.476 221.18 164.17C221.18 164.17 225.62 166 234.48 165.41C243.34 164.82 261.61 161.64 261.61 161.64C261.61 161.64 270.96 160.06 276.24 156.11C281.52 152.16 282.48 150.24 282.48 150.24Z" fill="black"/>
</g>
<path d="M282.38 124.37C282.564 124.86 282.688 125.37 282.75 125.89C282.975 127.384 282.838 128.91 282.35 130.34C281.54 132.609 279.957 134.521 277.88 135.74C275.49 137.22 272.38 138.02 269 138.74L245.17 144L238.28 145.5C235.93 145.98 233.55 146.61 231.04 146.93C228.46 147.387 225.803 146.935 223.52 145.65C221.235 144.191 219.579 141.929 218.88 139.31C218.183 136.689 218.508 133.9 219.79 131.51C221.037 129.206 223.024 127.388 225.43 126.35C226.597 125.907 227.802 125.572 229.03 125.35L232.58 124.52L239.44 122.92L252.14 119.92C256.14 119.07 259.77 117.92 263.19 117.26C264.812 116.924 266.456 116.7 268.11 116.59C269.59 116.466 271.081 116.517 272.55 116.74C274.921 117.077 277.166 118.017 279.07 119.47C280.249 120.405 281.197 121.599 281.84 122.96C282.013 123.311 282.156 123.675 282.27 124.05C282.317 124.173 282.354 124.3 282.38 124.43C282.38 124.43 282.21 123.92 281.75 123.01C281.077 121.685 280.117 120.527 278.94 119.62C277.05 118.227 274.838 117.336 272.51 117.03C271.062 116.826 269.596 116.789 268.14 116.92C266.499 117.045 264.869 117.278 263.26 117.62C259.87 118.32 256.26 119.47 252.26 120.34L239.57 123.34L232.71 124.97L229.16 125.8C227.961 126.024 226.786 126.359 225.65 126.8C223.352 127.799 221.455 129.538 220.26 131.74C219.037 134.013 218.726 136.666 219.39 139.16C220.062 141.639 221.634 143.778 223.8 145.16C225.985 146.379 228.524 146.81 230.99 146.38C233.44 146.06 235.83 145.44 238.18 144.96L245.08 143.48L268.93 138.37C272.006 137.899 274.982 136.922 277.74 135.48C279.785 134.315 281.353 132.467 282.17 130.26C282.664 128.86 282.831 127.365 282.66 125.89C282.53 124.89 282.35 124.38 282.38 124.37Z" fill="white"/>
<path d="M205.79 145.8C206.253 145.252 206.796 144.777 207.4 144.39C210.18 142.338 213.306 140.804 216.63 139.86C217.304 139.624 218.007 139.486 218.72 139.45C218.77 139.61 215.61 140.45 212.04 142.18C208.47 143.91 205.89 145.93 205.79 145.8Z" fill="white"/>
<path d="M240.08 109.4C240.141 109.359 240.211 109.335 240.284 109.329C240.357 109.324 240.431 109.338 240.497 109.37C240.563 109.401 240.619 109.45 240.661 109.51C240.703 109.57 240.728 109.641 240.734 109.714C240.74 109.787 240.726 109.86 240.695 109.926C240.664 109.993 240.616 110.05 240.556 110.092C240.496 110.134 240.426 110.16 240.353 110.166C240.28 110.173 240.207 110.16 240.14 110.13C240.077 110.095 240.023 110.045 239.984 109.984C239.944 109.923 239.921 109.853 239.915 109.781C239.909 109.709 239.921 109.636 239.949 109.57C239.978 109.503 240.023 109.445 240.08 109.4" fill="white"/>
<path d="M245.31 117.05C245.371 117.009 245.441 116.984 245.514 116.979C245.587 116.974 245.66 116.988 245.726 117.019C245.793 117.051 245.849 117.1 245.891 117.16C245.932 117.22 245.957 117.291 245.963 117.364C245.969 117.437 245.956 117.51 245.925 117.576C245.894 117.643 245.846 117.7 245.786 117.742C245.726 117.784 245.656 117.81 245.583 117.816C245.51 117.823 245.436 117.81 245.37 117.78C245.308 117.743 245.256 117.692 245.219 117.631C245.181 117.571 245.158 117.502 245.152 117.43C245.146 117.359 245.157 117.287 245.185 117.221C245.212 117.155 245.255 117.096 245.31 117.05" fill="white"/>
<path d="M213.64 138.45C213.701 138.415 213.77 138.395 213.841 138.393C213.912 138.392 213.982 138.407 214.045 138.439C214.109 138.47 214.163 138.517 214.204 138.575C214.245 138.633 214.271 138.7 214.28 138.77C214.281 138.84 214.265 138.909 214.233 138.972C214.202 139.034 214.155 139.088 214.098 139.128C214.041 139.169 213.975 139.194 213.905 139.203C213.836 139.212 213.765 139.204 213.7 139.18C213.638 139.147 213.585 139.099 213.546 139.042C213.506 138.984 213.481 138.918 213.472 138.848C213.463 138.779 213.471 138.708 213.495 138.642C213.519 138.577 213.558 138.518 213.61 138.47" fill="white"/>
<path d="M207.1 142C207.161 141.961 207.231 141.939 207.303 141.935C207.375 141.931 207.448 141.946 207.512 141.978C207.577 142.01 207.633 142.059 207.673 142.119C207.714 142.179 207.738 142.248 207.744 142.32C207.75 142.392 207.737 142.465 207.707 142.53C207.676 142.596 207.629 142.653 207.571 142.695C207.512 142.737 207.443 142.764 207.371 142.772C207.299 142.779 207.226 142.769 207.16 142.74C207.098 142.707 207.045 142.659 207.006 142.602C206.966 142.544 206.941 142.478 206.932 142.408C206.923 142.339 206.931 142.268 206.955 142.202C206.979 142.137 207.018 142.078 207.07 142.03" fill="white"/>
<g opacity="0.3">
<path opacity="0.3" d="M246.83 105.74C246.91 106.12 243.94 106.96 239.25 108.47C234.56 109.98 228.12 112.23 222.14 116.47C219.367 118.487 216.907 120.904 214.84 123.64C213.16 125.882 211.813 128.354 210.84 130.98C209.2 135.5 209.41 138.63 208.96 138.64C208.8 138.64 208.56 137.89 208.44 136.46C208.33 134.439 208.546 132.413 209.08 130.46C209.872 127.535 211.16 124.768 212.89 122.28C215.001 119.231 217.615 116.563 220.62 114.39C223.613 112.275 226.858 110.541 230.28 109.23C233.038 108.17 235.873 107.32 238.76 106.69C243.67 105.62 246.76 105.41 246.83 105.74Z" fill="white"/>
</g>
<g opacity="0.3">
<path opacity="0.3" d="M214.93 153.2C214.49 153.76 212.59 152.98 211.19 151.02C209.79 149.06 209.68 147.02 210.35 146.77C211.02 146.52 212.14 147.88 213.35 149.51C214.56 151.14 215.38 152.63 214.93 153.2Z" fill="white"/>
</g>
<path d="M283.35 169.25C285.35 169.82 285.23 198.78 284.8 213.56C284.57 221.48 283.98 229.75 279.94 236.56C275.44 244.15 266.87 249 258.06 249.56C247.47 250.28 236.99 245.15 229.74 237.38C222.49 229.61 218.19 219.47 215.88 209.1C213.57 198.73 213.12 188.1 212.68 177.43C212.68 177.47 247 159 283.35 169.25Z" fill="#FF9A0D"/>
<g opacity="0.2">
<path opacity="0.2" d="M214.29 191.47C214.05 200.81 215.7 211.58 218.69 219.37C221.93 227.81 226.63 235.37 234.49 241.77C236.695 243.419 239.037 244.878 241.49 246.13C243.559 247.198 245.743 248.027 248 248.6C251.73 249.67 253.92 245.05 254.65 241.24C255.38 237.43 254.01 233.44 251.65 230.33C249.202 227.309 246.231 224.751 242.88 222.78C239.534 220.818 236.302 218.667 233.2 216.34C228.108 211.983 224.058 206.54 221.35 200.41C218.655 194.302 216.418 188.001 214.66 181.56" fill="black"/>
</g>
<path d="M238.77 231C238.833 230.968 238.902 230.95 238.972 230.949C239.043 230.949 239.113 230.965 239.176 230.996C239.239 231.027 239.294 231.072 239.336 231.129C239.379 231.185 239.407 231.251 239.42 231.32C239.419 231.39 239.402 231.46 239.369 231.522C239.336 231.584 239.289 231.637 239.231 231.678C239.173 231.718 239.107 231.744 239.037 231.753C238.967 231.762 238.896 231.754 238.83 231.73C238.768 231.698 238.716 231.651 238.676 231.595C238.636 231.538 238.611 231.472 238.602 231.403C238.593 231.335 238.601 231.265 238.625 231.2C238.649 231.135 238.689 231.076 238.74 231.03" fill="white"/>
<path d="M251.61 230.47C251.671 230.431 251.741 230.409 251.813 230.405C251.886 230.401 251.958 230.416 252.023 230.448C252.088 230.48 252.143 230.529 252.184 230.589C252.224 230.648 252.249 230.718 252.254 230.79C252.26 230.862 252.247 230.935 252.217 231C252.187 231.066 252.14 231.123 252.081 231.165C252.022 231.207 251.953 231.234 251.881 231.242C251.809 231.249 251.737 231.239 251.67 231.21C251.608 231.178 251.554 231.131 251.514 231.074C251.473 231.016 251.447 230.95 251.437 230.881C251.427 230.811 251.434 230.74 251.457 230.674C251.48 230.608 251.519 230.548 251.57 230.5" fill="white"/>
<path d="M265.63 217.23C265.691 217.195 265.759 217.175 265.829 217.173C265.899 217.17 265.969 217.185 266.032 217.216C266.095 217.246 266.15 217.292 266.191 217.348C266.233 217.405 266.26 217.471 266.27 217.54C266.278 217.613 266.267 217.687 266.237 217.754C266.208 217.822 266.161 217.88 266.102 217.924C266.043 217.967 265.973 217.995 265.9 218.003C265.827 218.011 265.753 218 265.686 217.971C265.618 217.942 265.56 217.895 265.516 217.837C265.472 217.778 265.444 217.708 265.436 217.635C265.427 217.562 265.438 217.488 265.466 217.421C265.495 217.353 265.541 217.294 265.6 217.25" fill="white"/>
<path d="M259.19 184.5C259.252 184.467 259.321 184.45 259.391 184.449C259.461 184.448 259.53 184.464 259.592 184.495C259.655 184.527 259.709 184.572 259.75 184.629C259.792 184.685 259.819 184.751 259.83 184.82C259.828 184.889 259.811 184.957 259.779 185.019C259.746 185.08 259.7 185.133 259.644 185.174C259.588 185.214 259.523 185.241 259.455 185.253C259.387 185.264 259.316 185.26 259.25 185.24C259.188 185.208 259.134 185.161 259.094 185.104C259.053 185.046 259.027 184.98 259.017 184.911C259.007 184.841 259.014 184.77 259.037 184.704C259.06 184.638 259.099 184.578 259.15 184.53" fill="white"/>
<path d="M272.33 189.87C272.391 189.835 272.459 189.815 272.529 189.813C272.599 189.81 272.669 189.825 272.732 189.856C272.795 189.886 272.85 189.932 272.891 189.988C272.933 190.045 272.96 190.11 272.97 190.18C272.977 190.252 272.964 190.325 272.935 190.391C272.905 190.458 272.858 190.515 272.799 190.558C272.74 190.601 272.672 190.627 272.599 190.636C272.527 190.644 272.454 190.633 272.387 190.605C272.32 190.576 272.262 190.531 272.218 190.473C272.174 190.415 272.145 190.347 272.136 190.275C272.126 190.203 272.135 190.129 272.162 190.062C272.189 189.994 272.233 189.935 272.29 189.89" fill="white"/>
<path d="M224.229 227.19C224.291 227.157 224.36 227.14 224.43 227.139C224.5 227.138 224.569 227.154 224.632 227.186C224.694 227.217 224.748 227.263 224.79 227.319C224.831 227.376 224.858 227.441 224.869 227.51C224.868 227.579 224.851 227.647 224.819 227.708C224.786 227.77 224.74 227.822 224.684 227.862C224.627 227.902 224.562 227.928 224.493 227.938C224.425 227.948 224.355 227.942 224.289 227.92C224.227 227.889 224.174 227.843 224.133 227.787C224.092 227.73 224.066 227.665 224.056 227.596C224.046 227.527 224.053 227.457 224.076 227.392C224.1 227.326 224.138 227.267 224.189 227.22" fill="white"/>
<path d="M222.109 216.3C222.171 216.267 222.24 216.25 222.31 216.249C222.38 216.248 222.449 216.264 222.512 216.295C222.574 216.327 222.628 216.373 222.67 216.429C222.711 216.485 222.738 216.551 222.749 216.62C222.748 216.689 222.731 216.757 222.699 216.818C222.666 216.879 222.62 216.932 222.563 216.972C222.507 217.012 222.442 217.038 222.373 217.048C222.305 217.058 222.235 217.052 222.169 217.03C222.107 216.999 222.053 216.953 222.013 216.897C221.972 216.84 221.946 216.775 221.936 216.706C221.926 216.637 221.933 216.567 221.956 216.502C221.98 216.436 222.018 216.377 222.069 216.33" fill="white"/>
<path d="M221.18 206.44C221.242 206.407 221.31 206.39 221.38 206.389C221.45 206.388 221.519 206.404 221.582 206.436C221.645 206.467 221.699 206.513 221.74 206.569C221.782 206.626 221.809 206.691 221.82 206.76C221.821 206.83 221.805 206.899 221.773 206.962C221.742 207.024 221.695 207.078 221.638 207.118C221.581 207.159 221.515 207.184 221.445 207.194C221.376 207.203 221.305 207.194 221.24 207.17C221.178 207.137 221.125 207.089 221.086 207.032C221.046 206.974 221.021 206.908 221.012 206.838C221.003 206.769 221.011 206.698 221.035 206.633C221.059 206.567 221.098 206.508 221.15 206.46" fill="white"/>
<path d="M220.25 196C220.312 195.967 220.381 195.95 220.451 195.949C220.521 195.948 220.59 195.964 220.652 195.995C220.715 196.027 220.769 196.072 220.81 196.129C220.852 196.185 220.879 196.251 220.89 196.32C220.889 196.389 220.871 196.457 220.839 196.518C220.807 196.579 220.761 196.632 220.704 196.672C220.648 196.712 220.582 196.738 220.514 196.748C220.445 196.758 220.376 196.752 220.31 196.73C220.248 196.699 220.194 196.653 220.153 196.597C220.113 196.54 220.086 196.475 220.077 196.406C220.067 196.337 220.074 196.267 220.097 196.202C220.12 196.136 220.159 196.077 220.21 196.03" fill="white"/>
<path d="M280.13 187.31C280.19 187.269 280.261 187.244 280.334 187.239C280.407 187.234 280.48 187.248 280.546 187.279C280.612 187.311 280.669 187.36 280.71 187.42C280.752 187.48 280.777 187.551 280.783 187.624C280.789 187.697 280.776 187.77 280.745 187.836C280.714 187.903 280.666 187.96 280.606 188.002C280.546 188.044 280.476 188.07 280.403 188.076C280.33 188.083 280.256 188.07 280.19 188.04C280.124 188.007 280.068 187.957 280.027 187.896C279.986 187.835 279.962 187.765 279.956 187.692C279.95 187.618 279.962 187.545 279.993 187.478C280.023 187.411 280.07 187.353 280.13 187.31" fill="white"/>
<path d="M267.77 229.49C267.831 229.455 267.899 229.435 267.969 229.433C268.039 229.43 268.109 229.445 268.172 229.476C268.235 229.506 268.29 229.552 268.331 229.608C268.373 229.665 268.4 229.731 268.41 229.8C268.418 229.873 268.406 229.947 268.377 230.014C268.347 230.082 268.301 230.14 268.242 230.184C268.182 230.227 268.113 230.255 268.04 230.263C267.967 230.271 267.893 230.26 267.825 230.231C267.758 230.202 267.699 230.155 267.655 230.097C267.612 230.038 267.584 229.968 267.575 229.895C267.567 229.822 267.577 229.748 267.606 229.681C267.635 229.613 267.681 229.554 267.74 229.51" fill="white"/>
<path d="M269.18 239.83C269.24 239.789 269.311 239.765 269.384 239.759C269.457 239.754 269.53 239.768 269.596 239.799C269.662 239.831 269.719 239.88 269.761 239.94C269.802 240 269.827 240.071 269.833 240.144C269.839 240.217 269.826 240.29 269.795 240.356C269.764 240.423 269.716 240.48 269.656 240.522C269.596 240.564 269.526 240.59 269.453 240.596C269.38 240.603 269.306 240.59 269.24 240.56C269.176 240.525 269.122 240.475 269.083 240.414C269.044 240.353 269.02 240.283 269.014 240.211C269.008 240.139 269.02 240.066 269.049 240C269.078 239.933 269.123 239.875 269.18 239.83" fill="white"/>
<g opacity="0.3">
<path opacity="0.3" d="M275.39 177C275.49 177.31 272.39 178.7 267.09 180.13C263.986 180.969 260.838 181.637 257.66 182.13C249.864 183.343 241.95 183.611 234.09 182.93C230.889 182.651 227.704 182.204 224.55 181.59C219.17 180.51 215.98 179.34 216.06 179.02C216.22 178.23 229.38 181.26 245.82 180.64C262.26 180.02 275.17 176.26 275.39 177Z" fill="white"/>
</g>
<path d="M237.579 244C237.579 244 237.379 243.87 237.029 243.58C236.679 243.29 236.179 242.83 235.569 242.22C233.81 240.493 232.38 238.46 231.349 236.22C230.667 234.672 230.106 233.074 229.669 231.44C229.149 229.71 228.669 227.84 228.109 225.87C227.059 221.92 226.039 217.56 225.109 212.94C223.554 205.029 222.448 197.036 221.799 189C221.569 185.93 221.439 183.44 221.379 181.71V179.71C221.362 179.477 221.362 179.243 221.379 179.01C221.434 179.236 221.464 179.467 221.469 179.7C221.469 180.21 221.559 180.86 221.619 181.7C221.739 183.42 221.929 185.91 222.209 188.97C222.799 195.1 223.829 203.56 225.669 212.78C226.589 217.38 227.589 221.78 228.669 225.69C229.179 227.69 229.669 229.52 230.179 231.26C230.591 232.88 231.123 234.468 231.769 236.01C232.747 238.226 234.1 240.256 235.769 242.01C236.349 242.64 236.829 243.11 237.149 243.43C237.306 243.61 237.449 243.8 237.579 244V244Z" fill="white"/>
<path d="M260.86 212.1C261 212.1 262.07 220.04 263.26 229.88C264.45 239.72 265.26 247.71 265.15 247.73C265.04 247.75 263.93 239.78 262.74 229.94C261.55 220.1 260.71 212.11 260.86 212.1Z" fill="white"/>
<path d="M245.8 167.21C246.071 167.416 246.313 167.659 246.52 167.93C246.95 168.41 247.52 169.12 248.32 170C249.83 171.77 251.88 174.24 254.12 177L254.95 178L255.05 178.12C255.105 178.16 255.147 178.216 255.17 178.28C255.201 178.352 255.227 178.425 255.25 178.5V178.67C255.3 178.89 255.32 179.1 255.35 179.31C255.43 180.15 255.48 180.96 255.52 181.73C255.6 183.26 255.63 184.65 255.66 185.81C255.69 186.97 255.66 187.91 255.66 188.56C255.684 188.895 255.66 189.232 255.59 189.56C255.403 188.318 255.3 187.065 255.28 185.81C255.21 184.61 255.12 183.24 255.03 181.75C255.03 180.98 254.92 180.18 254.83 179.36C254.83 179.16 254.78 178.95 254.74 178.76V178.61V178.53C254.74 178.53 254.62 178.4 254.57 178.31L253.74 177.31C251.5 174.57 249.49 172.06 248.06 170.24C247.34 169.32 246.77 168.58 246.38 168.05C246.152 167.795 245.958 167.513 245.8 167.21Z" fill="white"/>
<path d="M261.749 227.19C261.344 227.325 260.925 227.412 260.499 227.45C259.679 227.59 258.499 227.75 257.049 227.93C254.129 228.3 250.049 228.69 245.599 228.93C241.149 229.17 237.049 229.17 234.109 229.11C232.649 229.11 231.459 229.03 230.639 228.98C230.21 228.977 229.781 228.934 229.359 228.85C229.782 228.778 230.211 228.751 230.639 228.77H234.119C237.049 228.77 241.119 228.66 245.579 228.44C250.039 228.22 254.089 227.88 257.009 227.61L260.469 227.29C260.892 227.217 261.321 227.183 261.749 227.19V227.19Z" fill="white"/>
<path d="M285 188.56C285 188.56 284.77 188.77 284.31 189.05C283.662 189.453 282.995 189.824 282.31 190.16C280.04 191.267 277.678 192.174 275.25 192.87C272.831 193.586 270.365 194.134 267.87 194.51C266.843 194.715 265.797 194.815 264.75 194.81C265.751 194.524 266.77 194.304 267.8 194.15C269.69 193.77 272.29 193.15 275.1 192.38C277.503 191.675 279.861 190.824 282.16 189.83C283.85 189.05 284.91 188.49 285 188.56Z" fill="white"/>
<path d="M265.804 208.997C270.381 204.42 270.381 196.999 265.804 192.422C261.227 187.845 253.807 187.845 249.23 192.422C244.653 196.999 244.653 204.42 249.23 208.997C253.807 213.573 261.227 213.573 265.804 208.997Z" fill="#263238"/>
<path d="M260.647 208.668C265.034 206.938 267.189 201.978 265.459 197.591C263.728 193.203 258.769 191.049 254.381 192.779C249.993 194.509 247.839 199.468 249.569 203.856C251.299 208.244 256.259 210.398 260.647 208.668Z" fill="white"/>
<path d="M262.06 202.55C261.968 202.091 261.908 201.627 261.88 201.16C261.8 200.28 261.69 199.02 261.57 197.49L261.68 197.65L257.11 195.42H257.36L253.12 198.23C253.01 198.44 253.26 197.95 253.23 198V198.31V198.64V199.3C253.23 199.74 253.28 200.17 253.3 200.59C253.35 201.44 253.39 202.26 253.44 203.05L253.3 202.85L257.82 205.18H257.63C258.93 204.35 260 203.69 260.75 203.23C261.146 202.976 261.556 202.745 261.98 202.54C261.662 202.852 261.31 203.127 260.93 203.36C260.22 203.87 259.17 204.6 257.84 205.5L257.75 205.56H257.65L253.08 203.33L252.96 203.27V203.12C252.91 202.33 252.85 201.51 252.8 200.66C252.8 200.24 252.75 199.81 252.72 199.37V198.71V198.38V198C252.72 198.05 252.95 197.56 252.84 197.76L257.1 194.98L257.22 194.9L257.34 194.97L261.86 197.3L261.97 197.35V197.46C262.04 199.05 262.08 200.34 262.1 201.22C262.134 201.663 262.121 202.109 262.06 202.55Z" fill="#FF9A0D"/>
<g opacity="0.2">
<path opacity="0.2" d="M212.68 177.47C212.68 177.47 247.01 158.72 283.35 169.25C283.35 169.25 267.8 184 212.68 177.47Z" fill="black"/>
</g>
<path d="M267.999 408.18C268.06 408.138 268.13 408.113 268.203 408.107C268.276 408.101 268.349 408.114 268.415 408.145C268.482 408.175 268.539 408.223 268.581 408.283C268.623 408.343 268.649 408.412 268.656 408.485C268.663 408.558 268.651 408.632 268.621 408.698C268.591 408.765 268.544 408.823 268.484 408.866C268.425 408.909 268.356 408.935 268.283 408.943C268.21 408.951 268.136 408.939 268.069 408.91C268.007 408.878 267.953 408.831 267.913 408.774C267.872 408.716 267.846 408.65 267.836 408.581C267.827 408.511 267.834 408.44 267.857 408.374C267.88 408.308 267.918 408.248 267.969 408.2" fill="white"/>
<path d="M253.089 279.74C253.719 304.16 256.209 328.59 262.429 352.21C263.489 356.27 264.749 360.48 267.659 363.5C270.569 366.52 275.659 367.87 279.019 365.37C281.909 363.24 282.559 359.26 282.959 355.69C286.067 329.532 287.792 303.229 288.129 276.89C288.129 276.89 288.899 256.76 274.699 256.77C260.499 256.78 252.709 264.78 253.089 279.74Z" fill="#FF9A0D"/>
<g opacity="0.2">
<path opacity="0.2" d="M262.999 259C264.779 256.85 268.359 257 270.529 258.75C272.699 260.5 273.649 263.36 273.969 266.13C274.969 274.89 270.669 283.29 269.139 291.97C267.669 300.33 268.789 308.91 268.389 317.38C267.989 325.85 266.119 334.51 259.489 339.79C259.489 339.79 253.069 307.14 253.969 294.67C254.639 285.54 262.999 259 262.999 259Z" fill="black"/>
</g>
<path d="M264.9 291.9C264.965 292.149 265.005 292.403 265.02 292.66L265.26 294.85C265.46 296.8 265.74 299.53 266.08 302.85C266.79 309.64 267.82 319.01 269.15 329.33C270.48 339.65 271.85 348.98 272.89 355.72C273.41 359.05 273.83 361.77 274.13 363.72C274.26 364.62 274.37 365.34 274.45 365.89C274.501 366.14 274.528 366.395 274.53 366.65C274.444 366.41 274.384 366.162 274.35 365.91C274.237 365.37 274.097 364.65 273.93 363.75C273.57 361.87 273.09 359.16 272.53 355.75C271.4 349.02 269.96 339.7 268.63 329.37C267.3 319.04 266.33 309.66 265.72 302.86C265.41 299.46 265.19 296.71 265.06 294.8C265 293.887 264.95 293.157 264.91 292.61C264.888 292.374 264.885 292.136 264.9 291.9V291.9Z" fill="white"/>
<path d="M244 297.4C250.63 300.64 260.09 298.01 264.68 291.31C269.27 284.61 270.68 276.31 272.03 268.31C272.47 265.62 272.83 262.57 271.16 260.42C269.24 257.96 265.63 257.84 262.52 257.94L232.87 258.94C232.87 258.94 222.08 262.03 222.08 268.54C222.08 275.05 234.93 293 244 297.4Z" fill="#263238"/>
<path d="M269.47 369C266.28 369.15 263.6 371.71 262.34 374.65C261.08 377.59 260.94 380.87 260.83 384.06C260.15 403.5 259.47 422.98 260.55 442.4C260.78 446.61 261.19 451.08 263.76 454.4C266.33 457.72 271.85 459.13 274.76 456.08C276.42 454.34 276.76 451.76 277.02 449.37L284.58 379.85C284.86 377.23 285.11 374.4 283.77 372.13C283.063 371.076 282.126 370.198 281.029 369.56C279.932 368.923 278.705 368.543 277.44 368.45C274.911 368.277 272.371 368.497 269.91 369.1" fill="#FF9A0D"/>
<path d="M265.55 460.45C265.545 460.373 265.545 460.296 265.55 460.22L265.46 459.53C265.39 458.93 265.28 458.04 265.17 456.89C264.95 454.59 264.7 451.25 264.52 447.12C264.12 438.85 264.2 427.42 264.58 414.81C264.96 402.2 265.33 390.81 265.58 382.53C265.572 379.243 266.14 375.98 267.26 372.89C267.601 372.064 268.023 371.273 268.52 370.53L268.94 369.98C269.03 369.85 269.09 369.79 269.09 369.8C269.062 369.874 269.025 369.945 268.98 370.01L268.61 370.59C268.156 371.345 267.768 372.138 267.45 372.96C266.411 376.045 265.903 379.285 265.95 382.54C265.73 390.84 265.43 402.24 265.1 414.83C264.77 427.42 264.58 438.83 264.88 447.1C265.02 451.23 265.22 454.57 265.38 456.87C265.45 457.99 265.52 458.87 265.56 459.52V460.22C265.574 460.296 265.57 460.375 265.55 460.45V460.45Z" fill="white"/>
<path d="M262.34 462C261.984 460.021 261.89 458.004 262.06 456C262.24 453.99 263.207 452.132 264.75 450.83C266.052 449.997 267.532 449.485 269.07 449.333C270.608 449.182 272.16 449.397 273.6 449.96C274.65 450.569 275.541 451.417 276.201 452.435C276.862 453.453 277.272 454.613 277.4 455.82L278.89 463.07" fill="#263238"/>
<path d="M261.749 461.66L279.009 461.84C279.009 461.84 291.709 464.72 291.439 465.74C291.169 466.76 261.239 465.54 261.239 465.54L261.749 461.66Z" fill="#FF9A0D"/>
<path d="M257.459 258.86C257.693 259.36 257.887 259.879 258.039 260.41C258.258 261.022 258.442 261.646 258.589 262.28C258.825 263.11 259.018 263.951 259.169 264.8C259.386 265.821 259.549 266.852 259.659 267.89C259.819 269.01 259.869 270.21 259.949 271.48C260.032 274.228 259.875 276.979 259.479 279.7C259.054 282.421 258.385 285.099 257.479 287.7C257.009 288.88 256.599 290.01 256.079 291.02C255.829 291.52 255.609 292.02 255.359 292.48L254.619 293.79C254.193 294.54 253.729 295.267 253.229 295.97C252.879 296.519 252.491 297.044 252.069 297.54C251.749 297.989 251.387 298.407 250.989 298.79C251.257 298.308 251.565 297.85 251.909 297.42C252.3 296.899 252.663 296.358 252.999 295.8C253.399 295.16 253.879 294.45 254.309 293.6C254.539 293.18 254.769 292.74 255.019 292.29C255.269 291.84 255.459 291.29 255.699 290.82C256.189 289.82 256.579 288.69 257.039 287.53C257.931 284.955 258.6 282.309 259.039 279.62C259.432 276.928 259.603 274.209 259.549 271.49C259.489 270.24 259.459 269.05 259.309 267.94C259.159 266.83 259.049 265.8 258.889 264.87C258.729 263.94 258.549 263.09 258.389 262.35C258.229 261.61 258.079 260.98 257.929 260.47C257.734 259.945 257.577 259.407 257.459 258.86V258.86Z" fill="#455A64"/>
<path d="M271 317.07C271.061 317.037 271.129 317.02 271.198 317.018C271.268 317.017 271.336 317.032 271.399 317.062C271.461 317.093 271.516 317.137 271.557 317.192C271.599 317.247 271.628 317.312 271.64 317.38C271.647 317.452 271.634 317.525 271.604 317.592C271.575 317.658 271.528 317.715 271.469 317.758C271.41 317.801 271.341 317.828 271.269 317.836C271.197 317.844 271.124 317.833 271.057 317.805C270.99 317.776 270.932 317.731 270.888 317.673C270.844 317.615 270.815 317.547 270.806 317.475C270.796 317.403 270.805 317.33 270.832 317.262C270.859 317.195 270.903 317.135 270.96 317.09" fill="white"/>
<path d="M273.489 338.46C273.55 338.421 273.621 338.398 273.693 338.395C273.765 338.391 273.837 338.406 273.902 338.438C273.967 338.47 274.022 338.519 274.063 338.579C274.104 338.638 274.128 338.708 274.134 338.78C274.14 338.852 274.127 338.925 274.096 338.99C274.066 339.056 274.019 339.113 273.96 339.155C273.901 339.197 273.833 339.224 273.761 339.232C273.689 339.239 273.616 339.229 273.549 339.2C273.488 339.167 273.435 339.119 273.395 339.062C273.356 339.004 273.331 338.937 273.322 338.868C273.313 338.799 273.321 338.728 273.345 338.662C273.369 338.597 273.408 338.537 273.459 338.49" fill="white"/>
<path d="M268.409 295.24C268.47 295.199 268.54 295.175 268.614 295.169C268.687 295.164 268.76 295.178 268.826 295.21C268.892 295.241 268.949 295.29 268.99 295.35C269.032 295.411 269.057 295.481 269.063 295.554C269.069 295.627 269.056 295.7 269.024 295.767C268.993 295.833 268.945 295.89 268.885 295.932C268.825 295.974 268.755 296 268.682 296.006C268.609 296.013 268.536 296.001 268.469 295.97C268.408 295.937 268.355 295.889 268.315 295.832C268.276 295.774 268.251 295.708 268.242 295.638C268.233 295.569 268.241 295.498 268.265 295.432C268.289 295.367 268.328 295.308 268.379 295.26" fill="white"/>
<path d="M268.409 387.77C268.471 387.735 268.54 387.716 268.611 387.714C268.681 387.712 268.752 387.727 268.815 387.759C268.878 387.79 268.933 387.837 268.974 387.895C269.015 387.953 269.04 388.02 269.049 388.09C269.05 388.16 269.034 388.229 269.003 388.292C268.971 388.354 268.925 388.408 268.868 388.448C268.81 388.489 268.744 388.514 268.675 388.523C268.605 388.532 268.535 388.524 268.469 388.5C268.408 388.467 268.355 388.419 268.315 388.362C268.276 388.304 268.251 388.238 268.242 388.168C268.233 388.099 268.241 388.028 268.265 387.962C268.289 387.897 268.328 387.838 268.379 387.79" fill="white"/>
<path d="M277.729 456C277.03 456.386 276.279 456.669 275.499 456.84C273.647 457.349 271.747 457.664 269.829 457.78C267.913 457.901 265.988 457.817 264.089 457.53C263.297 457.454 262.519 457.266 261.779 456.97C264.437 457.24 267.109 457.337 269.779 457.26C272.453 457.009 275.109 456.588 277.729 456V456Z" fill="#455A64"/>
<g opacity="0.2">
<path opacity="0.2" d="M260 427.58C264.57 424.24 267.5 419.03 269.13 413.58C270.76 408.13 271.2 402.46 271.64 396.81C272.08 391.16 272.54 385.46 274.21 380.04C274.689 378.897 274.872 377.652 274.74 376.42C274.33 374.48 272.35 373.34 270.54 372.52C268.3 371.52 265.48 370.67 263.54 372.2C262.09 373.35 261.77 375.39 261.59 377.2C259.85 394.2 259.99 411.25 260.13 428.29" fill="black"/>
</g>
<path d="M274.809 378.27C281.591 378.27 287.089 372.772 287.089 365.99C287.089 359.208 281.591 353.71 274.809 353.71C268.027 353.71 262.529 359.208 262.529 365.99C262.529 372.772 268.027 378.27 274.809 378.27Z" fill="#263238"/>
<path d="M286.4 364.22C286.229 364.506 286.013 364.763 285.76 364.98C285.11 365.608 284.385 366.152 283.6 366.6C280.964 368.038 277.979 368.713 274.98 368.55C272.016 368.363 269.091 367.767 266.29 366.78C265.22 366.43 264.36 366.11 263.77 365.88C263.455 365.783 263.153 365.649 262.87 365.48C264.067 365.715 265.247 366.033 266.4 366.43C269.196 367.284 272.082 367.811 275 368C277.911 368.153 280.812 367.55 283.42 366.25C284.468 365.657 285.464 364.978 286.4 364.22Z" fill="#455A64"/>
<path d="M147.31 167.89C147.31 167.89 144.9 158.02 143.61 157.55C142.32 157.08 126.85 159.3 126.85 159.3C126.85 159.3 121.85 152.3 121.05 151.36C120.25 150.42 118.6 152.75 119.14 153.81C119.68 154.87 123.37 165.1 125.66 165.45C128.349 165.608 131.046 165.571 133.73 165.34L135.61 171.78L147.31 167.89Z" fill="#FF9A0D"/>
<path d="M214.18 206.09C204.42 209.65 198.18 211.45 188.41 215.09C182.99 217.09 176.09 219.33 170.98 220.64C167.57 221.52 163.66 221.79 160.36 220.35C157.55 219.13 155.49 216.68 153.64 214.23C144.97 202.77 140.14 188.23 136.77 174.23L148.5 172.02L169.72 201.7L208.29 188.51L214.65 204.19C214.784 204.331 214.881 204.504 214.931 204.693C214.981 204.881 214.983 205.08 214.936 205.269C214.889 205.458 214.795 205.633 214.663 205.777C214.531 205.92 214.364 206.028 214.18 206.09V206.09Z" fill="#FF9A0D"/>
<path d="M214.58 181.31C212.21 182.036 210.082 183.39 208.422 185.229C206.761 187.069 205.631 189.324 205.15 191.755C204.67 194.185 204.858 196.701 205.695 199.034C206.531 201.366 207.984 203.428 209.9 205C211.5 206.31 213.75 207.32 215.62 205.32C216.2 204.678 216.618 203.907 216.84 203.07C218.92 195.797 218.11 188.001 214.58 181.31V181.31Z" fill="#263238"/>
<path d="M208.659 185.06C208.659 185.06 208.659 184.97 208.799 184.83C208.958 184.629 209.143 184.451 209.349 184.3C209.517 184.187 209.709 184.115 209.909 184.09C210.143 184.088 210.375 184.136 210.589 184.23C210.843 184.332 211.064 184.502 211.229 184.72L211.729 185.38C213.566 187.832 214.831 190.665 215.429 193.67C216.061 196.674 215.976 199.785 215.179 202.75C214.922 203.661 214.424 204.486 213.739 205.14C213.495 205.387 213.187 205.56 212.849 205.64C212.849 205.64 213.159 205.44 213.599 204.99C214.194 204.322 214.616 203.518 214.829 202.65C215.497 199.734 215.527 196.709 214.919 193.78C214.33 190.843 213.142 188.058 211.429 185.6C211.089 185.12 210.859 184.6 210.429 184.49C210.277 184.402 210.105 184.356 209.929 184.356C209.754 184.356 209.581 184.402 209.429 184.49C208.929 184.8 208.689 185.1 208.659 185.06Z" fill="#455A64"/>
<path d="M169.72 201.75C169.826 202.025 169.884 202.316 169.89 202.61C170.002 203.401 170.039 204.202 170 205C169.956 206.19 169.774 207.371 169.46 208.52C168.373 212.516 165.889 215.989 162.46 218.31C161.806 218.769 161.117 219.177 160.4 219.53C160.147 219.679 159.875 219.79 159.59 219.86C159.59 219.77 160.66 219.21 162.24 218.01C164.302 216.456 166.035 214.508 167.34 212.28C168.041 211.052 168.598 209.746 169 208.39C169.32 207.277 169.531 206.134 169.63 204.98C169.78 203 169.62 201.76 169.72 201.75Z" fill="white"/>
<path d="M206.45 192.17C206.5 192.3 198.32 195.5 188.18 199.31C178.04 203.12 169.78 206.11 169.73 205.97C169.68 205.83 177.85 202.64 188 198.83C198.15 195.02 206.4 192 206.45 192.17Z" fill="white"/>
<path d="M140.59 174C140.678 174.143 140.745 174.298 140.79 174.46L141.29 175.82C141.71 176.99 142.29 178.69 143.14 180.82C144.74 184.99 147.14 190.68 150.19 196.82C151.72 199.82 153.27 202.72 154.74 205.28C156.21 207.84 157.62 210.1 158.86 211.95C159.47 212.89 160.04 213.72 160.55 214.45C161.06 215.18 161.49 215.81 161.87 216.3L162.71 217.48C162.89 217.75 162.99 217.9 162.97 217.91C162.843 217.8 162.729 217.676 162.63 217.54L161.71 216.43C161.31 215.95 160.84 215.34 160.32 214.62C159.8 213.9 159.18 213.09 158.56 212.16C157.27 210.33 155.85 208.06 154.32 205.53C152.79 203 151.26 200.11 149.72 197.06C147.111 191.841 144.798 186.479 142.79 181C142.02 178.89 141.46 177.17 141.1 176C140.94 175.45 140.8 175 140.69 174.62C140.621 174.421 140.587 174.211 140.59 174Z" fill="white"/>
<path d="M177.309 205.36C177.367 205.321 177.414 205.268 177.447 205.206C177.48 205.144 177.497 205.075 177.497 205.005C177.497 204.935 177.48 204.866 177.447 204.804C177.414 204.742 177.367 204.689 177.309 204.65C177.246 204.614 177.173 204.595 177.1 204.595C177.026 204.595 176.954 204.615 176.891 204.652C176.827 204.689 176.774 204.742 176.738 204.806C176.701 204.869 176.682 204.941 176.682 205.015C176.682 205.088 176.701 205.161 176.738 205.224C176.774 205.288 176.827 205.341 176.891 205.378C176.954 205.415 177.026 205.435 177.1 205.435C177.173 205.435 177.246 205.416 177.309 205.38" fill="white"/>
<path d="M161 210.19C161.063 210.153 161.116 210.101 161.153 210.038C161.189 209.975 161.209 209.903 161.21 209.83C161.21 209.757 161.192 209.685 161.156 209.622C161.121 209.558 161.069 209.505 161.007 209.467C160.944 209.429 160.873 209.408 160.8 209.407C160.727 209.405 160.655 209.422 160.59 209.457C160.526 209.491 160.472 209.542 160.433 209.604C160.395 209.666 160.373 209.737 160.37 209.81C160.37 209.884 160.389 209.957 160.426 210.021C160.462 210.085 160.515 210.139 160.578 210.178C160.641 210.216 160.714 210.237 160.787 210.239C160.861 210.241 160.935 210.224 161 210.19" fill="white"/>
<path d="M153.55 198.59C153.613 198.553 153.665 198.501 153.702 198.439C153.738 198.376 153.758 198.305 153.759 198.233C153.76 198.16 153.742 198.088 153.707 198.025C153.673 197.961 153.622 197.908 153.56 197.87C153.498 197.831 153.428 197.81 153.355 197.807C153.283 197.804 153.211 197.82 153.146 197.853C153.082 197.887 153.027 197.936 152.988 197.997C152.948 198.057 152.925 198.127 152.92 198.2C152.921 198.274 152.941 198.346 152.977 198.41C153.014 198.474 153.066 198.528 153.128 198.567C153.191 198.606 153.263 198.628 153.336 198.632C153.41 198.636 153.483 198.622 153.55 198.59Z" fill="white"/>
<path d="M186.89 202C186.953 201.964 187.006 201.911 187.042 201.848C187.079 201.785 187.099 201.713 187.099 201.64C187.1 201.567 187.082 201.495 187.046 201.432C187.011 201.368 186.959 201.315 186.896 201.277C186.834 201.239 186.763 201.218 186.69 201.217C186.617 201.215 186.544 201.232 186.48 201.267C186.416 201.301 186.362 201.352 186.323 201.414C186.284 201.476 186.263 201.547 186.26 201.62C186.263 201.693 186.283 201.764 186.32 201.827C186.358 201.89 186.41 201.942 186.472 201.98C186.535 202.018 186.606 202.039 186.678 202.043C186.751 202.046 186.824 202.032 186.89 202Z" fill="white"/>
<path d="M197.7 198.28C197.762 198.247 197.83 198.23 197.9 198.229C197.97 198.228 198.04 198.244 198.102 198.275C198.165 198.307 198.219 198.353 198.26 198.409C198.302 198.465 198.329 198.531 198.34 198.6C198.338 198.669 198.321 198.737 198.288 198.799C198.256 198.86 198.21 198.913 198.154 198.954C198.098 198.994 198.033 199.021 197.965 199.033C197.896 199.044 197.826 199.04 197.76 199.02C197.698 198.988 197.644 198.941 197.603 198.884C197.563 198.826 197.537 198.76 197.527 198.691C197.517 198.621 197.524 198.55 197.547 198.484C197.57 198.418 197.609 198.358 197.66 198.31" fill="white"/>
<path d="M136.51 174.35C140.517 174.063 144.5 173.498 148.43 172.66C150 172.34 151.82 171.77 152.31 170.24C152.454 169.68 152.437 169.091 152.26 168.54C152.083 167.99 151.753 167.501 151.31 167.13C150.386 166.421 149.3 165.953 148.15 165.77C144.64 165.043 140.995 165.328 137.64 166.59C136.428 166.985 135.333 167.672 134.45 168.59C134.012 169.055 133.705 169.627 133.56 170.249C133.414 170.87 133.435 171.519 133.62 172.13C133.806 172.765 134.191 173.323 134.719 173.723C135.246 174.123 135.888 174.343 136.55 174.35" fill="#263238"/>
<path d="M151.789 168.72C151.789 168.8 150.789 168.29 149.059 167.83C146.852 167.243 144.542 167.15 142.294 167.56C140.047 167.97 137.918 168.871 136.059 170.2C134.629 171.2 133.889 172.05 133.819 171.98C133.937 171.743 134.096 171.53 134.289 171.35C134.765 170.825 135.284 170.34 135.839 169.9C137.7 168.437 139.89 167.451 142.219 167.03C144.547 166.608 146.944 166.762 149.199 167.48C149.889 167.69 150.558 167.961 151.199 168.29C151.417 168.401 151.616 168.547 151.789 168.72Z" fill="#455A64"/>
<path d="M233 368C229.82 368.35 227.3 371.06 226.22 374.06C225.14 377.06 225.22 380.36 225.27 383.55C225.74 403 226.21 422.48 228.43 441.81C228.92 445.99 229.59 450.43 232.35 453.61C235.11 456.79 240.71 457.85 243.43 454.61C244.98 452.77 245.17 450.18 245.29 447.78C246.43 424.5 247.573 401.217 248.72 377.93C248.85 375.3 248.92 372.46 247.45 370.27C246.687 369.278 245.712 368.469 244.596 367.903C243.48 367.337 242.251 367.029 241 367C238.465 366.982 235.942 367.353 233.52 368.1" fill="#FF9A0D"/>
<path d="M216.48 280C217.1 304.42 219.6 328.86 225.81 352.48C226.88 356.54 228.14 360.74 231.05 363.76C233.96 366.78 239.05 368.13 242.41 365.64C245.29 363.5 245.95 359.53 246.34 355.96C249.45 329.799 251.179 303.493 251.52 277.15C251.52 277.15 252.28 257.02 238.09 257.03C223.9 257.04 216.1 265.06 216.48 280Z" fill="#FF9A0D"/>
<g opacity="0.3">
<path opacity="0.3" d="M228.349 356C227.999 356.05 226.859 350.9 225.349 342.51C223.839 334.12 221.869 322.51 220.349 309.57C219.579 303.1 219.019 296.91 218.559 291.3C218.099 285.69 217.729 280.52 218.289 276.17C218.594 272.698 219.714 269.347 221.559 266.39L222.559 265.1C222.816 264.795 223.093 264.507 223.389 264.24C223.849 263.8 224.129 263.61 224.189 263.67C224.249 263.73 224.119 264.04 223.789 264.57C223.639 264.85 223.409 265.15 223.189 265.57C222.969 265.99 222.729 266.43 222.449 266.93C221.058 269.891 220.273 273.101 220.139 276.37C219.839 280.52 220.339 285.51 220.969 291.1C221.599 296.69 222.189 302.85 222.969 309.29C224.479 322.17 226.129 333.81 227.199 342.29C228.269 350.77 228.709 355.94 228.349 356Z" fill="white"/>
</g>
<path d="M236.15 366.7C236.109 366.61 236.079 366.516 236.06 366.42L235.85 365.6L235.1 362.42C234.48 359.66 233.65 355.64 232.73 350.66C230.93 340.66 229.05 326.81 227.73 311.41C227.05 303.71 226.51 296.36 226.04 289.68C225.8 286.35 225.58 283.17 225.37 280.2C225.124 277.441 225.047 274.669 225.14 271.9C225.227 269.604 225.662 267.335 226.43 265.17C227.01 263.533 227.854 262.003 228.93 260.64C229.613 259.782 230.41 259.022 231.3 258.38C231.617 258.154 231.951 257.953 232.3 257.78C231.096 258.616 230.024 259.627 229.12 260.78C228.087 262.142 227.28 263.662 226.73 265.28C226.008 267.426 225.607 269.667 225.54 271.93C225.469 274.683 225.566 277.438 225.83 280.18C226.06 283.18 226.29 286.32 226.54 289.66C227.05 296.33 227.6 303.66 228.28 311.37C229.61 326.76 231.43 340.63 233.14 350.61C234 355.61 234.78 359.61 235.34 362.39C235.62 363.75 235.84 364.82 235.99 365.58C236.06 365.93 236.11 366.2 236.15 366.42C236.158 366.513 236.158 366.607 236.15 366.7V366.7Z" fill="white"/>
<path d="M233.39 453.45C233.316 453.179 233.269 452.901 233.25 452.62C233.17 452.02 233.07 451.22 232.95 450.22C232.7 448.13 232.37 445.11 232.01 441.37C231.27 433.89 230.42 423.54 229.8 412.09C229.18 400.64 228.9 390.25 228.8 382.74C228.8 378.98 228.75 375.94 228.8 373.84C228.8 372.84 228.8 372.02 228.8 371.42C228.772 371.141 228.772 370.859 228.8 370.58C228.845 370.858 228.865 371.139 228.86 371.42C228.86 372.02 228.86 372.82 228.92 373.84C228.92 375.99 229.03 379.01 229.1 382.73C229.28 390.24 229.61 400.61 230.23 412.06C230.85 423.51 231.64 433.85 232.28 441.33C232.61 445.04 232.87 448.05 233.06 450.2C233.14 451.2 233.21 452.01 233.26 452.61C233.319 452.887 233.362 453.168 233.39 453.45V453.45Z" fill="white"/>
<path d="M236.479 378.56C243.261 378.56 248.759 373.062 248.759 366.28C248.759 359.498 243.261 354 236.479 354C229.697 354 224.199 359.498 224.199 366.28C224.199 373.062 229.697 378.56 236.479 378.56Z" fill="#263238"/>
<path d="M229.319 464.38C229.319 462.38 229.319 456.83 229.899 454.91C230.383 452.952 231.609 451.259 233.319 450.19C234.723 449.497 236.291 449.207 237.849 449.35C239.39 449.372 240.896 449.818 242.199 450.64C243.151 451.393 243.911 452.361 244.415 453.465C244.919 454.569 245.154 455.777 245.099 456.99L245.509 464.38" fill="#263238"/>
<path d="M229.589 462L246.859 461.84C246.859 461.84 259.609 464.46 259.359 465.49C259.109 466.52 229.159 465.88 229.159 465.88L229.589 462Z" fill="#FF9A0D"/>
<path d="M230.069 300.35C230.131 300.317 230.198 300.3 230.268 300.298C230.337 300.297 230.406 300.312 230.468 300.342C230.531 300.373 230.585 300.417 230.627 300.472C230.669 300.528 230.697 300.592 230.709 300.66C230.716 300.732 230.704 300.805 230.674 300.872C230.644 300.938 230.597 300.995 230.538 301.038C230.48 301.081 230.411 301.108 230.339 301.116C230.266 301.124 230.193 301.113 230.126 301.085C230.059 301.056 230.001 301.011 229.957 300.953C229.913 300.895 229.885 300.827 229.875 300.755C229.865 300.683 229.874 300.61 229.901 300.542C229.928 300.475 229.972 300.415 230.029 300.37" fill="white"/>
<path d="M228.819 281.9C228.88 281.859 228.95 281.835 229.024 281.829C229.097 281.824 229.17 281.838 229.236 281.869C229.302 281.901 229.359 281.95 229.4 282.01C229.442 282.07 229.467 282.141 229.473 282.214C229.479 282.287 229.466 282.36 229.434 282.426C229.403 282.493 229.355 282.55 229.295 282.592C229.235 282.634 229.165 282.66 229.092 282.666C229.019 282.673 228.946 282.66 228.879 282.63C228.816 282.595 228.762 282.545 228.723 282.484C228.683 282.423 228.66 282.353 228.654 282.281C228.648 282.209 228.66 282.136 228.689 282.07C228.718 282.003 228.762 281.945 228.819 281.9" fill="white"/>
<path d="M231.61 323C231.672 322.967 231.741 322.95 231.811 322.949C231.881 322.948 231.95 322.964 232.012 322.996C232.075 323.027 232.129 323.073 232.17 323.129C232.212 323.186 232.239 323.251 232.25 323.32C232.248 323.389 232.231 323.457 232.198 323.519C232.166 323.58 232.12 323.633 232.064 323.674C232.008 323.714 231.943 323.742 231.875 323.753C231.806 323.765 231.736 323.76 231.67 323.74C231.608 323.708 231.554 323.661 231.514 323.604C231.473 323.547 231.447 323.48 231.437 323.411C231.427 323.341 231.434 323.271 231.457 323.204C231.48 323.138 231.519 323.078 231.57 323.03" fill="white"/>
<path d="M234.73 348.46C234.792 348.427 234.861 348.41 234.931 348.409C235.001 348.408 235.07 348.424 235.132 348.456C235.195 348.487 235.249 348.533 235.29 348.589C235.332 348.646 235.359 348.711 235.37 348.78C235.368 348.849 235.351 348.917 235.319 348.979C235.286 349.04 235.24 349.093 235.184 349.134C235.128 349.174 235.063 349.202 234.995 349.213C234.927 349.225 234.856 349.22 234.79 349.2C234.728 349.168 234.674 349.121 234.634 349.064C234.593 349.007 234.567 348.94 234.557 348.871C234.547 348.801 234.554 348.731 234.577 348.664C234.601 348.598 234.639 348.538 234.69 348.49" fill="white"/>
<path d="M231.2 387.32C231.261 387.281 231.331 387.259 231.403 387.255C231.476 387.251 231.548 387.266 231.613 387.298C231.677 387.33 231.733 387.379 231.774 387.439C231.814 387.499 231.839 387.568 231.844 387.64C231.85 387.712 231.837 387.785 231.807 387.851C231.777 387.916 231.73 387.973 231.671 388.015C231.612 388.057 231.543 388.084 231.471 388.092C231.399 388.1 231.326 388.089 231.26 388.06C231.194 388.025 231.139 387.975 231.098 387.913C231.057 387.851 231.033 387.78 231.027 387.706C231.021 387.633 231.034 387.559 231.064 387.491C231.094 387.423 231.141 387.365 231.2 387.32" fill="white"/>
<path d="M233.15 407.39C233.211 407.349 233.281 407.325 233.354 407.319C233.427 407.314 233.501 407.328 233.567 407.359C233.633 407.391 233.689 407.44 233.731 407.5C233.773 407.56 233.798 407.631 233.804 407.704C233.81 407.777 233.796 407.85 233.765 407.916C233.734 407.983 233.686 408.04 233.626 408.082C233.566 408.124 233.496 408.15 233.423 408.156C233.35 408.163 233.277 408.15 233.21 408.12C233.145 408.087 233.089 408.037 233.048 407.976C233.007 407.915 232.982 407.845 232.976 407.772C232.97 407.699 232.983 407.625 233.013 407.558C233.044 407.491 233.091 407.433 233.15 407.39" fill="white"/>
<path d="M233.389 429.88C233.45 429.841 233.521 429.819 233.593 429.815C233.665 429.811 233.737 429.826 233.802 429.858C233.867 429.89 233.922 429.939 233.963 429.999C234.004 430.059 234.028 430.128 234.034 430.2C234.04 430.272 234.027 430.345 233.996 430.411C233.966 430.476 233.919 430.533 233.86 430.575C233.801 430.617 233.733 430.644 233.661 430.652C233.589 430.659 233.516 430.649 233.449 430.62C233.384 430.585 233.328 430.535 233.288 430.473C233.247 430.411 233.222 430.34 233.216 430.266C233.21 430.193 233.223 430.119 233.253 430.051C233.284 429.983 233.33 429.925 233.389 429.88" fill="white"/>
<path d="M248.52 363.84C248.52 363.84 248.3 364.14 247.81 364.58C247.108 365.191 246.351 365.736 245.55 366.21C242.889 367.812 239.857 368.694 236.752 368.769C233.647 368.845 230.576 368.111 227.84 366.64C227.018 366.198 226.235 365.686 225.5 365.11C225.215 364.917 224.962 364.681 224.75 364.41C224.81 364.33 225.92 365.28 228.01 366.31C230.718 367.655 233.713 368.321 236.736 368.25C239.759 368.178 242.719 367.372 245.36 365.9C247.4 364.77 248.46 363.77 248.52 363.84Z" fill="#455A64"/>
<path d="M244.999 456.68C244.323 457.066 243.591 457.346 242.829 457.51C241.022 458.014 239.164 458.312 237.289 458.4C235.412 458.487 233.53 458.366 231.679 458.04C230.907 457.943 230.152 457.735 229.439 457.42C232.032 457.761 234.645 457.914 237.259 457.88C239.865 457.666 242.451 457.265 244.999 456.68V456.68Z" fill="#455A64"/>
<path d="M257.799 130.86C258.059 131.577 258.059 132.363 257.799 133.08C257.575 133.879 257.164 134.612 256.599 135.22C256.108 135.748 255.511 136.167 254.848 136.45C254.184 136.733 253.469 136.873 252.748 136.862C252.026 136.851 251.316 136.688 250.661 136.384C250.007 136.081 249.424 135.643 248.949 135.1C248.395 134.569 248.041 133.862 247.949 133.1C248.308 133.722 248.73 134.306 249.209 134.84C249.746 135.382 250.399 135.796 251.119 136.05C251.998 136.355 252.944 136.403 253.849 136.19C254.755 135.991 255.584 135.536 256.239 134.88C256.772 134.333 257.181 133.679 257.439 132.96C257.632 132.274 257.752 131.571 257.799 130.86V130.86Z" fill="white"/>
<path d="M126.62 409.69C128.086 409.932 129.488 410.469 130.741 411.269C131.994 412.068 133.072 413.113 133.91 414.34C135.574 416.811 136.652 419.629 137.06 422.58C138.01 428.23 136.48 434.66 134.38 439.99C128.61 437.29 125.54 430.57 124.19 427.06C122.07 421.52 121.59 410.21 126.62 409.69Z" fill="#455A64"/>
<path d="M142.88 448C142.011 446.585 141.532 444.965 141.494 443.305C141.455 441.645 141.857 440.004 142.66 438.55C143.483 437.108 144.585 435.844 145.902 434.833C147.219 433.822 148.724 433.083 150.33 432.66C151.047 432.389 151.815 432.277 152.58 432.332C153.345 432.388 154.088 432.609 154.76 432.98C155.322 433.426 155.755 434.014 156.012 434.685C156.269 435.355 156.341 436.082 156.22 436.79C155.969 438.208 155.344 439.534 154.41 440.63C151.41 444.51 147.78 447.71 142.88 448Z" fill="#455A64"/>
<path d="M141.42 465.87C141.305 465.483 141.241 465.083 141.23 464.68C141.15 463.91 141.05 462.8 140.98 461.41C140.71 457.794 140.929 454.158 141.63 450.6C142.368 447.007 144.069 443.682 146.55 440.98C147.306 440.173 148.163 439.467 149.1 438.88C149.428 438.641 149.793 438.459 150.18 438.34C149.004 439.232 147.901 440.215 146.88 441.28C144.574 443.998 142.986 447.25 142.26 450.74C141.58 454.25 141.301 457.827 141.43 461.4C141.519 462.889 141.516 464.382 141.42 465.87V465.87Z" fill="#263238"/>
<path d="M128 418.27C128.302 418.862 128.547 419.481 128.73 420.12C129.16 421.32 129.73 423.07 130.46 425.24C131.88 429.59 133.74 435.62 135.63 442.33C137.52 449.04 139.09 455.17 140.14 459.61C140.67 461.83 141.08 463.61 141.34 464.89C141.514 465.545 141.632 466.214 141.69 466.89C141.438 466.275 141.24 465.639 141.1 464.99L139.7 459.76C138.53 455.35 136.9 449.25 135.02 442.55C133.14 435.85 131.34 429.79 130.02 425.42C129.39 423.31 128.88 421.56 128.48 420.23C128.27 419.59 128.11 418.935 128 418.27V418.27Z" fill="#263238"/>
<path d="M135.2 453.33C133.759 450.139 131.579 447.336 128.84 445.154C126.101 442.972 122.883 441.472 119.45 440.78C117.7 440.45 115.55 440.5 114.58 441.99C113.61 443.48 114.44 445.48 115.48 446.92C117.722 449.886 120.792 452.123 124.303 453.349C127.813 454.575 131.608 454.736 135.21 453.81" fill="#455A64"/>
<path d="M121.36 445.81C121.747 445.789 122.135 445.83 122.51 445.93C122.959 445.989 123.404 446.083 123.84 446.21C124.422 446.349 124.996 446.519 125.56 446.72C127.036 447.243 128.457 447.913 129.8 448.72C131.438 449.716 132.963 450.886 134.35 452.21C135.718 453.553 136.935 455.042 137.98 456.65C138.827 457.964 139.538 459.361 140.1 460.82C140.318 461.377 140.508 461.944 140.67 462.52C140.808 462.952 140.914 463.393 140.99 463.84C141.093 464.211 141.147 464.595 141.15 464.98C141.03 464.98 140.71 463.4 139.68 460.98C139.066 459.586 138.333 458.248 137.49 456.98C136.44 455.433 135.24 453.993 133.91 452.68C132.555 451.388 131.075 450.236 129.49 449.24C128.193 448.429 126.823 447.739 125.4 447.18C123 446.19 121.34 445.93 121.36 445.81Z" fill="#263238"/>
<path d="M423.63 69.0801C420.2 57.1001 407.18 46.0001 394.72 46.0001C384.29 42.9201 370.23 48.6601 364.65 54.8401C357.32 62.9601 352.65 74.2001 355.65 84.7201C358.65 95.2401 367.06 103.93 377.28 107.84C388.92 112.3 402.92 110.47 412.61 102.63C422.3 94.7901 427.07 81.0601 423.63 69.0801Z" fill="#FF9A0D"/>
<path opacity="0.8" d="M423.63 69.0801C420.2 57.1001 407.18 46.0001 394.72 46.0001C384.29 42.9201 370.23 48.6601 364.65 54.8401C357.32 62.9601 352.65 74.2001 355.65 84.7201C358.65 95.2401 367.06 103.93 377.28 107.84C388.92 112.3 402.92 110.47 412.61 102.63C422.3 94.7901 427.07 81.0601 423.63 69.0801Z" fill="white"/>
<path d="M405.72 86.89C405.707 86.777 405.707 86.663 405.72 86.55C405.72 86.3 405.72 85.98 405.72 85.55C405.72 84.67 405.72 83.44 405.67 81.87C405.67 78.65 405.61 74.07 405.57 68.43L405.67 68.6L389.67 59.43H389.92L373.97 68.65C373.85 68.86 374.12 68.38 374.09 68.43V78C374.09 81.08 374.09 84.07 374.09 86.94L373.97 86.73L389.9 95.99H389.71L401.39 89.35L404.61 87.55L405.46 87.09L405.77 86.94C405.691 87.0107 405.604 87.0711 405.51 87.12L404.7 87.61L401.56 89.48L389.9 96.32L389.81 96.38L389.71 96.32L373.71 87.15L373.59 87.08V86.94C373.59 84.07 373.59 81.08 373.59 78C373.59 76.46 373.59 74.9 373.59 73.31V68.48C373.59 68.53 373.84 68.05 373.73 68.25L389.73 59.05L389.86 58.98L389.98 59.05L405.91 68.31L406.01 68.37V68.48C406.01 74.15 405.94 78.76 405.92 82C405.92 83.56 405.92 84.78 405.87 85.66C405.87 86.04 405.87 86.36 405.87 86.6C405.87 86.84 405.72 86.9 405.72 86.89Z" fill="#FF9A0D"/>
<path d="M405.72 68.46C405.34 68.7631 404.935 69.034 404.51 69.27L401.13 71.27C398.27 72.98 394.29 75.27 389.89 77.85H389.6H389.55L389.45 77.79L389.24 77.67L388.83 77.44L388 77L386.41 76L383.41 74.26L378.41 71.26L375.03 69.26C374.603 69.0273 374.198 68.7562 373.82 68.45C374.276 68.6215 374.715 68.8358 375.13 69.09L378.59 70.99L383.69 73.87L386.69 75.59L388.27 76.5L389.08 76.97L389.49 77.2L389.7 77.32L389.8 77.38H389.85H389.62C394 74.9 398 72.63 401 71L404.46 69.1C404.86 68.8486 405.282 68.6344 405.72 68.46V68.46Z" fill="#FF9A0D"/>
<path d="M389.78 95.88C389.523 92.8205 389.436 89.7491 389.52 86.68C389.436 83.6109 389.523 80.5394 389.78 77.48C390.044 80.5391 390.131 83.6109 390.04 86.68C390.131 89.7491 390.044 92.8209 389.78 95.88V95.88Z" fill="#FF9A0D"/>
<path fill-rule="evenodd" clip-rule="evenodd" d="M163.12 240.36C163.773 239.086 164.594 237.906 165.561 236.85L164.201 233.13L169.711 229.58L172.54 232.36C173.903 231.917 175.319 231.658 176.751 231.59L178.421 228L184.821 229.39V233.39C186.096 234.04 187.277 234.861 188.331 235.83L192.061 234.47L195.601 239.98L192.831 242.81C193.27 244.17 193.526 245.582 193.59 247.01L197.18 248.69L195.79 255.09H191.79C191.141 256.363 190.324 257.544 189.361 258.6L190.711 262.32L185.201 265.87L182.37 263.1C181.01 263.536 179.598 263.792 178.171 263.86L176.501 267.45L170.09 266.06V262.06C168.819 261.408 167.639 260.591 166.581 259.63L162.9 261L159.351 255.49L162.131 252.66C161.686 251.301 161.427 249.888 161.361 248.46L157.771 246.79L159.161 240.38H163.161L163.12 240.36ZM170.691 245.95C170.405 247.302 170.527 248.708 171.039 249.991C171.551 251.274 172.432 252.377 173.57 253.16C174.708 253.944 176.052 254.373 177.433 254.394C178.815 254.415 180.172 254.027 181.333 253.278C182.494 252.53 183.408 251.454 183.959 250.187C184.51 248.92 184.674 247.518 184.43 246.159C184.186 244.799 183.545 243.541 182.587 242.545C181.63 241.549 180.4 240.858 179.051 240.56C178.144 240.361 177.207 240.344 176.294 240.511C175.381 240.677 174.51 241.024 173.732 241.53C172.954 242.036 172.284 242.692 171.762 243.46C171.24 244.227 170.876 245.091 170.691 246V245.95Z" fill="#FF9A0D"/>
<path opacity="0.5" fill-rule="evenodd" clip-rule="evenodd" d="M163.12 240.36C163.773 239.086 164.594 237.906 165.561 236.85L164.201 233.13L169.711 229.58L172.54 232.36C173.903 231.917 175.319 231.658 176.751 231.59L178.421 228L184.821 229.39V233.39C186.096 234.04 187.277 234.861 188.331 235.83L192.061 234.47L195.601 239.98L192.831 242.81C193.27 244.17 193.526 245.582 193.59 247.01L197.18 248.69L195.79 255.09H191.79C191.141 256.363 190.324 257.544 189.361 258.6L190.711 262.32L185.201 265.87L182.37 263.1C181.01 263.536 179.598 263.792 178.171 263.86L176.501 267.45L170.09 266.06V262.06C168.819 261.408 167.639 260.591 166.581 259.63L162.9 261L159.351 255.49L162.131 252.66C161.686 251.301 161.427 249.888 161.361 248.46L157.771 246.79L159.161 240.38H163.161L163.12 240.36ZM170.691 245.95C170.405 247.302 170.527 248.708 171.039 249.991C171.551 251.274 172.432 252.377 173.57 253.16C174.708 253.944 176.052 254.373 177.433 254.394C178.815 254.415 180.172 254.027 181.333 253.278C182.494 252.53 183.408 251.454 183.959 250.187C184.51 248.92 184.674 247.518 184.43 246.159C184.186 244.799 183.545 243.541 182.587 242.545C181.63 241.549 180.4 240.858 179.051 240.56C178.144 240.361 177.207 240.344 176.294 240.511C175.381 240.677 174.51 241.024 173.732 241.53C172.954 242.036 172.284 242.692 171.762 243.46C171.24 244.227 170.876 245.091 170.691 246V245.95Z" fill="white"/>
<path d="M128.21 250.85C128.21 250.85 128.21 250.74 128.21 250.53C128.264 250.218 128.362 249.915 128.5 249.63C128.981 248.545 129.831 247.666 130.9 247.15C131.698 246.761 132.581 246.581 133.467 246.624C134.354 246.668 135.215 246.935 135.97 247.4C136.907 247.972 137.643 248.821 138.077 249.83C138.51 250.839 138.62 251.957 138.39 253.03C138.161 254.104 137.604 255.08 136.796 255.823C135.988 256.567 134.969 257.041 133.88 257.18C133.003 257.298 132.11 257.191 131.285 256.871C130.46 256.552 129.729 256.028 129.16 255.35C128.405 254.436 127.994 253.286 128 252.1C127.997 251.787 128.031 251.475 128.1 251.17C128.15 250.96 128.19 250.85 128.21 250.85C128.23 250.85 128.15 251.31 128.21 252.1C128.292 253.212 128.738 254.267 129.48 255.1C130.077 255.777 130.85 256.276 131.713 256.54C132.576 256.804 133.495 256.824 134.369 256.597C135.242 256.37 136.036 255.905 136.661 255.254C137.286 254.603 137.719 253.792 137.91 252.91C138.094 252.026 138.029 251.109 137.723 250.26C137.416 249.411 136.88 248.664 136.175 248.101C135.469 247.538 134.621 247.183 133.725 247.073C132.829 246.963 131.921 247.104 131.1 247.48C130.08 247.936 129.242 248.722 128.72 249.71C128.34 250.42 128.26 250.87 128.21 250.85Z" fill="#263238"/>
<path d="M122.72 246.83C122.484 246.853 122.246 246.853 122.01 246.83L119.86 246.9L119.94 246.84C119.69 248.04 119.38 249.6 119 251.48L118.92 251.34L121.53 252.52H121.61V252.61C121.664 253.631 121.855 254.64 122.18 255.61V255.71L122.11 255.79L120.11 257.85V257.62C120.92 258.87 121.79 260.19 122.7 261.62L122.46 261.54L125.14 260.54H125.27L125.36 260.63C126.118 261.307 126.962 261.882 127.87 262.34L127.99 262.4V262.54C127.99 263.42 127.99 264.4 127.99 265.4L127.81 265.18L132.45 266.18L132.18 266.32L133.37 263.72L133.44 263.58H133.59C134.61 263.535 135.62 263.35 136.59 263.03L136.73 262.98L136.84 263.09C137.49 263.71 138.19 264.4 138.9 265.09H138.58L142.58 262.51L142.47 262.82L141.47 260.13L141.42 259.98L141.52 259.86C142.201 259.113 142.779 258.279 143.24 257.38V257.38L143.47 257.23H145H146.43L146.18 257.43C146.51 255.87 146.84 254.32 147.18 252.8L147.32 253.08L144.72 251.88L144.58 251.82V251.66C144.532 250.64 144.347 249.631 144.03 248.66L143.98 248.51L144.09 248.4L146.09 246.4V246.7C145.21 245.34 144.35 244.02 143.52 242.7L143.8 242.8L141.11 243.8H140.98L140.87 243.7C140.119 243.02 139.282 242.441 138.38 241.98L138.26 241.92V241.78C138.26 240.78 138.26 239.85 138.26 238.92L138.43 239.13L133.8 238.13L134.02 238.02L132.81 240.62L132.76 240.72H132.65C131.631 240.768 130.622 240.95 129.65 241.26H129.55L129.48 241.19L127.48 239.19H127.67L123.67 241.74V241.6L124.67 244.3V244.35C124.147 244.914 123.678 245.527 123.27 246.18C123.145 246.404 123.008 246.621 122.86 246.83L122.93 246.65C122.93 246.54 123.07 246.37 123.19 246.14C123.571 245.455 124.027 244.814 124.55 244.23V244.32C124.27 243.58 123.94 242.7 123.55 241.64V241.55L123.63 241.5L127.63 238.89L127.74 238.82L127.83 238.91L129.89 240.91H129.72C130.715 240.576 131.751 240.377 132.8 240.32L132.64 240.43L133.83 237.82L133.9 237.68H134.05L138.69 238.68H138.86V238.85C138.86 239.78 138.86 240.73 138.91 241.72L138.79 241.52C139.732 241.994 140.607 242.593 141.39 243.3H141.15L143.83 242.3L144.01 242.23L144.12 242.39C144.96 243.68 145.82 245.01 146.71 246.39L146.81 246.56L146.68 246.7L144.68 248.76L144.74 248.5C145.065 249.508 145.26 250.553 145.32 251.61L145.17 251.39L147.77 252.59L147.96 252.67V252.87C147.64 254.4 147.31 255.94 146.96 257.51V257.71H146.76H145.33H143.89L144.12 257.57C143.64 258.512 143.038 259.386 142.33 260.17V259.91L143.33 262.6L143.4 262.79L143.23 262.91L139.23 265.48L139.06 265.59L138.91 265.45L136.91 263.45L137.17 263.51C136.162 263.834 135.117 264.026 134.06 264.08L134.27 263.93C133.86 264.83 133.44 265.72 133.07 266.53L132.99 266.71H132.8L128.16 265.71H127.98V265.53C127.98 264.53 127.98 263.53 127.98 262.66L128.1 262.86C127.162 262.379 126.292 261.777 125.51 261.07H125.73L123.04 262.07H122.89L122.8 261.94L120.23 257.94L120.15 257.81L120.26 257.71L122.26 255.71V255.88C121.941 254.882 121.752 253.847 121.7 252.8L121.79 252.93L119.2 251.71H119.1V251.61C119.52 249.74 119.87 248.18 120.1 246.98V246.92H122H122.55L122.72 246.83Z" fill="#263238"/>
<path d="M128.21 250.85C128.248 250.643 128.301 250.439 128.37 250.24C128.566 249.656 128.868 249.114 129.26 248.64C129.807 247.997 130.503 247.499 131.288 247.189C132.072 246.88 132.921 246.768 133.759 246.863C134.597 246.959 135.399 247.26 136.093 247.739C136.788 248.217 137.354 248.86 137.741 249.609C138.129 250.358 138.326 251.191 138.315 252.035C138.304 252.878 138.086 253.706 137.68 254.446C137.274 255.185 136.692 255.813 135.986 256.274C135.279 256.735 134.47 257.015 133.63 257.09C132.589 257.179 131.544 256.957 130.63 256.45C129.679 255.902 128.915 255.08 128.44 254.09C128.207 253.582 128.049 253.043 127.97 252.49C127.955 252.21 127.955 251.93 127.97 251.65C127.97 251.51 127.97 251.37 127.97 251.23V251.02V250.88C127.97 250.88 127.97 251.05 128.18 251.07L128.46 250.91C128.394 251.114 128.354 251.326 128.34 251.54C128.252 252.562 128.488 253.587 129.016 254.467C129.544 255.346 130.336 256.037 131.28 256.44C132.122 256.788 133.042 256.899 133.942 256.762C134.843 256.625 135.688 256.244 136.388 255.662C137.088 255.079 137.615 254.317 137.914 253.456C138.212 252.596 138.269 251.671 138.08 250.78C137.915 250.038 137.584 249.342 137.113 248.745C136.642 248.148 136.043 247.664 135.36 247.33C134.357 246.856 133.226 246.726 132.142 246.959C131.057 247.192 130.08 247.776 129.36 248.62C128.827 249.254 128.45 250.004 128.26 250.81C128.237 250.593 128.268 250.373 128.35 250.17C128.517 249.558 128.806 248.987 129.2 248.49C129.828 247.697 130.672 247.103 131.63 246.78C132.921 246.353 134.325 246.432 135.56 247C136.46 247.418 137.228 248.074 137.781 248.898C138.334 249.722 138.651 250.681 138.697 251.672C138.743 252.663 138.517 253.648 138.043 254.519C137.569 255.391 136.865 256.116 136.008 256.615C135.151 257.115 134.173 257.371 133.182 257.354C132.19 257.337 131.221 257.049 130.381 256.521C129.542 255.993 128.863 255.244 128.418 254.358C127.974 253.471 127.781 252.479 127.86 251.49C127.882 251.229 127.932 250.97 128.01 250.72L128.08 250.52H128.3C128.351 250.534 128.398 250.561 128.437 250.597C128.475 250.634 128.504 250.679 128.52 250.73V251V251.2C128.52 251.33 128.52 251.45 128.52 251.58C128.505 251.836 128.505 252.094 128.52 252.35C128.617 253.162 128.923 253.936 129.408 254.595C129.892 255.254 130.539 255.777 131.285 256.112C132.032 256.447 132.852 256.583 133.667 256.507C134.481 256.431 135.262 256.146 135.934 255.678C136.605 255.211 137.145 254.578 137.499 253.841C137.853 253.103 138.011 252.287 137.956 251.47C137.901 250.654 137.636 249.866 137.187 249.182C136.737 248.499 136.118 247.943 135.39 247.57C134.288 247.004 133.011 246.879 131.82 247.22C130.916 247.483 130.105 247.996 129.48 248.7C128.953 249.35 128.525 250.075 128.21 250.85V250.85Z" fill="#263238"/>
<path d="M122.72 246.83H119.82H119.87C119.62 248.03 119.28 249.62 118.87 251.56L118.82 251.45L121.48 252.68L121.34 252.84V252.76L121.54 252.7C121.599 253.721 121.791 254.729 122.11 255.7H121.87V255.6L122.08 255.72L120 257.88V257.71C120.84 259 121.73 260.38 122.68 261.83L122.5 261.77L125.27 260.77V261.08H125.15L125.29 260.81C126.052 261.5 126.903 262.086 127.82 262.55L127.6 262.79L127.53 262.68L127.85 262.59C127.85 263.49 127.85 264.51 127.85 265.59L127.71 265.41L132.55 266.41L132.34 266.52C132.72 265.7 133.15 264.76 133.59 263.82L133.87 264.06L133.75 264.14L133.64 263.78C134.661 263.729 135.67 263.54 136.64 263.22V263.61H136.49L136.68 263.26L138.82 265.34H138.56L142.72 262.63L142.64 262.88C142.32 262.03 141.97 261.06 141.64 260.09H142.06V260.24L141.68 260.05C142.368 259.283 142.953 258.429 143.42 257.51L143.74 257.81L143.61 257.89L143.49 257.47H146.49L146.27 257.65L147.27 252.79L147.4 253.05L144.69 251.81L144.99 251.46L145.07 251.58L144.64 251.72C144.583 250.699 144.391 249.691 144.07 248.72H144.54V248.86L144.14 248.64L146.21 246.51V246.81L143.5 242.65L143.8 242.75L141.01 243.75V243.27H141.14L140.93 243.7C140.168 243.018 139.321 242.436 138.41 241.97L138.73 241.61L138.8 241.72L138.34 241.86C138.34 240.94 138.34 239.92 138.29 238.86L138.49 239.11L133.67 238.11L133.96 237.97L132.73 240.65L132.35 240.33L132.44 240.27L132.6 240.74C131.58 240.794 130.571 240.982 129.6 241.3V240.81H129.7L129.46 241.25L127.35 239.25H127.67L123.6 241.91L123.71 241.6L124.71 244.33H124.21L124.66 244.55C124.073 245.205 123.569 245.931 123.16 246.71L123.06 246.89H123.01C123.09 246.89 122.71 246.68 122.65 246.8L122.87 246.42C123.02 246.16 123.18 245.9 123.35 245.66C123.687 245.165 124.058 244.693 124.46 244.25V244.52C124.13 243.6 123.8 242.7 123.46 241.8H123.95V241.88L123.57 241.58L127.57 239.01L127.68 239.49H127.57L127.78 239.05C128.48 239.73 129.17 240.42 129.87 241.05L129.61 240.99C130.646 240.652 131.722 240.457 132.81 240.41L132.58 240.56L133.82 237.91L134.17 238.24L134.04 238.31L133.98 237.83L138.61 238.83L138.37 239.23L138.27 239.12L138.72 238.95C138.72 239.943 138.72 240.923 138.72 241.89L138.58 241.67C139.563 242.165 140.472 242.794 141.28 243.54L141.02 243.49L143.79 242.49V242.95L143.63 242.9L143.91 242.53L146.49 246.53L146.04 246.64V246.47L146.45 246.66L144.39 248.77L144.45 248.53C144.793 249.575 144.991 250.662 145.04 251.76L144.9 251.56L147.58 252.8L147.27 253.12L147.19 252.96L147.63 252.9C147.29 254.48 146.96 256.02 146.63 257.53L146.27 257.31L146.41 257.19L146.55 257.6H143.6L143.8 257.48C143.307 258.464 142.678 259.373 141.93 260.18L141.98 259.96C142.33 260.96 142.66 261.84 142.98 262.73H142.58L142.63 262.56L142.95 262.81L138.95 265.38L138.86 265H139.04L138.87 265.35L136.76 263.29L136.97 263.34C135.931 263.689 134.846 263.888 133.75 263.93L133.91 263.82L132.68 266.49L132.42 266.25L132.57 266.17V266.52L127.93 265.52L128.11 265.23L128.21 265.36L127.89 265.47C127.89 264.39 127.89 263.47 127.89 262.53L127.98 262.68C127.007 262.197 126.108 261.577 125.31 260.84H125.47L122.71 261.84V261.56H122.84L122.67 261.79L120.1 257.79L120.34 257.73V257.85L120.11 257.75L122.11 255.66V255.78C121.775 254.761 121.58 253.701 121.53 252.63L121.6 252.72L118.95 251.49L119.07 251.37V251.45H118.9C119.33 249.45 119.65 247.96 119.9 246.82L120 246.88V246.78H122.87C122.637 246.827 122.398 246.847 122.16 246.84L120.01 246.92H119.84L119.97 246.81L120.1 246.7V246.86C119.87 248.01 119.57 249.49 119.17 251.51V251.77L119.05 251.53V251.45L118.93 251.22L119.17 251.33L121.82 252.52H121.88V252.59C121.935 253.639 122.133 254.675 122.47 255.67V255.74V255.8L120.47 257.9L120.21 258.18V257.8V257.67V257.29L120.42 257.61L123.02 261.61L123.26 261.97L122.85 261.84L122.71 261.79L122.3 261.66L122.71 261.51L125.46 260.51H125.55L125.62 260.58C126.402 261.293 127.281 261.892 128.23 262.36L128.33 262.41V262.51C128.33 263.43 128.33 264.37 128.38 265.45V265.95L128.05 265.56L127.95 265.44L127.63 265.05L128.12 265.15L132.76 266.15L133.29 266.26L132.81 266.51L132.66 266.58L132.18 266.82L132.4 266.33C132.79 265.48 133.19 264.62 133.63 263.65L133.68 263.55H133.8C134.859 263.502 135.906 263.307 136.91 262.97H137.03L137.11 263.05L139.23 265.11L139.66 265.52L139.07 265.46H138.89L138.3 265.41L138.8 265.08L142.8 262.5L143.31 262.16L143.12 262.74L143.06 262.92L142.87 263.5L142.66 262.92L141.66 260.15V260.03L141.75 259.93C142.466 259.148 143.068 258.269 143.54 257.32L143.6 257.2H143.74H146.69H147.34L146.84 257.62L146.7 257.73L146.19 258.15L146.33 257.51C146.65 256 146.97 254.46 147.33 252.87L147.47 252.22L147.77 252.82L147.85 252.98L148.15 253.58L147.54 253.29L144.86 252.06L144.73 252V251.85C144.687 250.795 144.495 249.751 144.16 248.75V248.61L144.26 248.51L146.32 246.39L146.81 245.89L146.74 246.59V246.76L146.68 247.45L146.3 246.87L143.72 242.87L143.33 242.28L144 242.5L144.16 242.55L144.84 242.78L144.17 243.02L141.41 244.02L141.26 244.07L141.15 243.97C140.376 243.254 139.504 242.651 138.56 242.18L138.43 242.11V241.96C138.43 240.96 138.43 240.01 138.43 239.02V238.3L138.89 238.86L138.99 238.97L139.45 239.53L138.74 239.38L134.1 238.38L133.39 238.22L134.04 237.9L134.17 237.84L134.82 237.51L134.51 238.17C134.11 239.05 133.69 239.94 133.28 240.83L133.22 240.97H133.06C132.017 241.013 130.984 241.198 129.99 241.52H129.85L129.73 241.41L127.65 239.41L127.12 238.89L127.85 238.96H127.96L128.7 239.04L128.08 239.44L124.08 242L123.46 242.4L123.69 241.7V241.63L123.92 240.91L124.18 241.62C124.5 242.52 124.83 243.42 125.18 244.34V244.49L125.08 244.61C124.688 245.027 124.33 245.475 124.01 245.95C123.85 246.19 123.69 246.43 123.55 246.69L123.32 247.07V247.12C123.26 247.25 122.88 247.05 122.95 247.04V246.89C122.961 246.804 122.985 246.72 123.02 246.64L123.13 246.44C123.554 245.619 124.082 244.856 124.7 244.17L125.33 243.46L125.15 244.4L124.98 245.31L124.65 244.45L123.65 241.72L123.58 241.52L123.75 241.41L127.82 238.74L127.99 238.63L128.14 238.77C128.86 239.48 129.59 240.18 130.25 240.82L130.92 241.46L130.01 241.25H129.91L129.02 241.04L129.89 240.75C130.904 240.421 131.956 240.226 133.02 240.17H133.95L133.18 240.69L133.09 240.75L132.33 241.26L132.71 240.43C133.14 239.5 133.56 238.58 133.94 237.74L134.03 237.56H134.23L139.05 238.56H139.25V238.76C139.25 239.76 139.25 240.76 139.25 241.76V242.67L138.78 241.9L138.71 241.79L138.23 241.03L139.03 241.43C139.984 241.912 140.869 242.521 141.66 243.24L142.33 243.84L141.45 243.67H141.32L140.44 243.5L141.28 243.19L144.07 242.19L144.25 242.12L144.36 242.28L147.06 246.44L147.17 246.61L147.03 246.75L144.95 248.88L144.35 249.5L144.54 248.65V248.51L144.73 247.68L145 248.49C145.331 249.507 145.526 250.562 145.58 251.63V252.48L145.11 251.78L145.02 251.65L144.55 250.95L145.32 251.3L148.02 252.55L148.19 252.63V252.82C147.82 254.51 147.47 256.18 147.14 257.68V257.86H146.95H143.95H143.15L143.83 257.44L143.96 257.36L144.64 256.94L144.28 257.66C143.794 258.605 143.185 259.483 142.47 260.27L141.94 260.85L142.09 260.08V259.94L142.24 259.16L142.51 259.9L143.51 262.7L143.57 262.86L143.43 262.96L139.25 265.65L139.11 265.74L139 265.63L136.87 263.54L136 263L136.7 263.16H136.85L137.55 263.32L136.86 263.54C135.848 263.871 134.795 264.063 133.73 264.11H133.04L133.62 263.72L133.73 263.64L134.32 263.25L134.02 263.88L132.77 266.58L132.7 266.71H132.56L127.71 265.66H127.58V265.52C127.58 264.52 127.58 263.46 127.58 262.52V261.92L127.9 262.43L127.97 262.54L128.29 263.06L127.75 262.78C126.805 262.298 125.93 261.689 125.15 260.97L124.73 260.59L125.29 260.7H125.41L125.98 260.81L125.44 261.01L122.66 262.01H122.54L122.48 261.91L119.82 257.77V257.68L119.89 257.6L121.96 255.5L122.27 255.19L122.17 255.62V255.71L122.07 256.15L121.93 255.72C121.609 254.719 121.424 253.68 121.38 252.63V252.24L121.59 252.56V252.64L121.81 252.96L121.46 252.8L118.81 251.54H118.74V251.47L119.81 246.75H121.98H122.53L122.72 246.83Z" fill="#263238"/>
<path d="M179.01 129.31V138.23H33.7305V40.96H43.4205" fill="#FF9A0D"/>
<path opacity="0.8" d="M179.01 129.31V138.23H33.7305V40.96H43.4205" fill="white"/>
<path d="M189.15 31.5598H43.8701V128.84H189.15V31.5598Z" fill="white"/>
<path d="M189.15 128.83C189.15 128.83 189.15 128.22 189.15 127.06C189.15 125.9 189.15 124.17 189.15 121.93C189.15 117.43 189.15 110.82 189.15 102.37C189.15 85.4599 189.09 61.1699 189.04 31.5599L189.25 31.7599L43.9803 31.8199L44.2403 31.5599C44.2403 66.2099 44.2403 99.1599 44.2403 128.83L44.0003 128.59L148.66 128.71L178.57 128.77H186.52H188.57H189.28H188.6H186.6H178.69L148.84 128.83L44.0203 128.95H43.7803V128.71C43.7803 99.0399 43.7803 66.0899 43.7803 31.4399V31.1699H44.0503L189.32 31.2299H189.53V31.4399C189.48 61.1099 189.44 85.4399 189.42 102.37C189.42 110.81 189.42 117.37 189.37 121.89C189.37 124.12 189.37 125.83 189.37 126.99C189.37 128.15 189.15 128.83 189.15 128.83Z" fill="#FF9A0D"/>
<path d="M43.8701 40.24C43.8701 40.09 76.3701 39.98 116.44 39.98C156.51 39.98 189.03 40.09 189.03 40.24C189.03 40.39 156.54 40.5 116.44 40.5C76.3401 40.5 43.8701 40.38 43.8701 40.24Z" fill="#FF9A0D"/>
<path d="M49.6007 35.86C49.6007 36.0914 49.5321 36.3176 49.4036 36.51C49.275 36.7024 49.0923 36.8524 48.8785 36.9409C48.6647 37.0295 48.4294 37.0526 48.2025 37.0075C47.9755 36.9624 47.7671 36.8509 47.6034 36.6873C47.4398 36.5237 47.3284 36.3152 47.2832 36.0882C47.2381 35.8613 47.2612 35.626 47.3498 35.4122C47.4384 35.1985 47.5883 35.0157 47.7807 34.8872C47.9731 34.7586 48.1993 34.69 48.4307 34.69C48.5848 34.6887 48.7375 34.718 48.8801 34.7763C49.0226 34.8347 49.1521 34.9208 49.261 35.0297C49.3699 35.1386 49.4561 35.2681 49.5144 35.4107C49.5727 35.5532 49.6021 35.706 49.6007 35.86Z" fill="#FF9A0D"/>
<path d="M53.59 35.86C53.59 36.0914 53.5214 36.3176 53.3928 36.51C53.2643 36.7024 53.0815 36.8524 52.8677 36.9409C52.654 37.0295 52.4187 37.0526 52.1917 37.0075C51.9648 36.9624 51.7563 36.8509 51.5927 36.6873C51.4291 36.5237 51.3176 36.3152 51.2725 36.0882C51.2273 35.8613 51.2505 35.626 51.3391 35.4122C51.4276 35.1985 51.5776 35.0157 51.77 34.8872C51.9624 34.7586 52.1886 34.69 52.42 34.69C52.574 34.6887 52.7268 34.718 52.8693 34.7763C53.0119 34.8347 53.1414 34.9208 53.2503 35.0297C53.3592 35.1386 53.4453 35.2681 53.5037 35.4107C53.562 35.5532 53.5913 35.706 53.59 35.86V35.86Z" fill="#FF9A0D"/>
<path d="M57.5207 35.86C57.5207 36.0918 57.4518 36.3184 57.3228 36.511C57.1938 36.7036 57.0104 36.8536 56.7961 36.9418C56.5817 37.0301 56.3459 37.0527 56.1187 37.0067C55.8915 36.9608 55.683 36.8483 55.5198 36.6837C55.3566 36.5191 55.2459 36.3097 55.2019 36.0821C55.1579 35.8544 55.1825 35.6189 55.2726 35.4053C55.3627 35.1917 55.5142 35.0096 55.7079 34.8823C55.9017 34.7549 56.1288 34.688 56.3607 34.69C56.5138 34.69 56.6655 34.7203 56.8069 34.7792C56.9483 34.8382 57.0766 34.9245 57.1845 35.0333C57.2923 35.142 57.3775 35.2711 57.4353 35.413C57.493 35.5549 57.522 35.7068 57.5207 35.86V35.86Z" fill="#FF9A0D"/>
<g opacity="0.6">
<path opacity="0.6" d="M49.6007 35.86C49.6007 36.0914 49.5321 36.3176 49.4036 36.51C49.275 36.7024 49.0923 36.8524 48.8785 36.9409C48.6647 37.0295 48.4294 37.0526 48.2025 37.0075C47.9755 36.9624 47.7671 36.8509 47.6034 36.6873C47.4398 36.5237 47.3284 36.3152 47.2832 36.0882C47.2381 35.8613 47.2612 35.626 47.3498 35.4122C47.4384 35.1985 47.5883 35.0157 47.7807 34.8872C47.9731 34.7586 48.1993 34.69 48.4307 34.69C48.5848 34.6887 48.7375 34.718 48.8801 34.7763C49.0226 34.8347 49.1521 34.9208 49.261 35.0297C49.3699 35.1386 49.4561 35.2681 49.5144 35.4107C49.5727 35.5532 49.6021 35.706 49.6007 35.86Z" fill="white"/>
<path opacity="0.6" d="M53.591 35.86C53.591 36.0914 53.5224 36.3176 53.3938 36.51C53.2652 36.7024 53.0825 36.8524 52.8687 36.9409C52.6549 37.0295 52.4197 37.0526 52.1927 37.0075C51.9658 36.9624 51.7573 36.8509 51.5937 36.6873C51.43 36.5237 51.3186 36.3152 51.2735 36.0882C51.2283 35.8613 51.2515 35.626 51.34 35.4122C51.4286 35.1985 51.5786 35.0157 51.771 34.8872C51.9634 34.7586 52.1896 34.69 52.421 34.69C52.575 34.6887 52.7277 34.718 52.8703 34.7763C53.0128 34.8347 53.1424 34.9208 53.2513 35.0297C53.3602 35.1386 53.4463 35.2681 53.5046 35.4107C53.563 35.5532 53.5923 35.706 53.591 35.86V35.86Z" fill="white"/>
<path opacity="0.6" d="M57.5207 35.86C57.5207 36.0918 57.4518 36.3184 57.3228 36.511C57.1938 36.7036 57.0104 36.8536 56.7961 36.9418C56.5817 37.0301 56.3459 37.0527 56.1187 37.0067C55.8915 36.9608 55.683 36.8483 55.5198 36.6837C55.3566 36.5191 55.2459 36.3097 55.2019 36.0821C55.1579 35.8544 55.1825 35.6189 55.2726 35.4053C55.3627 35.1917 55.5142 35.0096 55.7079 34.8823C55.9017 34.7549 56.1288 34.688 56.3607 34.69C56.5138 34.69 56.6655 34.7203 56.8069 34.7792C56.9483 34.8382 57.0766 34.9245 57.1845 35.0333C57.2923 35.142 57.3775 35.2711 57.4353 35.413C57.493 35.5549 57.522 35.7068 57.5207 35.86V35.86Z" fill="white"/>
</g>
<g opacity="0.3">
<path opacity="0.3" d="M95.1104 50.3799H56.3604V89.1299H95.1104V50.3799Z" fill="#FF9A0D"/>
</g>
<path d="M169.231 61.3298C169.231 61.4798 154.111 61.5898 135.471 61.5898C116.831 61.5898 101.711 61.4798 101.711 61.3298C101.711 61.1798 116.821 61.0698 135.471 61.0698C154.121 61.0698 169.231 61.1898 169.231 61.3298Z" fill="#FF9A0D"/>
<path d="M169.231 68.54C169.231 68.68 154.111 68.8 135.471 68.8C116.831 68.8 101.711 68.68 101.711 68.54C101.711 68.4 116.821 68.28 135.471 68.28C154.121 68.28 169.231 68.39 169.231 68.54Z" fill="#FF9A0D"/>
<path d="M169.231 75.74C169.231 75.88 154.111 76 135.471 76C116.831 76 101.711 75.88 101.711 75.74C101.711 75.6 116.821 75.48 135.471 75.48C154.121 75.48 169.231 75.59 169.231 75.74Z" fill="#FF9A0D"/>
<path d="M141.611 82.9399C141.095 83.0217 140.573 83.0552 140.051 83.0399L135.771 83.1199C132.161 83.1199 127.171 83.1999 121.661 83.1999C116.151 83.1999 111.171 83.1999 107.561 83.1199L103.281 82.9999C102.756 83.0147 102.23 82.9812 101.711 82.8999C102.23 82.8186 102.756 82.7851 103.281 82.7999L107.561 82.7199C111.171 82.6699 116.151 82.6399 121.661 82.6399C127.171 82.6399 132.161 82.6399 135.771 82.7199L140.051 82.7999C140.574 82.7978 141.096 82.8447 141.611 82.9399V82.9399Z" fill="#FF9A0D"/>
<path d="M76.9903 102.2H58.7803V120.41H76.9903V102.2Z" fill="#FF9A0D"/>
<path opacity="0.6" d="M76.9903 102.2H58.7803V120.41H76.9903V102.2Z" fill="white"/>
<path d="M110.021 102.2H91.8105V120.41H110.021V102.2Z" fill="#FF9A0D"/>
<path opacity="0.6" d="M110.021 102.2H91.8105V120.41H110.021V102.2Z" fill="white"/>
<path d="M143.051 102.2H124.841V120.41H143.051V102.2Z" fill="#FF9A0D"/>
<path opacity="0.6" d="M143.051 102.2H124.841V120.41H143.051V102.2Z" fill="white"/>
<path d="M176.08 102.2H157.87V120.41H176.08V102.2Z" fill="#FF9A0D"/>
<path opacity="0.6" d="M176.08 102.2H157.87V120.41H176.08V102.2Z" fill="white"/>
<path d="M469.501 230.23H305.051V297.03H469.501V230.23Z" fill="white"/>
<path d="M469.511 297C469.511 297 469.511 296.59 469.511 295.81C469.511 295.03 469.511 293.86 469.511 292.34C469.511 289.29 469.511 284.82 469.461 279.05C469.461 267.52 469.401 250.84 469.361 230.2L469.551 230.39L305.111 230.46L305.381 230.2C305.381 253.6 305.381 276.2 305.381 297L305.131 296.75L423.001 296.9L457.211 296.97H466.361H468.731H469.551H468.761H466.421H457.321L423.171 297.04L305.091 297.16H304.851V297C304.851 276.17 304.851 253.6 304.851 230.2V230H305.131L469.571 230.08H469.751V230.26C469.751 250.95 469.671 267.66 469.651 279.26C469.651 285.01 469.651 289.47 469.651 292.51C469.651 294.01 469.651 295.16 469.651 295.94C469.651 296.72 469.511 297 469.511 297Z" fill="#FF9A0D"/>
<path d="M305.221 239.24C305.221 239.1 341.981 238.98 387.311 238.98C432.641 238.98 469.411 239.1 469.411 239.24C469.411 239.38 432.661 239.5 387.311 239.5C341.961 239.5 305.221 239.39 305.221 239.24Z" fill="#FF9A0D"/>
<path d="M312.101 235.21C312.101 235.445 312.031 235.675 311.9 235.871C311.769 236.067 311.584 236.219 311.366 236.309C311.149 236.4 310.909 236.423 310.679 236.377C310.448 236.331 310.236 236.218 310.069 236.051C309.903 235.885 309.789 235.673 309.744 235.442C309.698 235.211 309.721 234.972 309.811 234.755C309.901 234.537 310.054 234.351 310.25 234.221C310.445 234.09 310.675 234.02 310.911 234.02C311.226 234.02 311.529 234.145 311.752 234.369C311.975 234.592 312.101 234.894 312.101 235.21V235.21Z" fill="#FF9A0D"/>
<path d="M316.19 235.21C316.186 235.444 316.113 235.673 315.98 235.866C315.847 236.059 315.66 236.208 315.442 236.295C315.224 236.382 314.986 236.403 314.756 236.355C314.527 236.306 314.317 236.192 314.152 236.024C313.988 235.857 313.876 235.645 313.832 235.415C313.788 235.185 313.812 234.946 313.903 234.73C313.994 234.514 314.146 234.329 314.341 234.199C314.537 234.069 314.766 234 315 234C315.158 234 315.315 234.031 315.46 234.092C315.606 234.154 315.738 234.243 315.849 234.356C315.96 234.468 316.047 234.602 316.106 234.748C316.164 234.895 316.193 235.052 316.19 235.21Z" fill="#FF9A0D"/>
<path d="M320.221 235.21C320.217 235.443 320.144 235.67 320.012 235.862C319.881 236.055 319.695 236.204 319.479 236.292C319.263 236.38 319.026 236.402 318.797 236.356C318.569 236.311 318.358 236.199 318.193 236.034C318.027 235.87 317.914 235.661 317.866 235.433C317.818 235.204 317.839 234.967 317.925 234.75C318.011 234.534 318.159 234.347 318.35 234.214C318.541 234.08 318.768 234.006 319.001 234C319.161 233.996 319.321 234.024 319.47 234.083C319.619 234.143 319.755 234.232 319.869 234.345C319.983 234.458 320.073 234.593 320.133 234.741C320.194 234.89 320.223 235.049 320.221 235.21V235.21Z" fill="#FF9A0D"/>
<g opacity="0.6">
<path opacity="0.6" d="M312.101 235.21C312.101 235.445 312.031 235.675 311.9 235.871C311.769 236.067 311.584 236.219 311.366 236.309C311.149 236.4 310.909 236.423 310.679 236.377C310.448 236.331 310.236 236.218 310.069 236.051C309.903 235.885 309.789 235.673 309.744 235.442C309.698 235.211 309.721 234.972 309.811 234.755C309.901 234.537 310.054 234.351 310.25 234.221C310.445 234.09 310.675 234.02 310.911 234.02C311.226 234.02 311.529 234.145 311.752 234.369C311.975 234.592 312.101 234.894 312.101 235.21V235.21Z" fill="white"/>
<path opacity="0.6" d="M316.19 235.21C316.186 235.444 316.113 235.673 315.98 235.866C315.847 236.059 315.66 236.208 315.442 236.295C315.224 236.382 314.986 236.403 314.756 236.355C314.527 236.306 314.317 236.192 314.152 236.024C313.988 235.857 313.876 235.645 313.832 235.415C313.788 235.185 313.812 234.946 313.903 234.73C313.994 234.514 314.146 234.329 314.341 234.199C314.537 234.069 314.766 234 315 234C315.158 234 315.315 234.031 315.46 234.092C315.606 234.154 315.738 234.243 315.849 234.356C315.96 234.468 316.047 234.602 316.106 234.748C316.164 234.895 316.193 235.052 316.19 235.21Z" fill="white"/>
<path opacity="0.6" d="M320.221 235.21C320.217 235.443 320.144 235.67 320.012 235.862C319.881 236.055 319.695 236.204 319.479 236.292C319.263 236.38 319.026 236.402 318.797 236.356C318.569 236.311 318.358 236.199 318.193 236.034C318.027 235.87 317.914 235.661 317.866 235.433C317.818 235.204 317.839 234.967 317.925 234.75C318.011 234.534 318.159 234.347 318.35 234.214C318.541 234.08 318.768 234.006 319.001 234C319.161 233.996 319.321 234.024 319.47 234.083C319.619 234.143 319.755 234.232 319.869 234.345C319.983 234.458 320.073 234.593 320.133 234.741C320.194 234.89 320.223 235.049 320.221 235.21V235.21Z" fill="white"/>
</g>
<path d="M358.75 250.1H319.03V289.82H358.75V250.1Z" fill="#FF9A0D"/>
<path opacity="0.6" d="M358.75 250.1H319.03V289.82H358.75V250.1Z" fill="white"/>
<path d="M458.13 260.74C458.13 260.89 437.69 261 412.48 261C387.27 261 366.83 260.89 366.83 260.74C366.83 260.59 387.26 260.48 412.48 260.48C437.7 260.48 458.13 260.6 458.13 260.74Z" fill="#FF9A0D"/>
<path d="M458.13 268.84C458.13 268.98 437.69 269.1 412.48 269.1C387.27 269.1 366.83 268.98 366.83 268.84C366.83 268.7 387.26 268.58 412.48 268.58C437.7 268.58 458.13 268.69 458.13 268.84Z" fill="#FF9A0D"/>
<path d="M425.6 276.93C425.402 276.968 425.201 276.984 425 276.98H423.29L416.99 277.06L396.21 277.14L375.43 277.06L369.13 276.98H367.42C367.222 276.985 367.024 276.968 366.83 276.93C367.023 276.885 367.222 276.868 367.42 276.88L369.13 276.83L375.43 276.74L396.21 276.67L416.99 276.74L423.29 276.83L425 276.88C425.201 276.869 425.403 276.886 425.6 276.93V276.93Z" fill="#FF9A0D"/>
</svg>
