<svg width="750" height="500" viewBox="0 0 750 500" fill="none" xmlns="http://www.w3.org/2000/svg">
<path d="M700.83 470.77C700.83 470.91 552.37 471.03 369.28 471.03C186.19 471.03 37.7002 470.91 37.7002 470.77C37.7002 470.63 186.12 470.51 369.28 470.51C552.44 470.51 700.83 470.62 700.83 470.77Z" fill="#263238"/>
<path d="M665.63 433.6L672.05 459.11L682.95 477.81C683.137 478.13 683.256 478.484 683.3 478.851C683.344 479.219 683.312 479.591 683.206 479.945C683.1 480.3 682.922 480.629 682.684 480.912C682.446 481.195 682.152 481.425 681.82 481.59C681.44 481.785 681.018 481.887 680.59 481.887C680.163 481.887 679.741 481.785 679.36 481.59C674.46 478.95 656.5 469.14 656.14 467.25C655.71 465.06 647.57 440.8 647.57 440.8L665.63 433.6Z" fill="#FF9A0D"/>
<g opacity="0.6">
<path opacity="0.6" d="M681.82 481.59L655.66 465.5L655.96 466.57C656.216 467.499 656.793 468.308 657.59 468.85C659.72 470.3 665.7 474.16 679.28 481.57C679.671 481.779 680.107 481.889 680.55 481.889C680.993 481.889 681.43 481.779 681.82 481.57V481.59Z" fill="white"/>
</g>
<g opacity="0.6">
<path opacity="0.6" d="M658.609 455.88C658.987 456.022 659.297 456.3 659.482 456.658C659.667 457.016 659.712 457.43 659.609 457.82C659.481 458.198 659.212 458.513 658.859 458.699C658.505 458.885 658.094 458.928 657.71 458.82C657.312 458.669 656.985 458.375 656.791 457.997C656.597 457.618 656.55 457.181 656.659 456.77C656.835 456.387 657.151 456.087 657.542 455.932C657.934 455.778 658.37 455.78 658.76 455.94" fill="white"/>
</g>
<path d="M673 472.11C673.397 471.151 673.966 470.274 674.68 469.52C675.506 468.891 676.447 468.429 677.45 468.16C677.45 468.09 677.08 467.98 676.45 468.06C675.646 468.193 674.896 468.551 674.287 469.092C673.678 469.634 673.235 470.337 673.01 471.12C672.83 471.72 672.9 472.11 673 472.11Z" fill="#263238"/>
<path d="M675.71 475C675.86 475.07 676.45 474 677.65 473.29C678.425 472.909 679.223 472.575 680.04 472.29C679.582 472.157 679.1 472.135 678.632 472.225C678.164 472.315 677.724 472.516 677.35 472.81C676 473.66 675.56 475 675.71 475Z" fill="#263238"/>
<path d="M668.4 468.69C670.006 466.521 672.209 464.867 674.74 463.93C673.339 464.036 671.998 464.54 670.875 465.383C669.751 466.227 668.893 467.374 668.4 468.69V468.69Z" fill="#263238"/>
<path d="M665.8 461.1C665.91 461.23 667.15 460.26 668.95 459.69C670.75 459.12 672.32 459.16 672.33 458.99C672.34 458.82 670.71 458.51 668.77 459.14C667.581 459.426 666.53 460.12 665.8 461.1V461.1Z" fill="#263238"/>
<path d="M663.72 453.66C664.726 452.995 665.82 452.473 666.97 452.11C668.157 451.919 669.365 451.888 670.56 452.02C670.56 451.96 670.22 451.72 669.56 451.54C668.668 451.327 667.739 451.327 666.847 451.54C665.956 451.754 665.128 452.175 664.43 452.77C663.89 453.23 663.67 453.61 663.72 453.66Z" fill="#263238"/>
<path d="M666.53 450.7C666.524 450.354 666.446 450.014 666.3 449.7C665.965 448.847 665.469 448.066 664.84 447.4C664.421 446.876 663.841 446.503 663.19 446.34C662.968 446.308 662.742 446.345 662.542 446.445C662.342 446.545 662.177 446.704 662.07 446.9C661.895 447.297 661.866 447.744 661.99 448.16C662.283 448.997 662.859 449.704 663.619 450.161C664.378 450.617 665.274 450.794 666.15 450.66C667.012 450.515 667.812 450.116 668.446 449.514C669.081 448.912 669.521 448.134 669.71 447.28C669.759 447.065 669.76 446.841 669.714 446.625C669.667 446.409 669.574 446.206 669.44 446.03C669.293 445.858 669.093 445.741 668.872 445.697C668.65 445.654 668.42 445.686 668.22 445.79C667.636 446.097 667.143 446.552 666.79 447.11C666.256 447.851 665.857 448.681 665.61 449.56C665.491 449.879 665.44 450.22 665.46 450.56C665.85 449.419 666.409 448.344 667.12 447.37C667.445 446.896 667.881 446.508 668.39 446.24C668.501 446.188 668.626 446.173 668.746 446.196C668.866 446.219 668.976 446.28 669.06 446.37C669.137 446.492 669.188 446.629 669.211 446.772C669.233 446.914 669.226 447.06 669.19 447.2C668.995 447.93 668.598 448.589 668.044 449.102C667.49 449.615 666.802 449.961 666.06 450.1C665.316 450.208 664.558 450.058 663.91 449.676C663.263 449.295 662.765 448.703 662.5 448C662.398 447.719 662.398 447.411 662.5 447.13C662.555 447.02 662.644 446.929 662.753 446.872C662.863 446.814 662.987 446.793 663.11 446.81C663.662 446.944 664.159 447.249 664.53 447.68C665.37 448.561 666.047 449.583 666.53 450.7V450.7Z" fill="#263238"/>
<path d="M579.71 437.63L581.13 459.05C581.13 459.05 559.81 466.13 559.68 470.12L601.35 470.42L600.51 436.94L579.71 437.63Z" fill="#FF9A0D"/>
<g opacity="0.6">
<path opacity="0.6" d="M594 456.86C594.403 456.973 594.751 457.229 594.978 457.581C595.205 457.933 595.294 458.356 595.23 458.77C595.134 459.178 594.886 459.533 594.537 459.764C594.187 459.994 593.763 460.082 593.35 460.01C592.928 459.891 592.565 459.622 592.327 459.254C592.09 458.885 591.995 458.443 592.06 458.01C592.202 457.596 592.499 457.252 592.889 457.053C593.279 456.853 593.731 456.813 594.15 456.94" fill="white"/>
</g>
<g opacity="0.6">
<path opacity="0.6" d="M601.35 470.42L601.27 467.04L561 468.16C560.573 468.376 560.207 468.696 559.936 469.091C559.665 469.486 559.498 469.943 559.45 470.42H601.35Z" fill="white"/>
</g>
<path d="M580.45 458.86C580.45 459.07 581.45 459.13 582.45 459.75C583.45 460.37 584.03 461.21 584.22 461.13C584.41 461.05 584.06 459.88 582.82 459.13C581.58 458.38 580.4 458.68 580.45 458.86Z" fill="#263238"/>
<path d="M576.14 460.8C576.14 461 576.99 461.32 577.7 462.16C578.41 463 578.65 463.9 578.85 463.89C579.05 463.88 579.15 462.72 578.24 461.69C577.33 460.66 576.14 460.61 576.14 460.8Z" fill="#263238"/>
<path d="M573.82 466.11C574 466.11 574.25 465.11 573.7 464.02C573.15 462.93 572.18 462.51 572.1 462.68C572.02 462.85 572.62 463.43 573.1 464.34C573.58 465.25 573.61 466.09 573.82 466.11Z" fill="#263238"/>
<path d="M580.67 453.94C580.76 454.13 581.67 453.82 582.84 453.86C584.01 453.9 584.9 454.24 585 454.06C585.1 453.88 584.21 453.19 582.86 453.15C581.51 453.11 580.56 453.79 580.67 453.94Z" fill="#263238"/>
<g opacity="0.3">
<path opacity="0.3" d="M580 441.87L580.25 445.69L600.71 444.88L600.63 441.44L580 441.87Z" fill="black"/>
</g>
<path d="M580.46 449.62C581.151 449.779 581.873 449.752 582.55 449.54C583.296 449.383 584.021 449.138 584.71 448.81C585.12 448.614 585.515 448.386 585.89 448.13C586.122 447.997 586.328 447.825 586.5 447.62C586.629 447.472 586.705 447.286 586.715 447.09C586.726 446.895 586.672 446.701 586.56 446.54C586.454 446.402 586.318 446.29 586.162 446.214C586.006 446.137 585.834 446.098 585.66 446.1C585.395 446.107 585.133 446.15 584.88 446.23C584.44 446.355 584.011 446.519 583.6 446.72C582.902 447.055 582.264 447.5 581.71 448.04C580.77 448.96 580.47 449.73 580.54 449.77C580.61 449.81 581.08 449.18 582.04 448.41C582.601 447.967 583.216 447.598 583.87 447.31C584.256 447.143 584.653 447.006 585.06 446.9C585.49 446.78 585.87 446.76 585.99 446.95C586.11 447.14 585.99 447.06 585.99 447.19C585.856 447.332 585.705 447.456 585.54 447.56C584.595 448.212 583.556 448.718 582.46 449.06C581.781 449.2 581.113 449.387 580.46 449.62V449.62Z" fill="#263238"/>
<path d="M580.74 449.9C581.107 449.301 581.278 448.601 581.23 447.9C581.239 447.125 581.118 446.354 580.87 445.62C580.72 445.186 580.529 444.768 580.3 444.37C580.178 444.1 579.989 443.867 579.751 443.692C579.512 443.517 579.233 443.406 578.94 443.37C578.755 443.383 578.578 443.447 578.428 443.555C578.278 443.663 578.161 443.81 578.09 443.98C577.989 444.226 577.925 444.485 577.9 444.75C577.824 445.214 577.824 445.686 577.9 446.15C578.033 446.928 578.36 447.661 578.85 448.28C579.7 449.34 580.56 449.55 580.57 449.48C580.58 449.41 580 449 579.3 448C578.921 447.414 578.675 446.751 578.58 446.06C578.525 445.662 578.525 445.258 578.58 444.86C578.58 444.41 578.79 444.05 578.96 444.09C579.13 444.13 579.53 444.4 579.71 444.75C579.921 445.106 580.105 445.477 580.26 445.86C580.509 446.526 580.667 447.222 580.73 447.93C580.82 449.1 580.62 449.87 580.74 449.9Z" fill="#263238"/>
<path d="M579.61 250.81L643.09 250.33L673.77 451.83L647.42 455.17L613.66 289.49L603.55 455.76L603.52 456.26L575.03 455.76L579.61 250.81Z" fill="#263238"/>
<path d="M611.53 285.15C611.554 284.33 611.5 283.51 611.37 282.7C611.22 281.18 611.06 279.1 610.99 276.79C610.92 274.48 610.99 272.38 610.99 270.87C611.068 270.049 611.068 269.221 610.99 268.4C610.765 269.195 610.638 270.014 610.61 270.84C610.249 274.807 610.37 278.802 610.97 282.74C611.048 283.565 611.236 284.375 611.53 285.15Z" fill="#455A64"/>
<path d="M606.3 269C606.3 269 606.19 268.88 605.93 268.86C605.571 268.849 605.219 268.958 604.93 269.17C604.692 269.332 604.496 269.548 604.358 269.8C604.219 270.052 604.141 270.333 604.13 270.62C604.16 270.978 604.295 271.32 604.516 271.604C604.738 271.887 605.038 272.099 605.378 272.215C605.719 272.331 606.086 272.344 606.434 272.255C606.783 272.165 607.097 271.976 607.34 271.71C607.507 271.475 607.618 271.205 607.663 270.921C607.708 270.636 607.687 270.345 607.6 270.07C607.491 269.711 607.261 269.4 606.95 269.19C606.73 269.05 606.58 269.05 606.57 269.07C606.56 269.09 607.08 269.37 607.24 270.17C607.286 270.385 607.285 270.607 607.237 270.821C607.188 271.035 607.094 271.236 606.96 271.41C606.776 271.587 606.546 271.711 606.297 271.766C606.047 271.822 605.788 271.807 605.546 271.724C605.304 271.642 605.089 271.494 604.926 271.297C604.763 271.101 604.657 270.863 604.62 270.61C604.622 270.392 604.671 270.177 604.762 269.978C604.853 269.78 604.986 269.604 605.15 269.46C605.71 268.91 606.3 269.07 606.3 269Z" fill="#455A64"/>
<path d="M622.56 264.92C622.56 264.92 622.74 265.14 623.14 265.45C623.703 265.89 624.309 266.272 624.95 266.59C625.906 267.072 626.912 267.447 627.95 267.71C629.212 268.025 630.508 268.19 631.81 268.2C633.114 268.188 634.412 268.027 635.68 267.72C636.718 267.454 637.724 267.075 638.68 266.59C639.319 266.275 639.926 265.897 640.49 265.46C640.88 265.15 641.09 264.96 641.07 264.93C641.05 264.9 640.13 265.53 638.52 266.26C637.576 266.684 636.595 267.018 635.59 267.26C633.12 267.84 630.549 267.84 628.08 267.26C627.071 267.028 626.09 266.693 625.15 266.26C623.5 265.52 622.62 264.84 622.56 264.92Z" fill="#455A64"/>
<path d="M583.26 269.19C583.808 269.431 584.401 269.557 585 269.56C587.904 269.776 590.79 268.949 593.14 267.23C593.646 266.911 594.081 266.493 594.42 266C591.21 268.382 587.244 269.515 583.26 269.19V269.19Z" fill="#455A64"/>
<path d="M663.72 453.66C663.648 453.522 663.588 453.378 663.54 453.23C663.45 452.94 663.32 452.49 663.18 451.9C662.9 450.72 662.52 448.97 662.06 446.7C661.16 442.17 659.92 435.61 658.44 427.48C655.44 411.23 651.54 388.76 647.19 363.93C642.84 339.1 638.87 316.65 636.01 300.36C634.54 292.25 633.35 285.68 632.53 281.11C632.1 278.86 631.77 277.11 631.53 275.88C631.41 275.3 631.32 274.88 631.26 274.52L631.15 274.06C631.15 274.06 631.15 274.22 631.2 274.53C631.25 274.84 631.33 275.32 631.42 275.9C631.63 277.12 631.92 278.9 632.31 281.14C633.09 285.72 634.22 292.3 635.62 300.42L646.62 364.02C650.96 388.85 654.97 411.31 658.02 427.55C659.54 435.67 660.83 442.23 661.8 446.74C662.77 451.25 663.53 453.74 663.72 453.66Z" fill="#455A64"/>
<path d="M582.81 451.39C582.81 451.39 582.81 451.23 582.81 450.92C582.81 450.61 582.81 450.14 582.81 449.56C582.81 448.34 582.81 446.56 582.81 444.32C582.81 442.08 582.81 439.25 582.9 436.02C582.99 432.79 582.97 429.1 583.08 425.02C583.24 416.88 583.55 407.19 584.02 396.44C584.49 385.69 585.2 373.87 586.11 361.49C587.02 349.11 588.11 337.31 589.26 326.6C590.41 315.89 591.54 306.27 592.6 298.19C593.1 294.19 593.6 290.51 594.05 287.3C594.5 284.09 594.88 281.3 595.21 279.09C595.54 276.88 595.77 275.09 595.94 273.9C596.02 273.32 596.08 272.9 596.12 272.54C596.129 272.387 596.129 272.233 596.12 272.08C596.12 272.08 596.12 272.23 596.03 272.54C595.94 272.85 595.89 273.31 595.8 273.88C595.6 275.09 595.32 276.83 594.97 279.06C594.62 281.29 594.18 284.06 593.72 287.26C593.26 290.46 592.72 294.11 592.19 298.15C591.09 306.22 589.91 315.84 588.74 326.55C587.57 337.26 586.49 349.05 585.55 361.45C584.61 373.85 583.97 385.66 583.5 396.45C583.03 407.24 582.78 416.9 582.67 425.05C582.59 429.12 582.59 432.8 582.56 436.05C582.53 439.3 582.56 442.05 582.56 444.35C582.56 446.65 582.56 448.35 582.56 449.59C582.56 450.17 582.56 450.59 582.56 450.95C582.56 451.31 582.81 451.39 582.81 451.39Z" fill="#455A64"/>
<path d="M517.17 173.14L556.84 184.72L579.06 171.6L595.92 191.6L564.47 205.22C562.247 206.183 559.839 206.641 557.418 206.561C554.997 206.481 552.624 205.866 550.47 204.76L511.47 184.76L517.17 173.14Z" fill="#FFBE9D"/>
<path d="M508.12 169.32L503.21 166.77L489.55 159.66C489.306 159.562 489.037 159.543 488.782 159.604C488.526 159.665 488.296 159.804 488.123 160.001C487.95 160.199 487.842 160.445 487.814 160.706C487.787 160.967 487.841 161.231 487.97 161.46L496.68 168.62L493 170C492.275 170.279 491.68 170.817 491.33 171.51L489.4 175.36C489.4 175.36 487.18 175.6 486.96 177.03C486.74 178.46 488.4 178.97 488.4 178.97L487.98 180.65C487.884 181.038 487.871 181.441 487.942 181.834C488.012 182.227 488.165 182.6 488.39 182.93V182.93C490.5 183.8 492.18 179.37 492.18 179.37L494.44 179.61L496.9 184.61C500.03 185.37 498.55 180.43 498.55 180.43L499.93 180.78C501.31 181.12 502.03 182.1 504.18 183.2C506.33 184.3 510.54 184.69 510.54 184.69L513.66 186.99L523.16 174L508.12 169.32Z" fill="#FAFAFA"/>
<path d="M508.12 169.32L508.39 169.37L509.16 169.59L512.16 170.48L523.24 173.86L523.47 173.93L523.32 174.12L513.91 187.12L513.77 187.31L513.59 187.17L510.46 184.88H510.58C508.473 184.718 506.399 184.261 504.42 183.52C503.425 183.03 502.475 182.454 501.58 181.8C501.147 181.486 500.672 181.234 500.17 181.05C499.66 180.91 499.09 180.78 498.55 180.64L498.85 180.32C499.127 181.24 499.242 182.201 499.19 183.16C499.178 183.433 499.111 183.701 498.995 183.948C498.878 184.196 498.713 184.417 498.51 184.6C498.272 184.747 498.006 184.843 497.728 184.881C497.451 184.919 497.169 184.898 496.9 184.82H496.79L496.73 184.7C495.95 183.12 495.11 181.44 494.26 179.7L494.47 179.85L492.47 179.64H492.19L492.46 179.48C492.145 180.274 491.739 181.029 491.25 181.73C491.026 182.12 490.726 182.46 490.366 182.73C490.007 183 489.597 183.194 489.16 183.3H488.8C488.68 183.3 488.57 183.24 488.45 183.21H488.37H488.32C488.32 183.21 488.1 183.03 488.2 183.12L488.11 182.98L487.96 182.68C487.782 182.273 487.69 181.834 487.69 181.39C487.713 180.966 487.787 180.546 487.91 180.14L488.2 178.97L488.39 179.29C487.849 179.151 487.372 178.83 487.04 178.38C486.883 178.142 486.784 177.871 486.749 177.588C486.714 177.306 486.745 177.019 486.84 176.75C487.056 176.243 487.456 175.835 487.96 175.61C488.42 175.389 488.913 175.243 489.42 175.18L489.22 175.32L490.44 172.89L491.05 171.7C491.235 171.269 491.504 170.878 491.84 170.55C492.18 170.224 492.585 169.975 493.03 169.82L494.24 169.36L496.61 168.46L496.54 168.87L487.85 161.68C487.7 161.408 487.639 161.095 487.677 160.786C487.715 160.477 487.849 160.188 488.06 159.96C488.261 159.743 488.524 159.592 488.814 159.528C489.103 159.463 489.405 159.489 489.68 159.6V159.6L503.22 166.75L506.89 168.75L507.84 169.28C507.954 169.334 508.062 169.401 508.16 169.48C508.044 169.437 507.93 169.387 507.82 169.33L506.82 168.86L503.08 166.98L489.47 159.98C489.269 159.901 489.049 159.884 488.838 159.932C488.627 159.98 488.436 160.091 488.29 160.25C488.14 160.418 488.046 160.629 488.021 160.853C487.996 161.077 488.041 161.303 488.15 161.5V161.44L496.88 168.58L497.19 168.84L496.81 168.98L494.45 169.89L493.24 170.35C492.868 170.492 492.528 170.706 492.24 170.98C491.949 171.267 491.714 171.606 491.55 171.98L490.95 173.17L489.73 175.6L489.67 175.72H489.53C488.69 175.84 487.67 176.2 487.38 176.96C487.315 177.153 487.295 177.358 487.319 177.561C487.343 177.763 487.412 177.957 487.52 178.13C487.785 178.471 488.154 178.716 488.57 178.83L488.82 178.9L488.76 179.14L488.47 180.31C488.354 180.673 488.286 181.049 488.27 181.43C488.268 181.801 488.343 182.169 488.49 182.51L488.62 182.75L488.69 182.87C488.8 182.95 488.55 182.75 488.58 182.77H488.64C488.722 182.796 488.805 182.816 488.89 182.83H489.14C489.869 182.625 490.487 182.139 490.86 181.48C491.322 180.813 491.704 180.095 492 179.34L492.08 179.15H492.27H492.55L494.55 179.36H494.7L494.76 179.48C495.6 181.19 496.44 182.87 497.22 184.48L497.05 184.35C497.245 184.409 497.45 184.428 497.653 184.406C497.856 184.384 498.052 184.32 498.23 184.22C498.525 183.933 498.697 183.542 498.71 183.13C498.76 182.241 498.651 181.351 498.39 180.5L498.28 180.07L498.7 180.18C499.26 180.32 499.78 180.44 500.36 180.6C500.907 180.799 501.422 181.075 501.89 181.42C502.764 182.057 503.691 182.619 504.66 183.1C506.588 183.824 508.607 184.275 510.66 184.44H510.72H510.77L513.89 186.75L513.57 186.8C517.18 181.89 520.41 177.51 523.07 173.88L523.16 174.15L512.16 170.61L509.22 169.61L508.46 169.35L508.12 169.32Z" fill="#263238"/>
<path d="M498.91 180.5C498.91 180.55 497.82 180.36 495.97 180.09C494.12 179.82 491.5 179.48 488.42 179.22H488.47C488.186 179.221 487.905 179.151 487.654 179.018C487.403 178.884 487.19 178.69 487.032 178.453C486.875 178.216 486.778 177.944 486.752 177.661C486.725 177.377 486.769 177.092 486.88 176.83C487.125 176.324 487.495 175.888 487.955 175.564C488.415 175.241 488.951 175.039 489.51 174.98C490.69 174.79 491.77 174.73 492.83 174.54C493.89 174.35 494.91 174.16 495.83 173.91C496.75 173.66 497.69 173.4 498.52 173.12C498.904 173.016 499.262 172.832 499.57 172.58C499.694 172.481 499.781 172.344 499.819 172.191C499.857 172.037 499.843 171.875 499.78 171.73C499.62 171.436 499.406 171.175 499.15 170.96L498.48 170.28C498.06 169.85 497.7 169.5 497.39 169.22C496.77 168.67 496.39 168.44 496.39 168.4C496.808 168.551 497.195 168.778 497.53 169.07C497.934 169.382 498.322 169.716 498.69 170.07L499.39 170.72C499.694 170.952 499.946 171.245 500.13 171.58C500.228 171.797 500.253 172.039 500.203 172.271C500.152 172.503 500.029 172.713 499.85 172.87C499.511 173.175 499.108 173.4 498.67 173.53C497.83 173.83 496.93 174.12 495.96 174.38C494.99 174.64 493.96 174.86 492.9 175.04C491.84 175.22 490.68 175.31 489.59 175.49C489.117 175.531 488.661 175.692 488.268 175.958C487.874 176.224 487.555 176.586 487.34 177.01C487.259 177.192 487.223 177.39 487.235 177.589C487.248 177.788 487.308 177.98 487.411 178.15C487.515 178.321 487.658 178.463 487.828 178.566C487.998 178.668 488.191 178.728 488.39 178.74V178.74C491.49 179.04 494.11 179.44 495.95 179.8C496.87 179.98 497.6 180.14 498.09 180.27C498.374 180.301 498.651 180.379 498.91 180.5V180.5Z" fill="#263238"/>
<path d="M498.55 173.49C497.727 173.851 496.819 173.972 495.93 173.84C495.465 173.822 495.003 173.762 494.55 173.66L494.79 173.52C494.49 174.2 494.25 174.63 494.16 174.6C494.07 174.57 494.16 174.08 494.37 173.37L494.42 173.21H494.61L495.96 173.3C496.827 173.274 497.695 173.338 498.55 173.49V173.49Z" fill="#263238"/>
<path d="M588.11 157.07L562.55 176.68L580.47 200.28L602.33 187.87L588.11 157.07Z" fill="#FF9A0D"/>
<path d="M588.11 157.07C591.81 154.8 604.6 151.99 604.6 151.99L629.34 149.3L650.8 159.15L642 196.08L649.72 265.71L576.07 269.71L588.11 157.07Z" fill="#FF9A0D"/>
<path d="M630.16 187.96H617.47V191.38H630.16V187.96Z" fill="#FAFAFA"/>
<path d="M630.179 191.41H617.439V187.94H630.179V191.41ZM617.489 191.41H630.129V188H617.489V191.41Z" fill="#263238"/>
<path d="M585 178.44C584.7 176.566 584.576 174.667 584.63 172.77C584.517 170.876 584.57 168.975 584.79 167.09C585.09 168.964 585.214 170.863 585.16 172.76C585.275 174.654 585.221 176.555 585 178.44V178.44Z" fill="#263238"/>
<path d="M631.43 115.41L628.719 153.76C628.495 156.772 627.144 159.589 624.934 161.648C622.725 163.708 619.82 164.858 616.8 164.87V164.87C615.165 164.864 613.55 164.523 612.052 163.87C610.553 163.217 609.205 162.265 608.088 161.072C606.97 159.88 606.109 158.471 605.556 156.933C605.002 155.396 604.769 153.761 604.87 152.13C605.11 148.48 605.32 145.5 605.32 145.5C605.32 145.5 596.04 144.05 595.93 134.77C595.86 129.41 596.79 117.24 597.58 107.93C597.835 104.89 599.225 102.057 601.471 99.9939C603.718 97.9304 606.659 96.7868 609.71 96.79H615.32C617.611 96.9246 619.852 97.5168 621.91 98.5318C623.969 99.5468 625.803 100.964 627.305 102.7C628.806 104.435 629.945 106.454 630.654 108.637C631.362 110.82 631.626 113.123 631.43 115.41Z" fill="#FFBE9D"/>
<path d="M605.31 145.36C609.596 145.442 613.808 144.244 617.41 141.92C617.41 141.92 614.55 148.6 605.29 147.77L605.31 145.36Z" fill="#EB996E"/>
<path d="M599.47 119.65C599.464 119.995 599.594 120.329 599.832 120.579C600.069 120.829 600.395 120.977 600.74 120.99C600.909 121.005 601.079 120.986 601.24 120.934C601.401 120.882 601.55 120.797 601.678 120.686C601.806 120.575 601.91 120.439 601.984 120.287C602.058 120.135 602.101 119.969 602.11 119.8C602.113 119.454 601.981 119.121 601.742 118.87C601.503 118.62 601.176 118.473 600.83 118.46C600.662 118.446 600.493 118.467 600.333 118.52C600.173 118.572 600.025 118.657 599.898 118.768C599.772 118.879 599.668 119.014 599.595 119.165C599.521 119.317 599.479 119.482 599.47 119.65V119.65Z" fill="#263238"/>
<path d="M599.18 117.23C599.34 117.41 600.35 116.66 601.77 116.67C603.19 116.68 604.24 117.38 604.4 117.21C604.56 117.04 604.31 116.82 603.85 116.49C603.233 116.063 602.5 115.836 601.75 115.84C601.005 115.834 600.279 116.069 599.68 116.51C599.25 116.84 599.1 117.16 599.18 117.23Z" fill="#263238"/>
<path d="M613.18 119.66C613.177 120.005 613.309 120.337 613.549 120.586C613.788 120.835 614.115 120.98 614.46 120.99C614.628 121.004 614.797 120.983 614.957 120.931C615.117 120.878 615.264 120.793 615.391 120.682C615.518 120.571 615.621 120.436 615.695 120.285C615.768 120.133 615.811 119.968 615.82 119.8C615.823 119.456 615.692 119.124 615.455 118.874C615.218 118.624 614.894 118.476 614.55 118.46C614.38 118.446 614.21 118.467 614.049 118.52C613.888 118.574 613.739 118.659 613.611 118.771C613.484 118.882 613.38 119.019 613.305 119.172C613.231 119.324 613.189 119.49 613.18 119.66V119.66Z" fill="#263238"/>
<path d="M613.2 117.5C613.36 117.67 614.37 116.93 615.79 116.93C617.21 116.93 618.26 117.65 618.42 117.48C618.58 117.31 618.33 117.09 617.87 116.75C617.254 116.323 616.52 116.099 615.77 116.11C615.028 116.106 614.303 116.337 613.7 116.77C613.27 117.11 613.12 117.42 613.2 117.5Z" fill="#263238"/>
<path d="M608.149 127.72C607.399 127.488 606.623 127.351 605.839 127.31C605.469 127.31 605.129 127.2 605.069 126.95C605.033 126.574 605.117 126.195 605.309 125.87C605.649 124.99 606.009 124.06 606.389 123.1C607.879 119.15 608.969 115.9 608.809 115.84C608.649 115.78 607.299 118.93 605.809 122.84C605.449 123.84 605.099 124.75 604.809 125.63C604.578 126.069 604.51 126.576 604.619 127.06C604.673 127.189 604.755 127.304 604.858 127.398C604.962 127.491 605.086 127.56 605.219 127.6C605.422 127.653 605.63 127.68 605.839 127.68C606.604 127.798 607.381 127.812 608.149 127.72Z" fill="#263238"/>
<path d="M612.83 112.55C612.97 112.94 614.39 112.76 616.07 112.96C617.75 113.16 619.07 113.62 619.32 113.27C619.42 113.1 619.18 112.74 618.63 112.36C617.902 111.9 617.078 111.612 616.222 111.519C615.366 111.425 614.5 111.528 613.69 111.82C613.08 112.06 612.77 112.37 612.83 112.55Z" fill="#263238"/>
<path d="M599.19 114.43C599.44 114.76 600.43 114.43 601.61 114.43C602.79 114.43 603.79 114.64 604.02 114.3C604.12 114.14 603.96 113.82 603.53 113.51C602.943 113.143 602.26 112.958 601.567 112.98C600.875 113.001 600.204 113.227 599.64 113.63C599.22 113.94 599.08 114.28 599.19 114.43Z" fill="#263238"/>
<path d="M628.299 122.38C628.459 122.31 634.679 120.49 634.479 126.84C634.279 133.19 627.939 131.67 627.939 131.49C627.939 131.31 628.299 122.38 628.299 122.38Z" fill="#FFBE9D"/>
<path d="M630 129.15C630 129.15 630.11 129.23 630.3 129.32C630.43 129.375 630.569 129.403 630.71 129.403C630.851 129.403 630.99 129.375 631.12 129.32C631.539 129.075 631.885 128.722 632.122 128.298C632.359 127.875 632.479 127.396 632.47 126.91C632.501 126.367 632.412 125.825 632.21 125.32C632.156 125.119 632.054 124.934 631.913 124.781C631.772 124.627 631.596 124.51 631.4 124.44C631.275 124.402 631.14 124.409 631.019 124.461C630.899 124.512 630.8 124.604 630.74 124.72C630.65 124.9 630.69 125.03 630.65 125.04C630.61 125.05 630.52 124.93 630.58 124.66C630.62 124.507 630.712 124.373 630.84 124.28C631.019 124.151 631.242 124.098 631.46 124.13C631.716 124.189 631.952 124.312 632.148 124.486C632.344 124.661 632.492 124.883 632.58 125.13C632.836 125.69 632.95 126.305 632.91 126.92C632.921 127.484 632.766 128.04 632.464 128.516C632.162 128.993 631.725 129.37 631.21 129.6C631.039 129.645 630.86 129.651 630.687 129.616C630.513 129.581 630.35 129.507 630.21 129.4C630 129.3 629.93 129.16 630 129.15Z" fill="#EB996E"/>
<path d="M631.83 122.16C631.227 122.12 630.625 122.246 630.087 122.522C629.55 122.799 629.098 123.216 628.78 123.73C628.36 124.64 628.27 125.66 627.86 126.57C627.697 127.042 627.381 127.445 626.963 127.717C626.544 127.989 626.047 128.113 625.55 128.07C625.224 127.962 624.931 127.772 624.7 127.518C624.469 127.264 624.307 126.955 624.23 126.62C624.095 125.943 624.095 125.247 624.23 124.57C624.6 121.57 625.23 118.67 625.35 115.69C625.591 112.691 624.936 109.687 623.47 107.06C622.724 105.759 621.641 104.684 620.335 103.949C619.029 103.213 617.549 102.844 616.05 102.88C614.05 103.04 612.27 104.07 610.31 104.35C609.144 104.501 607.959 104.386 606.843 104.014C605.728 103.641 604.712 103.021 603.87 102.2C603.487 101.888 603.086 101.597 602.67 101.33C602.689 100.613 602.918 99.9174 603.33 99.33C607.22 95.73 614.22 94.73 619.33 96.02C621.94 96.663 624.379 97.8663 626.477 99.5466C628.575 101.227 630.282 103.344 631.48 105.75C633.69 110.56 633.04 117.26 631.82 122.12" fill="#263238"/>
<path d="M597.47 106.49C597.47 106.49 621.82 98.66 632.36 119.73C632.36 119.73 633.93 114.45 633.93 111.63C633.93 109.74 632.8 98.5 621.24 94.96C621.24 95 603.81 88.31 597.47 106.49Z" fill="#FF9A0D"/>
<path d="M618.4 107C617.967 107.698 617.379 108.285 616.681 108.717C615.983 109.148 615.194 109.412 614.377 109.486C613.559 109.561 612.736 109.445 611.971 109.147C611.206 108.849 610.521 108.378 609.97 107.77C609.725 108.374 609.299 108.887 608.749 109.236C608.2 109.586 607.555 109.756 606.904 109.722C606.254 109.688 605.63 109.452 605.12 109.046C604.61 108.641 604.239 108.086 604.06 107.46C603.399 108.196 602.592 108.785 601.69 109.19C601.235 109.381 600.733 109.429 600.25 109.328C599.768 109.226 599.328 108.979 598.99 108.62C598.715 108.198 598.584 107.699 598.615 107.197C598.645 106.695 598.836 106.216 599.16 105.83C599.818 105.068 600.667 104.495 601.62 104.17C604.506 102.9 607.676 102.417 610.81 102.77C613.959 103.147 616.845 104.718 618.87 107.16" fill="#263238"/>
<g opacity="0.4">
<path opacity="0.4" d="M597.47 106.49C599.501 104.36 602.279 103.102 605.22 102.98C612.4 102.66 625.84 106.7 632.36 119.73C632.36 119.73 633.93 114.45 633.93 111.63C633.93 109.74 632.8 98.5 621.24 94.96C621.24 95 603.81 88.31 597.47 106.49Z" fill="black"/>
</g>
<path d="M631.34 117.26C627.646 111.759 622.805 107.123 617.15 103.67C611.56 100.17 602.3 96.67 595.92 95.02C594.032 94.4015 592.034 94.1935 590.06 94.41C589.071 94.5394 588.138 94.9448 587.369 95.5797C586.599 96.2146 586.024 97.0534 585.71 98C585.11 100.4 589.37 104.11 591.38 105.57C593.343 106.88 595.376 108.081 597.47 109.17C597.47 109.17 597.42 104.71 604.56 103.79C614.27 102.51 631.34 117.26 631.34 117.26Z" fill="#FF9A0D"/>
<path d="M611.37 99.06C609.181 97.8909 606.817 97.0838 604.37 96.67C604.958 96.2116 605.6 95.8255 606.28 95.52C608.194 95.8393 610.044 96.4639 611.76 97.37L611.37 99.06Z" fill="#E0E0E0"/>
<path d="M630 122.6C629.585 122.965 629.144 123.3 628.68 123.6C627.68 124.34 626.62 125.1 625.49 125.94C624.025 127.114 622.463 128.161 620.82 129.07C622.153 127.745 623.613 126.556 625.18 125.52C627.62 123.66 629.84 122.39 630 122.6Z" fill="#EBEBEB"/>
<path d="M630.6 131.86C628.531 135.052 625.568 137.563 622.08 139.08C622.01 138.94 624.19 137.7 626.54 135.7C628.89 133.7 630.48 131.76 630.6 131.86Z" fill="#EBEBEB"/>
<path d="M595.7 128.79C596.737 129.1 597.797 129.328 598.87 129.47C603.47 129.22 605.08 127.67 612.59 129.27C613.804 129.526 615.053 129.564 616.28 129.38C617.767 129.166 619.268 129.059 620.77 129.06L622.22 139.06C622.22 139.06 613.31 146.85 605.29 145.98C594.91 144.88 593.69 132.78 595.7 128.79Z" fill="#FAFAFA"/>
<path d="M595.7 128.79C595.7 128.79 595.61 129.05 595.43 129.52C595.211 130.23 595.067 130.96 595 131.7C594.779 134.447 595.278 137.205 596.45 139.7C597.257 141.406 598.477 142.884 600 144C601.791 145.225 603.892 145.918 606.06 146C608.466 146.043 610.853 145.569 613.06 144.61C615.439 143.628 617.697 142.377 619.79 140.88C620.61 140.29 621.41 139.7 622.15 139.06V139.16C621.64 135.64 621.15 132.27 620.71 129.16L620.8 129.24C619.026 129.258 617.256 129.392 615.5 129.64C614.661 129.698 613.818 129.654 612.99 129.51C612.19 129.36 611.43 129.18 610.67 129.07C609.257 128.824 607.824 128.703 606.39 128.71C605.161 128.747 603.938 128.881 602.73 129.11C601.63 129.3 600.64 129.46 599.73 129.53C599.324 129.569 598.916 129.569 598.51 129.53C598.14 129.53 597.81 129.4 597.51 129.33C596.32 129.05 595.7 128.84 595.7 128.84C597.971 129.567 600.406 129.609 602.7 128.96C605.336 128.417 608.053 128.39 610.7 128.88C611.46 128.98 612.24 129.16 613.03 129.31C613.842 129.446 614.668 129.486 615.49 129.43C617.252 129.173 619.029 129.036 620.81 129.02H620.9V129.1C621.36 132.24 621.84 135.61 622.35 139.1C621.59 139.74 620.79 140.34 619.97 140.93C617.859 142.432 615.584 143.69 613.19 144.68C610.963 145.644 608.556 146.118 606.13 146.07C604.067 146.026 602.057 145.403 600.331 144.271C598.605 143.139 597.233 141.545 596.37 139.67C595.206 137.156 594.727 134.379 594.98 131.62C595.056 130.875 595.214 130.141 595.45 129.43C595.59 129 595.7 128.79 595.7 128.79Z" fill="#263238"/>
<path d="M596.54 134.64C600.021 136.334 603.854 137.18 607.724 137.108C611.595 137.037 615.394 136.051 618.81 134.23C617.529 135.956 615.918 137.411 614.07 138.51C611.88 139.63 609.32 139.69 606.85 139.68C604.888 139.817 602.921 139.502 601.1 138.76C599.365 137.724 597.891 136.304 596.79 134.61" fill="#E0E0E0"/>
<path d="M617.75 132.11C616.822 132.469 615.856 132.72 614.87 132.86C612.519 133.321 610.135 133.595 607.74 133.68C605.346 133.76 602.949 133.656 600.57 133.37C599.58 133.294 598.601 133.11 597.65 132.82C598.653 132.815 599.655 132.875 600.65 133C605.387 133.38 610.152 133.213 614.85 132.5C615.808 132.308 616.776 132.178 617.75 132.11Z" fill="#E0E0E0"/>
<path d="M619.469 136.28C618.929 137.062 618.251 137.739 617.469 138.28C615.689 139.703 613.639 140.751 611.442 141.359C609.246 141.968 606.948 142.124 604.69 141.82C603.753 141.741 602.837 141.505 601.979 141.12C601.979 141.04 603.04 141.31 604.74 141.45C609.188 141.853 613.631 140.623 617.24 137.99C618.67 137 619.409 136.22 619.469 136.28Z" fill="#E0E0E0"/>
<path d="M619.63 134C619.391 134.213 619.121 134.389 618.83 134.52C618.074 134.941 617.289 135.305 616.48 135.61C615.278 136.073 614.041 136.438 612.78 136.7C611.239 137.015 609.672 137.189 608.1 137.22C606.522 137.236 604.946 137.112 603.39 136.85C602.124 136.623 600.879 136.289 599.67 135.85C598.849 135.578 598.05 135.244 597.28 134.85C596.986 134.731 596.712 134.565 596.47 134.36C596.47 134.28 597.72 134.88 599.78 135.51C600.988 135.881 602.221 136.169 603.47 136.37C606.529 136.847 609.648 136.796 612.69 136.22C613.932 135.972 615.154 135.638 616.35 135.22C618.39 134.53 619.58 133.89 619.63 134Z" fill="#263238"/>
<path d="M612.17 134C608.242 134.752 604.193 134.584 600.34 133.51C600.34 133.36 602.99 133.8 606.25 133.92C609.51 134.04 612.16 133.83 612.17 134Z" fill="#263238"/>
<path d="M501.75 258.66V177.57H614.54V258.66L554.76 259.16L501.75 258.66Z" fill="#FF9A0D"/>
<g opacity="0.4">
<path opacity="0.4" d="M614.55 177.57H501.75V258.66H614.55V177.57Z" fill="black"/>
</g>
<path d="M554.76 259.16L501.75 258.66V177.57H554.59L554.76 259.16Z" fill="#FF9A0D"/>
<path d="M530.33 177.57H523.3V191.64H530.33V177.57Z" fill="#263238"/>
<path d="M519.51 240.76H505.51V254.76H519.51V240.76Z" fill="#FAFAFA"/>
<path d="M519.539 254.79H505.479V240.79H519.539V254.79ZM505.539 254.79H519.489V240.79H505.539V254.79Z" fill="#263238"/>
<path d="M640.94 196.19L643.27 215.06L608.27 235.83L613.71 247.83L653.49 231.76C658.31 229.31 662.43 225.69 662.09 220.27L660.18 193.86L640.94 196.19Z" fill="#FFBE9D"/>
<path d="M650.8 159.15C654.201 162.069 656.461 166.096 657.18 170.52C658.52 177.83 663.07 198.27 663.07 198.27L639.07 201.11V195.49C639.07 195.41 636.83 184.95 636.83 184.95L641.3 170.52L650.8 159.15Z" fill="#FF9A0D"/>
<path d="M662.119 198.36C661.581 198.5 661.033 198.597 660.479 198.65L655.989 199.27C652.199 199.77 646.989 200.43 641.149 201.12L639.149 201.36H638.879V201.08C638.479 195.73 638.039 190.98 637.719 187.56C637.559 185.92 637.429 184.56 637.329 183.56C637.259 183.07 637.229 182.575 637.239 182.08C637.378 182.557 637.472 183.046 637.519 183.54C637.669 184.48 637.849 185.85 638.069 187.54C638.479 190.95 638.989 195.71 639.399 201.07L639.109 200.83L641.109 200.59C646.909 199.89 652.109 199.29 655.969 198.89L660.479 198.43C661.023 198.361 661.572 198.338 662.119 198.36Z" fill="#263238"/>
<path d="M648.83 160.47C648.83 160.55 647.96 160.92 646.63 161.74C643.147 163.885 640.441 167.087 638.909 170.88C638.319 172.33 638.11 173.29 638.02 173.27C638.061 172.406 638.243 171.555 638.56 170.75C639.951 166.774 642.76 163.452 646.45 161.42C647.184 160.973 647.989 160.652 648.83 160.47V160.47Z" fill="#263238"/>
<path d="M607.729 234.78L602.589 237.13L600.389 236.28L589.169 235.58L582.169 237.13L581.969 237.53C581.969 241.34 589.179 239.84 591.389 240.44C593.599 241.04 591.589 245.75 591.589 245.75C591.589 245.75 581.669 258.68 579.939 261.75C579.079 263.3 579.359 264.15 579.859 264.62C580.117 264.842 580.444 264.969 580.784 264.98C581.124 264.991 581.458 264.885 581.729 264.68L585.389 262.09C585.389 262.09 595.469 262.68 596.159 262.34C597.117 261.618 597.946 260.739 598.609 259.74C603.39 255.155 608.744 251.208 614.539 248L607.729 234.78Z" fill="#FAFAFA"/>
<path d="M607.729 234.78C607.729 234.78 607.729 234.84 607.859 234.98C607.989 235.12 608.069 235.37 608.219 235.64L609.59 238.22C610.8 240.53 612.54 243.83 614.7 247.93L614.77 248.08L614.62 248.16C608.842 251.407 603.508 255.387 598.75 260C598.112 260.979 597.318 261.848 596.4 262.57C596.249 262.667 596.078 262.729 595.9 262.75H595.45H594.549H592.76C590.35 262.69 587.87 262.58 585.33 262.44L585.489 262.39L583.14 264L581.94 264.86C581.713 265.036 581.449 265.158 581.168 265.215C580.887 265.272 580.597 265.264 580.32 265.19C580.034 265.11 579.776 264.954 579.572 264.739C579.368 264.524 579.226 264.259 579.159 263.97C579.057 263.419 579.126 262.85 579.359 262.34C579.821 261.41 580.371 260.526 581 259.7C584.48 254.7 588.069 250 591.419 245.6V245.65C591.696 244.973 591.914 244.274 592.07 243.56C592.249 242.891 592.277 242.191 592.15 241.51C592.083 241.214 591.904 240.955 591.65 240.79C591.357 240.655 591.041 240.58 590.719 240.57C590.029 240.5 589.32 240.51 588.63 240.5C587.254 240.543 585.877 240.449 584.52 240.22C583.836 240.095 583.192 239.811 582.64 239.39C582.379 239.155 582.171 238.868 582.028 238.548C581.885 238.227 581.811 237.881 581.81 237.53V237.53V237.48L582.01 237.08V236.99H582.109L589.109 235.47H589.169L600.38 236.23L602.58 237.1H602.5L606.37 235.4L607.37 234.97L607.69 234.85L607.349 235.03L606.349 235.51L602.58 237.3H602.53L600.32 236.47L589.099 235.83H589.15L582.15 237.41L582.289 237.3L582.09 237.7V237.6C582.093 237.887 582.157 238.171 582.275 238.432C582.394 238.694 582.566 238.928 582.78 239.12C583.276 239.495 583.856 239.742 584.469 239.84C585.791 240.059 587.131 240.147 588.469 240.1C589.169 240.1 589.869 240.1 590.599 240.16C590.994 240.176 591.382 240.271 591.739 240.44C592.097 240.67 592.355 241.028 592.46 241.44C592.615 242.201 592.595 242.988 592.4 243.74C592.235 244.485 592.008 245.214 591.719 245.92V245.92C588.379 250.33 584.8 255.01 581.33 260.01C580.742 260.817 580.227 261.673 579.789 262.57C579.6 262.982 579.537 263.442 579.609 263.89C579.657 264.089 579.756 264.273 579.896 264.422C580.036 264.571 580.213 264.681 580.409 264.74C580.613 264.791 580.825 264.795 581.03 264.749C581.235 264.704 581.427 264.612 581.59 264.48L582.799 263.62L585.18 261.94L585.25 261.89H585.34C587.87 262.03 590.34 262.15 592.75 262.22H594.53H595.4H595.82C595.93 262.207 596.036 262.17 596.13 262.11C596.989 261.421 597.735 260.601 598.34 259.68V259.68C603.139 255.084 608.518 251.134 614.34 247.93L614.27 248.16L609.38 238.45C608.82 237.32 608.38 236.45 608.06 235.8L607.719 235.1L607.729 234.78Z" fill="#263238"/>
<path d="M594.87 253.41C593.419 254.996 591.873 256.492 590.24 257.89C588.93 259.1 587.73 260.18 586.86 260.95C586.412 261.401 585.912 261.797 585.37 262.13C586.723 260.45 588.234 258.903 589.88 257.51C591.4 255.978 593.072 254.604 594.87 253.41V253.41Z" fill="#263238"/>
<path d="M597.92 255.91C597.139 257.228 596.157 258.416 595.01 259.43C593.998 260.579 592.838 261.587 591.56 262.43C592.476 261.214 593.507 260.089 594.64 259.07C595.654 257.938 596.75 256.882 597.92 255.91V255.91Z" fill="#263238"/>
<path d="M126.36 447.85C127.2 444.6 125.07 441.33 122.68 438.97C120.29 436.61 117.43 434.5 116.19 431.38C114.19 426.32 116.88 419.78 113.44 415.56C111.44 413.08 107.79 412.25 106 409.56C105.173 408.097 104.623 406.493 104.38 404.83C102.463 396.424 98.318 388.69 92.3799 382.44C91.9799 389.924 93.5998 397.377 97.0699 404.02C98.4699 406.67 100.18 409.25 100.64 412.21C101.39 417.01 98.6999 421.96 99.8799 426.68C101.23 432.08 107.3 435.68 107.58 441.24C107.83 445.94 103.73 450.06 104.04 454.75C104.286 456.746 105.002 458.655 106.13 460.32C109.76 466.32 115.13 470.51 123.13 470.38L133.03 470.72L126.36 447.85Z" fill="#FF9A0D"/>
<g opacity="0.3">
<path opacity="0.3" d="M126.36 447.85C127.2 444.6 125.07 441.33 122.68 438.97C120.29 436.61 117.43 434.5 116.19 431.38C114.19 426.32 116.88 419.78 113.44 415.56C111.44 413.08 107.79 412.25 106 409.56C105.173 408.097 104.623 406.493 104.38 404.83C102.463 396.424 98.318 388.69 92.3799 382.44C91.9799 389.924 93.5998 397.377 97.0699 404.02C98.4699 406.67 100.18 409.25 100.64 412.21C101.39 417.01 98.6999 421.96 99.8799 426.68C101.23 432.08 107.3 435.68 107.58 441.24C107.83 445.94 103.73 450.06 104.04 454.75C104.286 456.746 105.002 458.655 106.13 460.32C109.76 466.32 115.13 470.51 123.13 470.38L133.03 470.72L126.36 447.85Z" fill="black"/>
</g>
<path d="M135.12 471C136.023 471.156 136.947 471.156 137.85 471C138.947 470.836 140.026 470.564 141.07 470.19C142.515 469.691 143.867 468.954 145.07 468.01C145.787 467.431 146.348 466.682 146.7 465.83C147.006 464.859 147.164 463.848 147.17 462.83C147.184 461.76 147.261 460.691 147.4 459.63C147.596 458.499 148.007 457.416 148.61 456.44C149.78 454.39 151.72 452.44 152.34 449.67C152.96 446.9 152.53 443.97 152.07 440.99C151.61 438.01 151.17 434.78 152.3 431.69C153.43 428.6 155.54 425.79 156.62 422.3C157.7 418.81 157.2 414.99 157.43 411.25C157.499 409.35 157.937 407.482 158.72 405.75C159.52 404 160.63 402.34 161.5 400.5C163.26 396.77 163.57 392.5 164.05 388.4C164.277 386.307 164.513 384.197 164.76 382.07C164.9 379.927 165.269 377.805 165.86 375.74C166.525 373.651 167.316 371.603 168.23 369.61C168.701 368.577 169.086 367.507 169.38 366.41C169.545 365.28 169.652 364.141 169.7 363C169.805 360.713 169.714 358.421 169.43 356.15C169.16 353.86 168.75 351.6 168.51 349.31C168.51 349.17 168.51 349.04 168.51 348.91L168.46 348.46L168.05 348.66C165.95 349.729 164.126 351.269 162.72 353.16C161.353 354.996 160.252 357.016 159.45 359.16C157.8 363.42 157.2 367.88 156.37 372.16C155.54 376.44 154.48 380.6 152.3 384.16C151.21 385.92 149.9 387.53 148.75 389.25C147.522 390.924 146.681 392.851 146.29 394.89C145.71 399.08 148.02 402.76 147.54 406.47C147.304 408.291 146.688 410.043 145.73 411.61C144.83 413.19 143.73 414.61 142.73 416.13C141.707 417.57 140.817 419.099 140.07 420.7C139.369 422.28 138.959 423.974 138.86 425.7C138.61 429.04 139.09 432.21 138.86 435.2C138.587 438.047 137.758 440.813 136.42 443.34C135.22 445.77 133.89 447.98 132.77 450.11C132.21 451.18 131.7 452.22 131.27 453.27C130.876 454.282 130.585 455.33 130.4 456.4C130.108 458.27 130.085 460.173 130.33 462.05C130.595 464.667 131.574 467.161 133.16 469.26C133.407 469.57 133.678 469.861 133.97 470.13C134.167 470.335 134.385 470.52 134.62 470.68C134.98 470.95 135.18 471.07 135.18 471.07C134.476 470.508 133.833 469.875 133.26 469.18C131.733 467.081 130.806 464.606 130.58 462.02C130.358 460.167 130.398 458.292 130.7 456.45C130.889 455.403 131.184 454.378 131.58 453.39C132.028 452.327 132.532 451.289 133.09 450.28C134.21 448.16 135.56 445.97 136.78 443.52C138.161 440.954 139.02 438.14 139.31 435.24C139.57 432.18 139.11 429 139.36 425.74C139.473 424.085 139.879 422.463 140.56 420.95C141.292 419.376 142.173 417.876 143.19 416.47C144.19 415 145.26 413.53 146.19 411.92C147.195 410.292 147.84 408.468 148.08 406.57C148.56 402.62 146.27 398.91 146.86 395.02C147.246 393.067 148.058 391.223 149.24 389.62C150.37 387.93 151.69 386.32 152.8 384.51C155.05 380.88 156.14 376.61 156.97 372.34C157.8 368.07 158.41 363.65 160.03 359.48C160.809 357.382 161.883 355.405 163.22 353.61C164.565 351.797 166.31 350.318 168.32 349.29L167.87 349.04C167.87 349.16 167.87 349.3 167.87 349.44C168.12 351.76 168.54 354.03 168.8 356.28C169.059 358.51 169.126 360.758 169 363C168.958 364.108 168.858 365.213 168.7 366.31C168.413 367.365 168.042 368.395 167.59 369.39C166.672 371.408 165.874 373.478 165.2 375.59C164.607 377.692 164.235 379.851 164.09 382.03C163.85 384.16 163.62 386.27 163.38 388.36C162.91 392.52 162.6 396.68 160.91 400.28C160.07 402.07 158.96 403.73 158.14 405.54C157.334 407.337 156.882 409.272 156.81 411.24C156.6 415.06 157.09 418.8 156.06 422.18C155.03 425.56 152.87 428.36 151.78 431.56C150.69 434.76 151.1 438.13 151.57 441.09C152.04 444.05 152.57 446.97 151.89 449.6C151.21 452.23 149.43 454.19 148.24 456.3C147.619 457.312 147.204 458.437 147.02 459.61C146.883 460.685 146.813 461.767 146.81 462.85C146.811 463.826 146.666 464.797 146.38 465.73C146.05 466.539 145.524 467.254 144.85 467.81C143.694 468.744 142.393 469.483 141 470C139.973 470.387 138.912 470.675 137.83 470.86C137.17 470.978 136.501 471.042 135.83 471.05L135.12 471Z" fill="#263238"/>
<path d="M166.41 354.38C166.359 354.473 166.325 354.575 166.31 354.68C166.25 354.91 166.18 355.21 166.09 355.57C165.9 356.35 165.67 357.52 165.29 359C164.91 360.48 164.01 362.12 163.29 364.17C162.57 366.22 161.68 368.55 160.93 371.17C160.18 373.79 159.51 376.74 158.81 379.88C158.21 383.236 157.143 386.491 155.64 389.55C154.83 391.16 153.91 392.79 153.19 394.55C152.474 396.375 151.993 398.284 151.76 400.23C151.267 404.266 150.556 408.271 149.63 412.23C147.63 420.35 145.75 428.07 144.03 435.11L139.34 453.77C138.03 459.05 136.97 463.34 136.23 466.36L135.41 469.8C135.33 470.16 135.27 470.45 135.22 470.69C135.209 470.793 135.209 470.897 135.22 471C135.22 471 135.22 470.91 135.33 470.71C135.44 470.51 135.48 470.19 135.59 469.83C135.81 469 136.12 467.83 136.52 466.43C137.31 463.43 138.44 459.14 139.82 453.88C141.2 448.62 142.82 442.26 144.65 435.26C146.48 428.26 148.29 420.49 150.3 412.37C151.227 408.412 151.938 404.406 152.43 400.37C152.653 398.473 153.113 396.612 153.8 394.83C154.5 393.09 155.4 391.47 156.21 389.83C157.723 386.723 158.786 383.416 159.37 380.01C160.05 376.86 160.69 373.93 161.37 371.3C162.05 368.67 162.86 366.3 163.62 364.3C164.38 362.3 165.22 360.59 165.62 359.07C166.02 357.55 166.15 356.4 166.31 355.6C166.37 355.24 166.42 354.94 166.47 354.7C166.464 354.591 166.444 354.484 166.41 354.38V354.38Z" fill="#263238"/>
<path d="M136.87 471.05C143.34 467.21 145.19 455.54 142.5 448.52C139.81 441.5 135.07 435.08 134.35 427.59C133.79 421.83 135.67 415.93 134.35 410.3C132.54 402.71 125.13 396.82 125.21 389.02C125.21 384.64 127.75 380.52 127.56 376.14C127.31 370.78 123.19 366.52 120.64 361.79C116.74 354.56 116.48 346 115.15 337.89C113.82 329.78 110.72 321.09 103.53 317.1C102.47 323.99 100.65 328.71 101.22 338.04C101.43 341.39 105.32 347.8 105.85 355.15C106.17 359.54 106.39 363.93 106.65 368.33C106.91 372.73 107.19 376.95 108.72 380.95C109.9 384.02 111.79 386.8 112.66 389.95C114.3 395.9 112.14 402.35 113.47 408.38C114.59 413.49 118.13 417.89 118.85 423.07C119.85 430.35 115.15 437.91 117.56 444.86C118.76 448.3 121.56 451.07 122.4 454.63C123.02 457.39 122.34 460.31 122.91 463.08C123.82 467.55 132.34 471.02 136.91 470.74" fill="#FF9A0D"/>
<path d="M105.29 323.94C105.277 324.07 105.277 324.2 105.29 324.33C105.29 324.62 105.37 324.99 105.43 325.46C105.58 326.46 105.75 327.91 106.09 329.8C106.43 331.69 107.43 333.8 108.21 336.42C108.99 339.04 109.85 341.96 110.58 345.28C111.31 348.6 111.94 352.28 112.58 356.22C113.22 360.16 113.94 364.48 115.9 368.59C116.81 370.66 117.82 372.73 118.59 374.93C119.334 377.197 119.791 379.549 119.95 381.93C120.317 386.983 120.951 392.014 121.85 397C123.85 407.21 125.72 416.93 127.43 425.77C129.14 434.61 130.87 442.53 132.25 449.21C133.63 455.89 134.76 461.21 135.55 465C135.94 466.83 136.25 468.27 136.47 469.29C136.58 469.75 136.67 470.12 136.73 470.4C136.75 470.528 136.787 470.652 136.84 470.77C136.856 470.644 136.856 470.516 136.84 470.39C136.79 470.1 136.72 469.73 136.64 469.26C136.45 468.26 136.18 466.79 135.83 464.95C135.09 461.17 134.03 455.77 132.73 449.12C131.43 442.47 129.81 434.48 128.05 425.66L122.52 396.89C121.618 391.927 120.98 386.92 120.61 381.89C120.444 379.466 119.97 377.074 119.2 374.77C118.41 372.51 117.38 370.44 116.47 368.39C114.53 364.33 113.84 360.1 113.14 356.16C112.44 352.22 111.83 348.53 111.06 345.21C110.29 341.89 109.45 338.91 108.59 336.34C107.73 333.77 106.76 331.63 106.37 329.78C105.98 327.93 105.79 326.45 105.6 325.47C105.51 325 105.45 324.63 105.39 324.35C105.373 324.21 105.339 324.072 105.29 323.94V323.94Z" fill="#263238"/>
<path d="M474.83 139.31H442.69V184.36H474.83V139.31Z" fill="#455A64"/>
<path d="M474.83 139.31H442.69V144.53H474.83V139.31Z" fill="#263238"/>
<path d="M474.83 179.14H442.69V184.36H474.83V179.14Z" fill="#263238"/>
<path d="M468.49 147.74H448.96V157.92H468.49V147.74Z" fill="#263238"/>
<path d="M463.35 152.83C463.3 152.83 463.3 152.42 463.11 151.74C462.825 150.774 462.231 149.928 461.42 149.33C460.77 148.844 459.997 148.549 459.188 148.477C458.38 148.405 457.567 148.559 456.841 148.922C456.115 149.285 455.504 149.843 455.077 150.533C454.649 151.223 454.422 152.018 454.42 152.83C454.423 153.718 454.696 154.584 455.203 155.313C455.711 156.042 456.428 156.599 457.26 156.91C457.946 157.165 458.684 157.246 459.408 157.144C460.133 157.043 460.821 156.763 461.41 156.33C462.213 155.731 462.802 154.889 463.09 153.93C463.28 153.24 463.28 152.83 463.33 152.83C463.38 152.83 463.33 152.93 463.33 153.13C463.336 153.416 463.306 153.702 463.24 153.98C463.017 155.026 462.433 155.961 461.59 156.62C460.96 157.119 460.214 157.448 459.421 157.578C458.628 157.707 457.816 157.632 457.06 157.36C456.126 157.026 455.317 156.412 454.746 155.601C454.174 154.79 453.867 153.822 453.867 152.83C453.867 151.838 454.174 150.87 454.746 150.059C455.317 149.248 456.126 148.634 457.06 148.3C457.816 148.032 458.628 147.96 459.42 148.089C460.212 148.219 460.958 148.546 461.59 149.04C462.435 149.701 463.02 150.64 463.24 151.69C463.307 151.968 463.337 152.254 463.33 152.54C463.38 152.73 463.37 152.83 463.35 152.83Z" fill="#455A64"/>
<path d="M451.21 161.84C451.21 161.99 451.166 162.137 451.082 162.262C450.999 162.387 450.88 162.485 450.741 162.542C450.602 162.6 450.45 162.615 450.302 162.585C450.155 162.556 450.019 162.484 449.913 162.377C449.807 162.271 449.734 162.136 449.705 161.988C449.676 161.841 449.691 161.688 449.748 161.549C449.806 161.41 449.903 161.292 450.028 161.208C450.153 161.125 450.3 161.08 450.45 161.08C450.652 161.08 450.845 161.16 450.988 161.303C451.13 161.445 451.21 161.638 451.21 161.84Z" fill="#263238"/>
<path d="M456.94 161.84C456.94 161.99 456.895 162.137 456.812 162.262C456.728 162.387 456.61 162.485 456.471 162.542C456.332 162.6 456.179 162.615 456.032 162.585C455.884 162.556 455.749 162.484 455.643 162.377C455.536 162.271 455.464 162.136 455.435 161.988C455.405 161.841 455.42 161.688 455.478 161.549C455.535 161.41 455.633 161.292 455.758 161.208C455.883 161.125 456.03 161.08 456.18 161.08C456.381 161.08 456.575 161.16 456.717 161.303C456.86 161.445 456.94 161.638 456.94 161.84Z" fill="#263238"/>
<path d="M462.67 161.84C462.67 162.039 462.591 162.23 462.451 162.37C462.31 162.511 462.119 162.59 461.92 162.59C461.769 162.592 461.621 162.549 461.494 162.466C461.368 162.383 461.269 162.265 461.21 162.125C461.151 161.986 461.136 161.833 461.165 161.684C461.194 161.536 461.266 161.4 461.373 161.293C461.48 161.186 461.616 161.113 461.765 161.084C461.913 161.055 462.067 161.071 462.206 161.13C462.345 161.189 462.464 161.288 462.546 161.414C462.629 161.541 462.672 161.689 462.67 161.84V161.84Z" fill="#263238"/>
<path d="M450.45 167.45C450.87 167.45 451.21 167.11 451.21 166.69C451.21 166.27 450.87 165.93 450.45 165.93C450.031 165.93 449.69 166.27 449.69 166.69C449.69 167.11 450.031 167.45 450.45 167.45Z" fill="#263238"/>
<path d="M456.94 166.69C456.94 166.84 456.895 166.987 456.812 167.112C456.728 167.237 456.61 167.335 456.471 167.392C456.332 167.45 456.179 167.465 456.032 167.435C455.884 167.406 455.749 167.334 455.643 167.227C455.536 167.121 455.464 166.986 455.435 166.838C455.405 166.691 455.42 166.538 455.478 166.399C455.535 166.26 455.633 166.142 455.758 166.058C455.883 165.975 456.03 165.93 456.18 165.93C456.381 165.93 456.575 166.01 456.717 166.153C456.86 166.295 456.94 166.488 456.94 166.69Z" fill="#263238"/>
<path d="M461.92 167.45C462.34 167.45 462.68 167.11 462.68 166.69C462.68 166.27 462.34 165.93 461.92 165.93C461.5 165.93 461.16 166.27 461.16 166.69C461.16 167.11 461.5 167.45 461.92 167.45Z" fill="#263238"/>
<path d="M450.45 172.31C450.87 172.31 451.21 171.97 451.21 171.55C451.21 171.13 450.87 170.79 450.45 170.79C450.031 170.79 449.69 171.13 449.69 171.55C449.69 171.97 450.031 172.31 450.45 172.31Z" fill="#263238"/>
<path d="M456.94 171.55C456.94 171.7 456.895 171.847 456.812 171.972C456.728 172.097 456.61 172.195 456.471 172.252C456.332 172.31 456.179 172.325 456.032 172.295C455.884 172.266 455.749 172.194 455.643 172.087C455.536 171.981 455.464 171.846 455.435 171.698C455.405 171.551 455.42 171.398 455.478 171.259C455.535 171.12 455.633 171.002 455.758 170.918C455.883 170.835 456.03 170.79 456.18 170.79C456.381 170.79 456.575 170.87 456.717 171.013C456.86 171.155 456.94 171.348 456.94 171.55Z" fill="#263238"/>
<path d="M461.92 172.31C462.34 172.31 462.68 171.97 462.68 171.55C462.68 171.13 462.34 170.79 461.92 170.79C461.5 170.79 461.16 171.13 461.16 171.55C461.16 171.97 461.5 172.31 461.92 172.31Z" fill="#263238"/>
<path d="M467.881 169.44C469.4 169.44 470.631 168.209 470.631 166.69C470.631 165.171 469.4 163.94 467.881 163.94C466.362 163.94 465.131 165.171 465.131 166.69C465.131 168.209 466.362 169.44 467.881 169.44Z" fill="#FF9A0D"/>
<path d="M428.97 38.02H410.37V470.76H428.97V38.02Z" fill="#263238"/>
<path d="M410.37 56.28H225.16V470.77H410.37V56.28Z" fill="#455A64"/>
<path d="M230.35 38.02H213.21V470.76H230.35V38.02Z" fill="#263238"/>
<path d="M428.97 38.02H213.21V56.28H428.97V38.02Z" fill="#263238"/>
<path d="M429 38C429 38 428.78 38.29 428.31 38.73L426.31 40.57L419.64 46.57C417.06 48.94 414.75 51.12 413.17 52.78C412.538 53.4083 411.947 54.0763 411.4 54.78C411.26 54.975 411.133 55.1787 411.02 55.39C410.97 55.54 410.94 55.63 410.92 55.63C410.9 55.63 410.92 55.54 410.92 55.36C410.993 55.1175 411.097 54.8855 411.23 54.67C411.718 53.8932 412.277 53.1634 412.9 52.49C414.922 50.2671 417.054 48.1477 419.29 46.14C421.89 43.77 424.29 41.69 426.07 40.22C426.95 39.48 427.68 38.9 428.19 38.5C428.442 38.3053 428.713 38.1377 429 38V38Z" fill="#455A64"/>
<path d="M230.35 56.66C230.25 56.75 226.35 52.66 221.59 47.52C216.83 42.38 213.11 38.12 213.21 38.02C213.31 37.92 217.21 42.02 221.97 47.16C226.73 52.3 230.46 56.56 230.35 56.66Z" fill="#455A64"/>
<path d="M241.7 244.88H241.18C237.883 244.88 235.21 247.553 235.21 250.85V294.27C235.21 297.567 237.883 300.24 241.18 300.24H241.7C244.997 300.24 247.67 297.567 247.67 294.27V250.85C247.67 247.553 244.997 244.88 241.7 244.88Z" fill="#263238"/>
<path d="M244 286.64C244.008 286.26 243.913 285.885 243.725 285.555C243.537 285.224 243.263 284.951 242.933 284.763C242.603 284.575 242.227 284.48 241.848 284.487C241.468 284.495 241.097 284.605 240.774 284.806C240.452 285.008 240.189 285.292 240.015 285.63C239.841 285.967 239.761 286.346 239.784 286.725C239.807 287.105 239.932 287.471 240.146 287.785C240.36 288.099 240.655 288.35 241 288.51V291C241 291.249 241.099 291.488 241.275 291.665C241.451 291.841 241.691 291.94 241.94 291.94V291.94C242.064 291.941 242.187 291.918 242.303 291.871C242.418 291.825 242.523 291.756 242.611 291.668C242.699 291.581 242.769 291.477 242.817 291.362C242.865 291.247 242.89 291.124 242.89 291V288.56C243.235 288.375 243.521 288.097 243.717 287.758C243.913 287.418 244.011 287.032 244 286.64V286.64Z" fill="#455A64"/>
<path d="M272.42 263.52H244.45C242.7 263.52 241.28 264.939 241.28 266.69V266.97C241.28 268.721 242.7 270.14 244.45 270.14H272.42C274.171 270.14 275.59 268.721 275.59 266.97V266.69C275.59 264.939 274.171 263.52 272.42 263.52Z" fill="#263238"/>
<path d="M253.75 270.33C253.405 270.402 253.052 270.432 252.7 270.42L249.86 270.54C248.445 270.612 247.027 270.565 245.62 270.4C244.773 270.302 243.942 270.094 243.15 269.78C242.26 269.434 241.506 268.809 241 268C240.763 267.573 240.628 267.098 240.606 266.61C240.583 266.123 240.674 265.637 240.87 265.19C241.073 264.768 241.401 264.419 241.81 264.19C242.181 263.985 242.573 263.82 242.98 263.7C244.356 263.303 245.789 263.134 247.22 263.2C248.42 263.2 249.39 263.26 250.06 263.3C250.396 263.3 250.731 263.337 251.06 263.41C249.771 263.538 248.475 263.588 247.18 263.56C245.795 263.554 244.417 263.753 243.09 264.15C242.716 264.226 242.362 264.38 242.051 264.602C241.741 264.824 241.481 265.11 241.29 265.44C241.13 265.814 241.059 266.219 241.082 266.625C241.104 267.031 241.22 267.426 241.42 267.78C241.853 268.502 242.51 269.063 243.29 269.38C244.035 269.688 244.819 269.893 245.62 269.99C247.002 270.176 248.395 270.263 249.79 270.25C251.109 270.157 252.435 270.183 253.75 270.33Z" fill="#455A64"/>
<path d="M312.66 149.09C312.66 149.09 312.66 148.97 312.66 148.75C312.66 148.53 312.66 148.21 312.66 147.8C312.66 146.95 312.66 145.72 312.66 144.12C312.66 140.9 312.66 136.21 312.6 130.26C312.6 118.37 312.53 101.48 312.48 81.39L312.71 81.62H257.71L257.97 81.36C257.97 106.36 257.97 129.69 257.97 149.06L257.75 148.84L297.59 148.95L308.74 149.01H311.69H312.69H311.69H308.78L297.68 149.07L257.68 149.18H257.46V148.97C257.46 129.6 257.46 106.31 257.46 81.27V81.01H257.73H312.73H312.97V81.24C312.97 101.39 312.88 118.34 312.85 130.24C312.85 136.16 312.85 140.84 312.79 144.05C312.79 145.63 312.79 146.84 312.79 147.68C312.79 148.08 312.79 148.39 312.79 148.61C312.769 148.775 312.726 148.937 312.66 149.09V149.09Z" fill="#263238"/>
<path d="M303.62 140.71C303.612 140.623 303.612 140.536 303.62 140.45C303.62 140.26 303.62 140.02 303.62 139.72C303.62 139.05 303.62 138.11 303.62 136.89C303.62 134.41 303.62 130.82 303.56 126.28C303.56 117.19 303.49 104.28 303.44 89.1L303.68 89.33H265.81C265.75 89.33 266.3 88.84 266.07 89.08V92.65C266.07 93.84 266.07 95.03 266.07 96.21V103.21C266.07 107.82 266.07 112.31 266.07 116.65C266.07 125.33 266.07 133.42 266.07 140.65L265.86 140.43L293.33 140.55H300.99H302.99H303.7H303.03H301.03L293.42 140.61L265.81 140.72H265.59V140.51C265.59 133.26 265.59 125.17 265.59 116.51C265.59 112.17 265.59 107.68 265.59 103.07V89.12L265.86 88.85H303.73H303.96V89.09C303.91 104.38 303.87 117.3 303.84 126.43C303.84 130.94 303.84 134.51 303.78 136.98C303.78 138.18 303.78 139.1 303.78 139.76V140.47C303.62 140.63 303.62 140.71 303.62 140.71Z" fill="#263238"/>
<path d="M312.66 292C312.66 292 312.66 291.78 312.66 291.37C312.66 290.96 312.66 290.37 312.66 289.55C312.66 287.94 312.66 285.55 312.66 282.55C312.66 276.41 312.66 267.48 312.59 256.26C312.59 233.82 312.52 202.26 312.48 165.47L312.72 165.72H257.72L257.98 165.46C257.98 214.75 257.98 259.46 257.91 292.03L257.72 291.85L297.88 291.95H308.88H311.74H312.74C312.74 291.95 312.43 291.95 311.74 291.95H308.92L298.01 292L257.73 292.1H257.55V292C257.55 259.42 257.55 214.72 257.47 165.43V165.17H312.94V165.42C312.89 202.23 312.85 233.89 312.82 256.42C312.82 267.63 312.77 276.54 312.76 282.66C312.76 285.66 312.76 288.05 312.76 289.66C312.76 290.44 312.76 291.04 312.76 291.45C312.76 291.86 312.66 292 312.66 292Z" fill="#263238"/>
<path d="M303.62 285C303.62 285 303.62 284.8 303.62 284.44C303.62 284.08 303.62 283.51 303.62 282.81C303.62 281.36 303.62 279.26 303.62 276.54C303.62 271.07 303.62 263.13 303.55 253.19C303.55 233.31 303.48 205.4 303.43 173.24L303.69 173.49H265.75L266.01 173.23C266.01 217.91 265.94 258.01 265.92 284.99L265.75 284.82L293.53 284.91H301H302.94H303.62H302.98H301.07L293.63 284.96L265.75 285.05H265.57V285C265.57 258 265.52 217.92 265.48 173.24V173H303.87V173.25C303.82 205.48 303.78 233.45 303.75 253.37C303.75 263.29 303.7 271.21 303.68 276.66C303.68 279.36 303.68 281.45 303.68 282.88C303.68 283.57 303.68 284.1 303.68 284.48C303.68 284.86 303.62 285 303.62 285Z" fill="#263238"/>
<path d="M312.66 452.28C312.66 452.28 312.66 452.06 312.66 451.65C312.66 451.24 312.66 450.65 312.66 449.83C312.66 448.22 312.66 445.83 312.66 442.83C312.66 436.69 312.66 427.76 312.59 416.54C312.59 394.1 312.52 362.49 312.48 325.75L312.72 326H257.72L257.98 325.74C257.98 375.03 257.98 419.74 257.91 452.31L257.72 452.12L297.88 452.23H308.88H311.74H312.74H311.74H308.92L298.01 452.28L257.73 452.38H257.55V452.19C257.55 419.61 257.55 374.91 257.47 325.62V325.36H312.94V325.61C312.89 362.42 312.85 394.08 312.82 416.61C312.82 427.82 312.77 436.73 312.76 442.85C312.76 445.85 312.76 448.24 312.76 449.85C312.76 450.63 312.76 451.23 312.76 451.64C312.76 452.05 312.66 452.28 312.66 452.28Z" fill="#263238"/>
<path d="M303.62 445.27C303.62 445.27 303.62 445.07 303.62 444.7C303.62 444.33 303.62 443.78 303.62 443.08C303.62 441.63 303.62 439.53 303.62 436.81C303.62 431.34 303.62 423.4 303.55 413.46C303.55 393.58 303.48 365.67 303.43 333.51L303.69 333.76H265.75L266.01 333.5C266.01 378.18 265.94 418.28 265.92 445.26L265.75 445.09L293.53 445.18H301H302.94H303.62H302.98H301.07L293.63 445.23L265.75 445.32H265.57V445.15C265.57 418.15 265.52 378.07 265.48 333.39V333.13H303.87V333.38C303.82 365.61 303.78 393.58 303.75 413.5C303.75 423.42 303.7 431.34 303.68 436.79C303.68 439.49 303.68 441.58 303.68 443.01C303.68 443.7 303.68 444.23 303.68 444.61C303.68 444.99 303.62 445.27 303.62 445.27Z" fill="#263238"/>
<path d="M266.63 140.68C265.184 142.201 263.612 143.596 261.93 144.85C260.367 146.233 258.695 147.487 256.93 148.6C258.383 147.09 259.954 145.699 261.63 144.44C263.194 143.056 264.866 141.799 266.63 140.68Z" fill="#263238"/>
<path d="M313 148.09C311.256 147.217 309.636 146.118 308.18 144.82C306.622 143.648 305.217 142.283 304 140.76C304.11 140.65 306 142.4 308.51 144.41C311.02 146.42 313.06 148 313 148.09Z" fill="#263238"/>
<path d="M311.85 83C310.579 84.2462 309.189 85.3649 307.7 86.34C306.314 87.4587 304.82 88.4369 303.24 89.26C304.512 88.0142 305.902 86.8956 307.39 85.92C308.78 84.8054 310.273 83.8276 311.85 83Z" fill="#263238"/>
<path d="M265.9 88.24C264.273 87.599 262.742 86.7376 261.35 85.68C259.867 84.759 258.52 83.6347 257.35 82.34C258.84 83.2276 260.279 84.1992 261.66 85.25C263.131 86.1617 264.547 87.1602 265.9 88.24Z" fill="#263238"/>
<path d="M265.55 173.37C262.064 171.363 259.329 168.273 257.76 164.57C257.9 164.5 259.16 166.84 261.33 169.26C263.5 171.68 265.64 173.24 265.55 173.37Z" fill="#263238"/>
<path d="M312 165.35C310.824 166.729 309.518 167.991 308.1 169.12C306.799 170.38 305.379 171.512 303.86 172.5C305.039 171.124 306.345 169.862 307.76 168.73C309.061 167.468 310.481 166.336 312 165.35V165.35Z" fill="#263238"/>
<path d="M265.53 285.54C265.61 285.67 263.79 286.99 261.72 288.83C259.65 290.67 258.1 292.32 257.99 292.22C258.895 290.778 260.038 289.5 261.37 288.44C262.593 287.257 263.998 286.278 265.53 285.54V285.54Z" fill="#263238"/>
<path d="M311.12 291.86C308.457 289.89 306.016 287.637 303.84 285.14C305.218 286.064 306.498 287.126 307.66 288.31C308.932 289.371 310.092 290.561 311.12 291.86V291.86Z" fill="#263238"/>
<path d="M266.46 335C264.803 333.65 263.258 332.169 261.84 330.57C260.303 329.087 258.885 327.485 257.6 325.78C259.257 327.13 260.802 328.611 262.22 330.21C263.766 331.684 265.184 333.287 266.46 335Z" fill="#263238"/>
<path d="M312.48 325.39C311.199 326.972 309.791 328.447 308.27 329.8C306.864 331.262 305.335 332.6 303.7 333.8C306.383 330.74 309.32 327.913 312.48 325.35V325.39Z" fill="#263238"/>
<path d="M264.63 444.62C262.612 447.371 260.317 449.908 257.78 452.19C259.799 449.439 262.094 446.902 264.63 444.62V444.62Z" fill="#263238"/>
<path d="M311.75 452.28C310.185 451.352 308.75 450.222 307.48 448.92C306.104 447.747 304.884 446.403 303.85 444.92C305.254 446.06 306.59 447.282 307.85 448.58C309.223 449.734 310.525 450.97 311.75 452.28Z" fill="#263238"/>
<path d="M385.81 149.09C385.81 149.09 385.81 148.97 385.81 148.75C385.81 148.53 385.81 148.21 385.81 147.8C385.81 146.95 385.81 145.72 385.81 144.12C385.81 140.9 385.81 136.21 385.75 130.26C385.75 118.37 385.68 101.48 385.63 81.39L385.86 81.62H330.91L331.17 81.36C331.17 106.36 331.17 129.69 331.17 149.06L330.95 148.84L370.8 148.95L381.94 149.01H384.94H385.94H384.94H382.03L370.93 149.07L330.93 149.18H330.71V148.97C330.71 129.6 330.71 106.31 330.71 81.27V81.01H330.98H385.93H386.17V81.24C386.12 101.39 386.08 118.34 386.05 130.24C386.05 136.16 386 140.84 385.99 144.05C385.99 145.63 385.99 146.84 385.99 147.68C385.99 148.08 385.99 148.39 385.99 148.61C385.954 148.778 385.893 148.94 385.81 149.09V149.09Z" fill="#263238"/>
<path d="M376.77 140.71C376.763 140.623 376.763 140.536 376.77 140.45C376.77 140.26 376.77 140.02 376.77 139.72C376.77 139.05 376.77 138.11 376.77 136.89C376.77 134.41 376.77 130.82 376.71 126.28C376.71 117.19 376.64 104.28 376.59 89.1L376.83 89.33H338.96C338.9 89.33 339.45 88.84 339.22 89.08V92.65C339.22 93.84 339.22 95.03 339.22 96.21V103.21C339.22 107.82 339.22 112.31 339.22 116.65C339.22 125.33 339.22 133.42 339.22 140.65L339.01 140.43L366.48 140.55H374.14H376.14H376.85H376.18H374.18L366.57 140.61L338.96 140.72H338.74V140.51C338.74 133.26 338.74 125.17 338.74 116.51C338.74 112.17 338.74 107.68 338.74 103.07V96.07C338.74 94.89 338.74 93.7 338.74 92.51V89.12L339.01 88.85H376.88H377V89.09C376.95 104.38 376.91 117.3 376.88 126.43C376.88 130.94 376.88 134.51 376.82 136.98C376.82 138.18 376.82 139.1 376.82 139.76V140.47C376.77 140.63 376.77 140.71 376.77 140.71Z" fill="#263238"/>
<path d="M385.81 292C385.81 292 385.81 291.78 385.81 291.37C385.81 290.96 385.81 290.37 385.81 289.55C385.81 287.94 385.81 285.55 385.81 282.55C385.81 276.41 385.81 267.48 385.74 256.26C385.74 233.82 385.67 202.26 385.63 165.47L385.87 165.72H330.87L331.13 165.46C331.13 214.75 331.08 259.46 331.06 292.03L330.87 291.85L371.03 291.95H382.03H384.89H385.89C385.89 291.95 385.58 291.95 384.94 291.95L382 292L371.09 292.05L330.81 292.15H330.63V292C330.63 259.42 330.58 214.72 330.55 165.43V165.17H386.02V165.42C385.97 202.23 385.93 233.89 385.9 256.42C385.9 267.63 385.85 276.54 385.84 282.66C385.84 285.66 385.84 288.05 385.84 289.66C385.84 290.44 385.84 291.04 385.84 291.45C385.84 291.86 385.81 292 385.81 292Z" fill="#263238"/>
<path d="M376.77 285C376.77 285 376.77 284.8 376.77 284.44C376.77 284.08 376.77 283.51 376.77 282.81C376.77 281.36 376.77 279.26 376.77 276.54C376.77 271.07 376.77 263.13 376.7 253.19C376.7 233.31 376.63 205.4 376.58 173.24L376.84 173.49H338.9L339.16 173.23C339.16 217.91 339.09 258.01 339.07 284.99L338.9 284.82L366.68 284.91H374.15H376.09H376.77H376.13H374.22L366.79 284.96L338.9 285.05H338.72V285C338.72 258 338.67 217.92 338.63 173.24V173H377V173.25C377 205.48 376.91 233.45 376.88 253.37C376.88 263.29 376.88 271.21 376.81 276.66C376.81 279.36 376.81 281.45 376.81 282.88C376.81 283.57 376.81 284.1 376.81 284.48C376.81 284.86 376.77 285 376.77 285Z" fill="#263238"/>
<path d="M385.81 452.28C385.81 452.28 385.81 452.06 385.81 451.65C385.81 451.24 385.81 450.65 385.81 449.83C385.81 448.22 385.81 445.83 385.81 442.83C385.81 436.69 385.81 427.76 385.74 416.54C385.74 394.1 385.67 362.49 385.63 325.75L385.87 326H330.87L331.13 325.74C331.13 375.03 331.08 419.74 331.06 452.31L330.87 452.12L371.03 452.23H382.03H384.89H385.89H384.94H382.12L371.21 452.28L330.93 452.38H330.75V452.19C330.75 419.61 330.7 374.91 330.67 325.62V325.36H386.14V325.61C386.09 362.42 386.05 394.08 386.02 416.61C386.02 427.82 385.97 436.73 385.96 442.85C385.96 445.85 385.96 448.24 385.96 449.85C385.96 450.63 385.96 451.23 385.96 451.64C385.96 452.05 385.81 452.28 385.81 452.28Z" fill="#263238"/>
<path d="M376.77 445.27C376.77 445.27 376.77 445.07 376.77 444.7C376.77 444.33 376.77 443.78 376.77 443.08C376.77 441.63 376.77 439.53 376.77 436.81C376.77 431.34 376.77 423.4 376.7 413.46C376.7 393.58 376.63 365.67 376.58 333.51L376.84 333.76H338.9L339.16 333.5C339.16 378.18 339.09 418.28 339.07 445.26L338.9 445.09L366.68 445.18H374.15H376.09H376.77H376.13H374.22L366.79 445.23L338.9 445.32H338.72V445.15C338.72 418.15 338.67 378.07 338.63 333.39V333.13H377V333.38C377 365.61 376.91 393.58 376.88 413.5C376.88 423.42 376.88 431.34 376.81 436.79C376.81 439.49 376.81 441.58 376.81 443.01C376.81 443.7 376.81 444.23 376.81 444.61C376.81 444.99 376.77 445.27 376.77 445.27Z" fill="#263238"/>
<path d="M339.78 140.68C338.335 142.201 336.762 143.596 335.08 144.85C333.517 146.233 331.845 147.487 330.08 148.6C331.533 147.09 333.105 145.699 334.78 144.44C336.344 143.056 338.016 141.799 339.78 140.68Z" fill="#263238"/>
<path d="M386.13 148.09C384.386 147.217 382.766 146.118 381.31 144.82C379.752 143.648 378.347 142.283 377.13 140.76C377.24 140.65 379.13 142.4 381.64 144.41C384.15 146.42 386.21 148 386.13 148.09Z" fill="#263238"/>
<path d="M385 83C383.729 84.2462 382.339 85.3649 380.85 86.34C379.463 87.4587 377.969 88.4369 376.39 89.26C377.664 88.0173 379.053 86.8989 380.54 85.92C381.929 84.8054 383.422 83.8276 385 83Z" fill="#263238"/>
<path d="M339.05 88.24C337.423 87.599 335.892 86.7376 334.5 85.68C333.017 84.759 331.671 83.6347 330.5 82.34C331.991 83.2276 333.43 84.1992 334.81 85.25C336.281 86.1617 337.697 87.1602 339.05 88.24Z" fill="#263238"/>
<path d="M338.7 173.37C335.215 171.363 332.479 168.273 330.91 164.57C331.05 164.5 332.31 166.84 334.48 169.26C336.65 171.68 338.79 173.24 338.7 173.37Z" fill="#263238"/>
<path d="M385.13 165.35C383.954 166.729 382.648 167.991 381.23 169.12C379.931 170.379 378.515 171.511 377 172.5C378.179 171.124 379.485 169.862 380.9 168.73C382.197 167.469 383.614 166.337 385.13 165.35V165.35Z" fill="#263238"/>
<path d="M338.68 285.54C338.76 285.67 336.94 286.99 334.87 288.83C332.8 290.67 331.25 292.32 331.14 292.22C332.045 290.778 333.188 289.5 334.52 288.44C335.742 287.257 337.147 286.278 338.68 285.54Z" fill="#263238"/>
<path d="M384.27 291.86C381.607 289.89 379.166 287.637 376.99 285.14C378.368 286.064 379.648 287.126 380.81 288.31C382.083 289.371 383.242 290.561 384.27 291.86Z" fill="#263238"/>
<path d="M339.61 335C337.953 333.65 336.408 332.169 334.99 330.57C333.453 329.087 332.036 327.485 330.75 325.78C332.41 327.127 333.955 328.608 335.37 330.21C336.916 331.684 338.334 333.287 339.61 335V335Z" fill="#263238"/>
<path d="M385.63 325.39C384.352 326.975 382.944 328.45 381.42 329.8C380.014 331.262 378.485 332.6 376.85 333.8C379.532 330.74 382.469 327.913 385.63 325.35V325.39Z" fill="#263238"/>
<path d="M337.78 444.62C335.761 447.371 333.466 449.908 330.93 452.19C331.865 450.748 332.948 449.408 334.16 448.19C335.246 446.884 336.459 445.688 337.78 444.62V444.62Z" fill="#263238"/>
<path d="M384.9 452.28C383.336 451.352 381.9 450.222 380.63 448.92C379.254 447.747 378.034 446.403 377 444.92C378.405 446.06 379.74 447.282 381 448.58C382.373 449.734 383.675 450.97 384.9 452.28Z" fill="#263238"/>
<path d="M493.67 382.59H371.01V470.77H493.67V382.59Z" fill="#FF9A0D"/>
<path d="M403.91 382.59C404.08 382.59 403.91 401.21 403.91 401.21H394.83V382.59H403.91Z" fill="#263238"/>
<g opacity="0.4">
<path opacity="0.4" d="M432.34 470.77H493.67V382.59H432.34V470.77Z" fill="black"/>
</g>
<path d="M391.17 453.51H374.75V465.13H391.17V453.51Z" fill="#FAFAFA"/>
<path d="M391.19 465.15H374.72V453.48H391.19V465.15ZM374.77 465.15H391.14V453.53H374.77V465.15Z" fill="#263238"/>
<path d="M402.41 453.51H394.2V465.13H402.41V453.51Z" fill="#FAFAFA"/>
<path d="M402.43 465.15H394.17V453.48H402.43V465.15ZM394.23 465.15H402.38V453.53H394.23V465.15Z" fill="#263238"/>
</svg>
