<svg width="500" height="500" viewBox="0 0 500 500" fill="none" xmlns="http://www.w3.org/2000/svg">
<path d="M393.51 443.07C393.51 443.21 318.74 443.33 226.51 443.33C134.28 443.33 59.5098 443.21 59.5098 443.07C59.5098 442.93 134.26 442.81 226.51 442.81C318.76 442.81 393.51 442.92 393.51 443.07Z" fill="#263238"/>
<path d="M142.44 309.9C136.77 310.81 134.24 317.77 134.74 323.48C135.24 329.19 137.58 334.79 136.95 340.48C136.15 347.72 130.68 353.84 130.04 361.1C129.29 369.66 135.34 377.25 137.15 385.65C138.03 389.74 137.91 394.06 139.43 397.95C140.726 401.264 143.131 404.026 146.236 405.765C149.34 407.504 152.951 408.113 156.455 407.488C159.958 406.862 163.135 405.042 165.447 402.336C167.758 399.631 169.059 396.208 169.13 392.65C169.26 386.08 165.2 379.89 165.7 373.33C166.06 368.49 168.9 363.9 168.29 359.07C167.57 353.34 162.29 349.27 160.38 343.8C158.47 338.33 160.3 332.3 159.66 326.55C158.5 316.24 152.78 309.06 142.44 309.89" fill="#FF9A0D"/>
<path d="M113.51 359.81C112.51 369.36 116.77 380.6 121.69 388.81C126.66 397.114 134.15 403.616 143.07 407.37C144.07 407.79 145.31 408.14 146.15 407.46C146.45 407.133 146.675 406.744 146.81 406.321C146.945 405.898 146.986 405.451 146.93 405.01C147.004 394.869 143.786 384.977 137.76 376.82C131.734 368.663 123.225 362.68 113.51 359.77" fill="#FF9A0D"/>
<path opacity="0.2" d="M113.51 359.81C112.51 369.36 116.77 380.6 121.69 388.81C126.66 397.114 134.15 403.616 143.07 407.37C144.07 407.79 145.31 408.14 146.15 407.46C146.45 407.133 146.675 406.744 146.81 406.321C146.945 405.898 146.986 405.451 146.93 405.01C147.004 394.869 143.786 384.977 137.76 376.82C131.734 368.663 123.225 362.68 113.51 359.77" fill="white"/>
<path d="M155.12 427.38C155.012 427.213 154.922 427.035 154.85 426.85C154.67 426.44 154.45 425.92 154.17 425.29C153.6 423.92 152.74 421.96 151.64 419.55C148.795 413.272 145.631 407.144 142.16 401.19C138.672 395.243 134.887 389.476 130.82 383.91C129.25 381.77 127.96 380.06 127.06 378.91L126.06 377.55C125.83 377.24 125.71 377.07 125.73 377.05C125.879 377.181 126.016 377.325 126.14 377.48C126.43 377.83 126.8 378.26 127.25 378.78C128.25 379.91 129.55 381.59 131.15 383.7C135.325 389.21 139.169 394.963 142.66 400.93C146.131 406.896 149.25 413.06 152 419.39C153.05 421.83 153.85 423.82 154.37 425.21C154.6 425.86 154.8 426.39 154.95 426.81C155.03 426.992 155.087 427.184 155.12 427.38V427.38Z" fill="#263238"/>
<path d="M149 336.32C149.063 336.623 149.1 336.931 149.11 337.24C149.11 337.89 149.22 338.76 149.3 339.87C149.45 342.2 149.66 345.5 149.92 349.55C150.44 357.72 151.16 369.01 152.04 381.47C152.92 393.93 153.78 405.22 154.41 413.39C154.72 417.39 154.97 420.72 155.15 423.06C155.23 424.16 155.29 425.06 155.33 425.69C155.356 425.996 155.356 426.304 155.33 426.61C155.256 426.312 155.209 426.007 155.19 425.7C155.12 425.05 155.03 424.18 154.91 423.08L154 413.42C153.27 405.26 152.34 393.98 151.47 381.51C150.6 369.04 149.93 357.75 149.47 349.57C149.28 345.52 149.13 342.22 149.02 339.88C148.98 338.767 148.95 337.887 148.93 337.24C148.933 336.932 148.957 336.625 149 336.32V336.32Z" fill="#263238"/>
<path d="M140.19 413.76H164.11V431.32C164.112 432.828 163.816 434.322 163.239 435.716C162.663 437.11 161.818 438.377 160.752 439.444C159.685 440.511 158.419 441.358 157.026 441.935C155.632 442.513 154.139 442.81 152.63 442.81V442.81C149.69 442.812 146.862 441.685 144.727 439.663C142.593 437.64 141.317 434.876 141.16 431.94L140.19 413.76Z" fill="#263238"/>
<path d="M398.49 149.61C397.241 156.828 393.858 163.507 388.778 168.786C383.698 174.064 377.154 177.7 369.989 179.225C362.823 180.749 355.366 180.093 348.577 177.34C341.788 174.588 335.979 169.864 331.9 163.78L314.52 166.47L326.29 150.11C325.294 144.83 325.47 139.396 326.806 134.192C328.141 128.988 330.603 124.14 334.018 119.992C337.433 115.844 341.717 112.497 346.568 110.187C351.418 107.876 356.717 106.66 362.09 106.622C367.463 106.585 372.778 107.728 377.66 109.971C382.543 112.214 386.873 115.502 390.345 119.602C393.817 123.703 396.346 128.515 397.753 133.701C399.16 138.886 399.412 144.317 398.49 149.61Z" fill="#FF9A0D"/>
<path d="M373.27 156.66C376.27 156.76 378.45 152.97 378.63 147.04C378.94 136.96 371.97 129.34 361.85 129.04C351.73 128.74 343.95 135.9 343.64 145.93C343.35 155.55 350.41 162.79 360.28 163.09C362.938 163.117 365.565 162.506 367.94 161.31L368.53 162.67C365.959 163.981 363.115 164.667 360.23 164.67C349.53 164.34 341.86 156.41 342.18 145.92C342.51 135 350.91 127.23 361.9 127.56C372.73 127.89 380.39 136.11 380.05 147.11C379.84 153.92 377.05 158.23 373.05 158.11C370.8 158.04 369.05 156.36 369.05 153.64L369.11 151.46C368.263 153.185 366.926 154.623 365.267 155.592C363.607 156.562 361.698 157.02 359.78 156.91C358.39 156.891 357.02 156.59 355.751 156.024C354.482 155.458 353.342 154.64 352.4 153.619C351.457 152.599 350.733 151.396 350.27 150.086C349.808 148.777 349.617 147.386 349.71 146C349.89 139.89 354.34 135.47 360.32 135.65C362.205 135.646 364.05 136.197 365.626 137.234C367.201 138.27 368.437 139.747 369.18 141.48L369.34 136.09L371.01 136.14L370.49 153.2C370.43 155.32 371.69 156.62 373.27 156.66ZM351.46 146C351.435 147.73 351.922 149.429 352.86 150.882C353.798 152.336 355.145 153.48 356.732 154.17C358.318 154.859 360.074 155.065 361.777 154.759C363.479 154.454 365.054 153.652 366.302 152.453C367.55 151.255 368.416 149.715 368.791 148.026C369.165 146.337 369.032 144.574 368.407 142.961C367.783 141.348 366.695 139.955 365.281 138.958C363.867 137.962 362.189 137.405 360.46 137.36C359.292 137.3 358.125 137.479 357.03 137.888C355.934 138.296 354.934 138.924 354.091 139.734C353.248 140.543 352.579 141.517 352.127 142.594C351.674 143.672 351.447 144.831 351.46 146V146Z" fill="white"/>
<path d="M314.11 170.77C312.32 170.23 309.11 179.84 308.61 177.38C308.11 174.92 313.89 166.07 312 165.58C309.54 164.94 306.38 175.07 306.05 175.9C305.72 176.73 304.5 176.29 304.83 175.55C305.32 174.49 310.17 163.19 307.76 162.55C306.42 162.19 306 164.65 306 164.65C306 164.65 302.24 175.55 301.11 175.21C299.98 174.87 301.96 168.38 302.78 166.21C303.6 164.04 302.92 162.86 301.69 163.27C300.85 163.56 298.16 170.04 297.4 172.17C296.64 174.3 294.63 180.17 293.26 176.48C291.89 172.79 289.43 170.48 288.33 170.28C288.074 170.269 287.82 170.339 287.605 170.478C287.39 170.617 287.223 170.82 287.128 171.058C287.032 171.295 287.013 171.557 287.073 171.807C287.132 172.056 287.267 172.281 287.46 172.45C288.305 173.485 289.001 174.633 289.53 175.86C289.993 176.827 290.29 177.865 290.41 178.93C290.67 181.067 290.72 183.224 290.56 185.37V185.97L278.7 215.43L265.49 186.43C261.26 172.37 243.79 171.79 243.79 171.79L226.47 170C220.21 167.59 213.22 168 209.33 170.22C206.889 171.666 204.783 173.614 203.151 175.934C201.518 178.254 200.397 180.894 199.86 183.68C195.86 203.3 181.98 273.56 180.86 304.33C180.152 307.679 179.624 311.064 179.28 314.47C178.94 319.8 179.42 319.84 180.04 319.77C181.73 319.59 181.04 310.41 182.3 312.29C183.56 314.17 181.89 323.63 183.64 323.37C186 323 185 313.4 185 312.58C185 311.76 186.16 311.71 186.14 312.45C186.14 313.51 186.06 324.69 188.31 324.38C189.55 324.21 189.04 322 189.04 322C189.04 322 188.31 311.54 189.38 311.42C190.45 311.3 191.1 317.42 191.16 319.52C191.22 321.62 192.23 322.38 193.16 321.6C193.76 321.06 193.71 314.68 193.6 312.6C193.49 310.52 193.07 304.9 195.53 307.51C197.99 310.12 200.87 311.21 201.86 310.96C202.078 310.877 202.265 310.728 202.396 310.534C202.526 310.34 202.593 310.111 202.588 309.877C202.582 309.644 202.504 309.418 202.365 309.23C202.226 309.043 202.032 308.903 201.81 308.83C200.735 308.26 199.742 307.547 198.86 306.71C198.148 306.074 197.544 305.328 197.07 304.5C196.92 304.23 196.8 303.98 196.66 303.73C197.04 297.88 200.48 247.62 209.34 213.18L211 208.89C212.74 215.89 211.7 230.21 208 236.4C201.93 246.66 202.41 271.87 202.41 271.87L258.27 274C258.27 274 257.84 264.73 257.35 252.89L256.11 218.07L256.25 211.4L256.51 210.7C259.21 215.01 262.59 220.54 266.76 227.59C280.65 251.02 292.37 223.13 292.37 223.13L304.24 189.55C307.263 185.337 310.057 180.964 312.61 176.45C315.24 171.21 314.77 171 314.11 170.77Z" fill="#E5BAAB"/>
<path d="M228.13 438.8V429.8L211.2 429.69L211.06 442.92L212.11 442.99C216.78 443.28 235.88 444.13 239.01 443.21C242.5 442.13 228.13 438.8 228.13 438.8Z" fill="#FF9A0D"/>
<path d="M239.41 442.34C239.41 442.5 233.07 442.63 225.26 442.63C217.45 442.63 211.12 442.5 211.12 442.34C211.12 442.18 217.45 442.05 225.26 442.05C233.07 442.05 239.41 442.18 239.41 442.34Z" fill="#263238"/>
<path d="M228.43 440.65C228.29 440.57 228.43 440.08 228.78 439.65C229.13 439.22 229.58 438.94 229.69 439.05C229.8 439.16 229.57 439.57 229.24 440C228.91 440.43 228.57 440.72 228.43 440.65Z" fill="#263238"/>
<path d="M229.51 441.24C229.36 441.18 229.44 440.64 229.77 440.08C230.1 439.52 230.55 439.18 230.67 439.28C230.79 439.38 230.58 439.85 230.27 440.37C229.96 440.89 229.66 441.3 229.51 441.24Z" fill="#263238"/>
<path d="M216.22 442.28C216.15 442.33 215.9 442.09 215.53 441.69C215.078 441.165 214.576 440.686 214.03 440.26C213.494 439.864 212.869 439.607 212.21 439.51C211.7 439.44 211.37 439.51 211.34 439.43C211.31 439.35 211.62 439.14 212.22 439.1C212.994 439.077 213.753 439.32 214.37 439.79C214.965 440.242 215.47 440.802 215.86 441.44C216.15 441.91 216.28 442.23 216.22 442.28Z" fill="#263238"/>
<path d="M228.479 439C228.559 439.13 228.269 439.45 227.789 439.62C227.309 439.79 226.869 439.73 226.849 439.57C226.829 439.41 227.169 439.23 227.589 439.08C228.009 438.93 228.399 438.81 228.479 439Z" fill="#263238"/>
<path d="M228.22 438.07C228.22 438.23 227.78 438.37 227.22 438.38C226.66 438.39 226.22 438.26 226.22 438.1C226.22 437.94 226.69 437.8 227.22 437.8C227.75 437.8 228.2 437.91 228.22 438.07Z" fill="#263238"/>
<path d="M246 435.6L248.68 426.96L232.54 421.85L228.49 434.44L229.49 434.82C233.87 436.48 251.85 442.94 255.12 442.99C258.73 443 246 435.6 246 435.6Z" fill="#FF9A0D"/>
<path d="M255.71 442.31C255.71 442.47 249.58 440.72 242.12 438.4C234.66 436.08 228.65 434.09 228.7 433.94C228.75 433.79 234.83 435.54 242.29 437.85C249.75 440.16 255.76 442.16 255.71 442.31Z" fill="#263238"/>
<path d="M245.73 437.45C245.62 437.33 245.88 436.91 246.37 436.56C246.86 436.21 247.37 436.12 247.37 436.26C247.37 436.4 247.1 436.72 246.65 437.04C246.2 437.36 245.84 437.56 245.73 437.45Z" fill="#263238"/>
<path d="M246.59 438.34C246.46 438.24 246.7 437.74 247.18 437.34C247.66 436.94 248.18 436.71 248.27 436.84C248.36 436.97 248.02 437.36 247.57 437.77C247.12 438.18 246.71 438.44 246.59 438.34Z" fill="#263238"/>
<path d="M233.589 435.39C233.509 435.39 233.339 435.12 233.099 434.62C232.825 433.989 232.49 433.386 232.099 432.82C231.706 432.28 231.183 431.846 230.579 431.56C230.119 431.34 229.779 431.31 229.779 431.22C229.779 431.13 230.129 431.03 230.719 431.17C231.464 431.385 232.115 431.842 232.569 432.47C232.997 433.075 233.313 433.753 233.499 434.47C233.629 435 233.659 435.37 233.589 435.39Z" fill="#263238"/>
<path d="M246.28 435.84C246.28 435.99 245.94 436.21 245.43 436.23C244.92 436.25 244.53 436.06 244.56 435.9C244.59 435.74 244.96 435.67 245.41 435.65C245.86 435.63 246.25 435.68 246.28 435.84Z" fill="#263238"/>
<path d="M246.29 434.93C246.29 435.08 245.78 435.08 245.29 434.93C244.8 434.78 244.29 434.51 244.4 434.36C244.51 434.21 244.93 434.22 245.45 434.36C245.97 434.5 246.32 434.77 246.29 434.93Z" fill="#263238"/>
<path d="M243.46 172.91C243.2 171.03 244.21 163.21 244.21 163.21C244.21 163.21 251.4 162.69 252.06 155.6C252.72 148.51 252.81 132.13 252.81 132.13L240 125.34L225.3 135.74L221.45 144L226.33 162V171.32L243.46 172.91Z" fill="#E5BAAB"/>
<path d="M251.919 143.05C251.969 143 251.919 142.77 251.599 142.5C251.215 142.156 250.731 141.946 250.217 141.899C249.704 141.852 249.189 141.972 248.749 142.24C248.419 142.45 248.289 142.66 248.339 142.72C248.389 142.78 249.189 142.39 250.159 142.49C250.284 142.499 250.408 142.519 250.529 142.55C250.389 142.624 250.271 142.734 250.187 142.868C250.103 143.002 250.056 143.156 250.05 143.314C250.045 143.473 250.081 143.63 250.156 143.769C250.23 143.909 250.34 144.027 250.475 144.11C250.609 144.194 250.764 144.24 250.922 144.245C251.08 144.25 251.237 144.213 251.377 144.138C251.516 144.063 251.633 143.952 251.716 143.818C251.799 143.683 251.845 143.528 251.849 143.37C251.869 143.264 251.869 143.156 251.849 143.05C251.849 143.05 251.889 143.08 251.919 143.05Z" fill="#263238"/>
<path d="M241.07 142.71C241.13 142.66 241.07 142.42 240.76 142.16C240.377 141.814 239.893 141.6 239.38 141.55C238.863 141.505 238.345 141.624 237.9 141.89C237.58 142.1 237.45 142.31 237.5 142.37C237.55 142.43 238.34 142.05 239.32 142.14C239.478 142.157 239.636 142.188 239.79 142.23C239.666 142.288 239.558 142.374 239.473 142.48C239.388 142.586 239.327 142.71 239.297 142.843C239.267 142.976 239.267 143.114 239.298 143.247C239.329 143.38 239.389 143.504 239.475 143.61C239.56 143.716 239.669 143.801 239.792 143.858C239.916 143.916 240.051 143.945 240.187 143.944C240.323 143.942 240.457 143.909 240.579 143.848C240.701 143.786 240.807 143.698 240.89 143.59C240.979 143.464 241.034 143.316 241.05 143.162C241.066 143.008 241.042 142.852 240.98 142.71H241.07Z" fill="#263238"/>
<path d="M244.33 151.08C244.859 150.966 245.399 150.916 245.94 150.93C246.19 150.93 246.44 150.93 246.49 150.72C246.535 150.448 246.497 150.169 246.38 149.92C246.19 149.28 245.99 148.59 245.77 147.92C245.201 146.174 244.76 144.39 244.45 142.58C244.7 143.06 244.895 143.566 245.03 144.09C245.34 145.04 245.74 146.35 246.16 147.81L246.73 149.81C246.863 150.127 246.887 150.478 246.8 150.81C246.761 150.897 246.701 150.973 246.626 151.032C246.551 151.091 246.464 151.132 246.37 151.15C246.228 151.174 246.082 151.174 245.94 151.15C245.403 151.196 244.862 151.172 244.33 151.08V151.08Z" fill="#263238"/>
<path d="M241.07 151.91C241.86 152.2 243.75 153.62 245.75 153.69C245.377 154.176 244.851 154.52 244.257 154.668C243.663 154.815 243.036 154.756 242.48 154.5C240.42 153.55 241.07 151.91 241.07 151.91Z" fill="#EFEDE9"/>
<path d="M244.21 163.21C240.843 162.961 237.617 161.758 234.91 159.74C234.91 159.74 236.91 165.02 244 164.95L244.21 163.21Z" fill="#D78776"/>
<path d="M257.59 121.55C257.064 121.054 256.423 120.698 255.724 120.513C255.026 120.327 254.292 120.32 253.59 120.49C252.194 120.842 250.83 121.307 249.51 121.88C248.178 122.449 246.69 122.537 245.3 122.13C243.45 121.43 242.43 119.46 240.84 118.29C240.138 117.778 239.333 117.427 238.48 117.263C237.628 117.098 236.749 117.124 235.908 117.338C235.066 117.552 234.282 117.949 233.612 118.501C232.942 119.052 232.401 119.745 232.03 120.53C231.23 122.22 231.03 124.53 229.39 125.3C228.04 125.95 226.47 125.3 225.04 124.83C223.722 124.37 222.296 124.321 220.95 124.69C220.282 124.893 219.686 125.284 219.234 125.815C218.782 126.347 218.492 126.998 218.4 127.69C218.32 128.95 219.08 130.15 219.04 131.42C218.98 133.35 217.16 134.7 215.5 135.68C213.84 136.66 211.97 137.84 211.64 139.74C211.582 140.557 211.722 141.376 212.05 142.126C212.377 142.877 212.882 143.537 213.52 144.05C214.795 145.069 216.017 146.154 217.18 147.3C218.23 148.54 218.86 150.37 218.1 151.82C217.71 152.54 217.01 153.11 216.85 153.91C216.57 155.26 217.85 156.35 219.08 157.03C220.292 157.818 221.654 158.349 223.08 158.59C223.648 158.654 224.224 158.616 224.78 158.48C225.78 161.33 226.35 163.73 226.35 163.73C227.54 165.66 227.54 159.36 227.54 159.36C227.54 159.36 228.12 153.28 227.15 150.97C227.15 150.97 223.55 152.37 222.35 145.82C221.75 142.59 226.59 140.75 228.15 144.61L231.23 144.72C231.23 144.72 230.87 132.09 237.99 134.27C250.55 138.12 257.28 134.07 258.15 123.87C258.248 123.467 258.248 123.046 258.15 122.642C258.053 122.239 257.861 121.864 257.59 121.55V121.55Z" fill="#263238"/>
<path d="M226.89 149C226.89 149 226.79 149.08 226.62 149.18C226.374 149.301 226.091 149.323 225.83 149.24C225.427 149.015 225.09 148.688 224.855 148.291C224.62 147.894 224.494 147.442 224.49 146.98C224.44 146.461 224.509 145.938 224.69 145.45C224.735 145.257 224.825 145.079 224.954 144.929C225.083 144.779 225.246 144.663 225.43 144.59C225.549 144.551 225.678 144.554 225.795 144.6C225.912 144.646 226.009 144.731 226.07 144.84C226.16 145.01 226.13 145.13 226.16 145.14C226.19 145.15 226.29 145.03 226.22 144.78C226.178 144.633 226.086 144.506 225.96 144.42C225.875 144.362 225.778 144.321 225.677 144.301C225.576 144.28 225.471 144.28 225.37 144.3C225.133 144.369 224.917 144.497 224.742 144.672C224.567 144.847 224.439 145.063 224.37 145.3C224.145 145.84 224.052 146.427 224.1 147.01C224.104 147.551 224.268 148.078 224.57 148.526C224.873 148.974 225.3 149.324 225.8 149.53C225.972 149.579 226.153 149.584 226.328 149.546C226.502 149.508 226.665 149.427 226.8 149.31C226.89 149.11 226.92 149 226.89 149Z" fill="#D78776"/>
<path d="M257.79 260.22L235.58 258.52L201.91 255.79L205.67 436.62L234.9 436.24C234.9 436.24 234.9 434.24 234.83 430.7L252 435.38C252 435.38 268.7 378.97 274.39 355.82C279.11 336.5 257.79 260.22 257.79 260.22ZM234.52 402.58C234.07 360.84 233.47 294.1 234.08 285.42C234.08 285.42 250.45 343.67 250.6 348.6C250.7 351.6 241.63 380.44 234.52 402.58Z" fill="#263238"/>
<path opacity="0.2" d="M234.52 402.58L234.83 430.69L239.55 431.99L238.41 390.39L234.52 402.58Z" fill="black"/>
<path d="M233.709 285.22C233.619 285.17 234.389 283.99 235.039 281.86C235.825 279.067 236.179 276.17 236.089 273.27C236.089 269.87 235.839 266.76 235.919 264.5C235.929 263.611 235.986 262.723 236.089 261.84C236.1 261.499 236.164 261.161 236.279 260.84C236.369 260.84 236.279 262.23 236.279 264.46C236.279 266.69 236.589 269.78 236.629 273.23C236.722 276.187 236.303 279.137 235.389 281.95C235.093 282.797 234.711 283.611 234.249 284.38C234.118 284.688 233.935 284.972 233.709 285.22Z" fill="#455A64"/>
<path d="M230.62 262.35C230.62 262.35 230.73 262.17 231.05 262.04C231.521 261.862 232.04 261.862 232.51 262.04C232.878 262.157 233.204 262.378 233.448 262.676C233.693 262.974 233.847 263.337 233.89 263.72C233.973 264.197 233.896 264.689 233.672 265.118C233.448 265.548 233.09 265.892 232.651 266.098C232.212 266.304 231.718 266.359 231.245 266.257C230.771 266.154 230.344 265.899 230.03 265.53C229.762 265.249 229.581 264.896 229.51 264.515C229.439 264.133 229.481 263.739 229.63 263.38C229.802 262.91 230.135 262.517 230.57 262.27C230.88 262.11 231.08 262.11 231.09 262.15C230.589 262.468 230.211 262.948 230.02 263.51C229.929 263.795 229.917 264.099 229.985 264.389C230.054 264.68 230.201 264.947 230.41 265.16C230.647 265.458 230.977 265.668 231.347 265.756C231.717 265.844 232.106 265.806 232.451 265.647C232.797 265.488 233.079 265.217 233.253 264.879C233.427 264.541 233.482 264.154 233.41 263.78C233.379 263.485 233.27 263.203 233.095 262.964C232.919 262.725 232.683 262.537 232.41 262.42C231.839 262.193 231.207 262.168 230.62 262.35V262.35Z" fill="#455A64"/>
<path d="M259.92 269.16C259.313 269.613 258.594 269.893 257.84 269.97C256.03 270.303 254.161 269.983 252.564 269.067C250.968 268.152 249.747 266.7 249.12 264.97C248.807 264.285 248.686 263.528 248.77 262.78C248.87 262.78 248.96 263.61 249.5 264.78C250.208 266.345 251.377 267.657 252.85 268.54C254.354 269.375 256.08 269.724 257.79 269.54C259.11 269.42 259.88 269.07 259.92 269.16Z" fill="#455A64"/>
<path d="M214.47 258.3C214.47 258.3 214.63 258.56 214.76 259.07C214.936 259.793 215.013 260.536 214.99 261.28C214.959 263.786 213.953 266.181 212.185 267.956C210.416 269.732 208.026 270.749 205.52 270.79C204.774 270.815 204.027 270.741 203.3 270.57C203.031 270.527 202.773 270.432 202.54 270.29C203.538 270.375 204.539 270.405 205.54 270.38C207.91 270.239 210.145 269.232 211.821 267.551C213.497 265.869 214.497 263.63 214.63 261.26C214.638 260.271 214.584 259.282 214.47 258.3V258.3Z" fill="#455A64"/>
<path d="M235.059 429.37C235.059 429.53 228.519 429.66 220.459 429.66C212.399 429.66 205.859 429.53 205.859 429.37C205.859 429.21 212.389 429.08 220.459 429.08C228.529 429.08 235.059 429.21 235.059 429.37Z" fill="#455A64"/>
<path d="M209.69 429.79C209.53 429.79 209.07 394.13 208.69 350.14C208.31 306.15 208.1 270.49 208.26 270.49C208.42 270.49 208.87 306.14 209.26 350.14C209.65 394.14 209.85 429.79 209.69 429.79Z" fill="#455A64"/>
<path d="M235.449 409.65C235.463 409.534 235.49 409.42 235.529 409.31L235.799 408.31C236.069 407.43 236.439 406.18 236.909 404.6C237.909 401.35 239.349 396.71 241.109 390.99C242.869 385.27 245.029 378.41 247.399 370.83C248.589 367.04 249.839 363.06 251.129 358.93L253.129 352.64C253.439 351.58 253.849 350.48 254.129 349.44C254.098 348.338 253.954 347.243 253.699 346.17C252.699 341.7 251.529 337.38 250.379 333.22C249.229 329.06 248.039 325.05 246.909 321.22C244.649 313.59 242.549 306.75 240.789 301C239.029 295.25 237.599 290.64 236.589 287.39C236.109 285.81 235.739 284.57 235.469 283.69L235.189 282.69C235.15 282.58 235.123 282.466 235.109 282.35C235.161 282.453 235.205 282.56 235.239 282.67C235.329 282.91 235.439 283.23 235.579 283.62C235.869 284.5 236.279 285.73 236.809 287.29C237.809 290.53 239.339 295.15 241.179 300.85C243.019 306.55 245.179 313.42 247.419 321.03C248.559 324.84 249.749 328.84 250.919 333.03C252.089 337.22 253.299 341.51 254.259 346.03C254.379 346.6 254.489 347.16 254.569 347.73C254.626 348.017 254.663 348.308 254.679 348.6C254.72 348.905 254.72 349.215 254.679 349.52C254.409 350.68 254.019 351.7 253.679 352.78L251.679 359.07C250.369 363.19 249.109 367.17 247.909 370.96L241.499 391.09C239.659 396.79 238.169 401.41 237.129 404.65L235.909 408.33C235.779 408.72 235.669 409.03 235.579 409.28C235.547 409.407 235.504 409.531 235.449 409.65Z" fill="#455A64"/>
<path d="M234.81 422.87C235.723 423.073 236.617 423.357 237.48 423.72L244.17 426.06L250.86 428.39C251.805 428.666 252.723 429.031 253.6 429.48C252.625 429.342 251.667 429.108 250.74 428.78C248.99 428.28 246.6 427.52 243.98 426.61C241.36 425.7 238.98 424.8 237.34 424.11C236.444 423.813 235.593 423.396 234.81 422.87V422.87Z" fill="#455A64"/>
<path d="M219.61 339.69C219.735 339.548 219.884 339.43 220.05 339.34C220.507 339.048 221.011 338.839 221.54 338.72C222.388 338.522 223.272 338.542 224.11 338.78C225.23 339.12 226.205 339.824 226.88 340.78C227.662 341.963 228.047 343.364 227.98 344.78C227.98 346.26 227.89 347.78 227.84 349.44C227.832 351.168 227.692 352.893 227.42 354.6C227.258 355.526 226.919 356.413 226.42 357.21C225.86 358.047 225.025 358.662 224.06 358.95C223.111 359.174 222.12 359.148 221.184 358.874C220.249 358.601 219.4 358.09 218.72 357.39C217.508 356.079 216.736 354.422 216.51 352.65C216.134 349.732 216.358 346.768 217.17 343.94C217.433 342.839 217.855 341.781 218.42 340.8C218.865 340.042 219.547 339.452 220.36 339.12C220.873 338.908 221.437 338.856 221.98 338.97C222.167 338.999 222.345 339.071 222.5 339.18C221.82 338.995 221.096 339.048 220.45 339.33C219.703 339.671 219.089 340.247 218.7 340.97C218.183 341.937 217.8 342.97 217.56 344.04C216.833 346.822 216.657 349.72 217.04 352.57C217.261 354.221 217.984 355.764 219.11 356.99C219.722 357.613 220.484 358.069 221.323 358.315C222.161 358.56 223.049 358.586 223.9 358.39C224.723 358.135 225.43 357.601 225.9 356.88C226.391 356.155 226.731 355.339 226.9 354.48C227.165 352.803 227.309 351.108 227.33 349.41C227.4 347.78 227.52 346.21 227.53 344.78C227.611 343.468 227.279 342.164 226.58 341.05C225.962 340.158 225.071 339.491 224.04 339.15C223.259 338.898 222.427 338.846 221.62 339C220.919 339.128 220.242 339.36 219.61 339.69Z" fill="#455A64"/>
<path d="M261.58 348.05C259.773 348.478 257.926 348.716 256.07 348.76C254.229 348.995 252.369 349.035 250.52 348.88C252.327 348.458 254.174 348.223 256.03 348.18C257.87 347.945 259.73 347.902 261.58 348.05Z" fill="#455A64"/>
<path d="M259.669 351.33C256.817 350.914 254.034 350.11 251.399 348.94C252.84 349.062 254.259 349.371 255.619 349.86C257.028 350.169 258.39 350.664 259.669 351.33V351.33Z" fill="#455A64"/>
<path d="M273 342.26C273.163 342.313 273.315 342.394 273.45 342.5C273.852 342.792 274.178 343.176 274.4 343.62C275.06 344.76 275.22 346.67 275.18 348.91C275.24 351.582 274.76 354.238 273.77 356.72C273.138 358.198 272.193 359.522 271 360.6C270.373 361.202 269.618 361.654 268.79 361.92C268.331 362.036 267.85 362.036 267.39 361.92C266.918 361.793 266.498 361.52 266.19 361.14C265.668 360.408 265.341 359.554 265.24 358.66C265.082 357.84 264.972 357.012 264.91 356.18C264.809 354.607 264.876 353.028 265.11 351.47C265.513 348.83 266.416 346.292 267.77 343.99C268.266 343.063 269.015 342.297 269.93 341.78C270.288 341.598 270.681 341.493 271.082 341.473C271.484 341.452 271.885 341.516 272.26 341.66C272.745 341.842 273.144 342.199 273.38 342.66C273.465 342.814 273.513 342.985 273.52 343.16C273.52 343.16 273.45 342.99 273.28 342.72C273.015 342.34 272.632 342.059 272.19 341.92C271.845 341.801 271.478 341.756 271.115 341.788C270.751 341.821 270.398 341.931 270.08 342.11C269.227 342.619 268.534 343.357 268.08 344.24C266.809 346.517 265.968 349.008 265.6 351.59C265.385 353.11 265.331 354.649 265.44 356.18C265.504 356.988 265.611 357.793 265.76 358.59C265.854 359.388 266.142 360.15 266.6 360.81C266.837 361.096 267.156 361.302 267.514 361.4C267.871 361.498 268.251 361.484 268.6 361.36C269.35 361.124 270.035 360.717 270.6 360.17C271.727 359.147 272.624 357.896 273.23 356.5C274.208 354.086 274.711 351.505 274.71 348.9C274.913 347.152 274.718 345.382 274.14 343.72C273.87 343.156 273.481 342.658 273 342.26Z" fill="#455A64"/>
<path d="M289.7 160.07L296.37 189L311.98 185.63L306.52 155.94L289.7 160.07Z" fill="#263238"/>
<path d="M291.55 161.56L296.66 184.72L310.2 181.38L305.36 158.11L291.55 161.56Z" fill="white"/>
<path d="M305.409 185C305.411 185.286 305.328 185.566 305.171 185.804C305.013 186.042 304.788 186.228 304.525 186.339C304.261 186.449 303.971 186.478 303.691 186.423C303.411 186.368 303.153 186.23 302.951 186.028C302.749 185.826 302.612 185.569 302.556 185.289C302.501 185.008 302.531 184.718 302.641 184.454C302.751 184.191 302.937 183.966 303.175 183.809C303.414 183.651 303.694 183.568 303.979 183.57C304.359 183.57 304.722 183.721 304.99 183.989C305.259 184.257 305.409 184.621 305.409 185V185Z" fill="#455A64"/>
<path d="M301.25 158.42L295.06 159.81L295.08 159.9L301.27 158.51L301.25 158.42Z" fill="#455A64"/>
<path d="M304.634 160.134L292.701 162.814L294.84 172.337L306.773 169.656L304.634 160.134Z" fill="#F0F0F0"/>
<path d="M295.17 173.42L296.08 176.81L307.79 174.13L306.96 170.44L295.17 173.42Z" fill="#E0E0E0"/>
<path d="M296.47 178.12L297.54 183.27L309.11 180.38L308 175.47L296.47 178.12Z" fill="#EBEBEB"/>
<path d="M210.56 211.13C210.24 212.88 209.77 215.52 209.21 218.62C216.04 218.91 224.21 219.27 233.1 219.68C242.43 220.12 251.1 220.54 258.1 220.9L258.03 213.33C251.03 213.04 242.59 212.67 233.44 212.24C225 211.85 217.18 211.47 210.56 211.13Z" fill="#FF9A0D"/>
<path d="M200.92 178.48C199.585 180.908 198.432 183.432 197.47 186.03C204.92 186.29 218.75 186.87 234.59 187.61C248.67 188.26 261.18 188.89 269 189.32C267.954 186.632 266.731 184.016 265.34 181.49C257.57 181.19 246.81 180.72 234.93 180.17C221.08 179.53 208.77 178.91 200.92 178.48Z" fill="#FF9A0D"/>
<path d="M243.53 171.84C243.023 172.495 242.447 173.092 241.81 173.62C247.15 173.87 252.16 174.11 256.66 174.34C252.404 172.963 247.993 172.123 243.53 171.84V171.84Z" fill="#FF9A0D"/>
<path d="M220.24 258.91L258.52 264.91V260.58C251.09 260.27 241.52 259.86 231.16 259.37L220.24 258.91Z" fill="#FF9A0D"/>
<path d="M259.579 217.29L262.489 213.51L258.069 213.33L259.579 217.29Z" fill="#FF9A0D"/>
<path d="M204.58 243C203.97 245.75 203.37 248.38 202.87 250.52C210.48 250.82 220.55 251.26 231.61 251.78C241.75 252.25 251.06 252.7 258.41 253.08L258.34 245.5C251.06 245.2 241.9 244.8 231.96 244.34C221.55 243.83 212 243.37 204.58 243Z" fill="#FF9A0D"/>
<path d="M202.77 250.92C202.11 253.7 201.66 255.54 201.66 255.54L215.66 258.15C220.45 258.36 225.66 258.59 231.11 258.85C241.5 259.33 251.02 259.79 258.45 260.18L258.38 253.52C251.03 253.21 241.71 252.81 231.55 252.33C220.49 251.82 210.38 251.32 202.77 250.92Z" fill="#FF9A0D"/>
<path d="M206.26 235C205.79 237.39 205.26 240 204.68 242.51C212.1 242.81 221.61 243.23 231.98 243.71C241.92 244.17 251.06 244.62 258.33 244.99L258.26 237.41C251.05 237.11 242.07 236.72 232.33 236.27C222.59 235.82 213.49 235.4 206.26 235Z" fill="#FF9A0D"/>
<path d="M194.85 194.2C194 197.31 193.41 200 193 202C198.64 202.15 214.77 202.81 233.8 203.7C248.19 204.36 260.91 205 268.7 205.44L272.7 200.18C272.7 200.18 272.44 199.29 271.98 197.86C264.73 197.61 250.49 197.01 234.11 196.25C216.59 195.39 201.48 194.62 194.85 194.2Z" fill="#FF9A0D"/>
<path d="M193 202.13C192.69 203.76 192.54 204.74 192.54 204.74L211 208.92C211 208.92 210.89 209.55 210.69 210.65C217.31 210.93 225.13 211.27 233.52 211.65C244.87 212.18 255.18 212.65 262.85 213.09L268.54 205.7C260.72 205.41 248.1 204.87 233.87 204.21C214.76 203.34 198.61 202.51 193 202.13Z" fill="#FF9A0D"/>
<path d="M209.13 219.1C208.71 221.42 208.26 223.98 207.79 226.6C214.79 226.89 223.43 227.27 232.73 227.7C242.26 228.14 251.06 228.57 258.18 228.94L258.11 221.37C251.06 221.08 242.42 220.69 233.11 220.26C224.2 219.85 216 219.45 209.13 219.1Z" fill="#FF9A0D"/>
<path d="M197.36 186.31C196.36 188.94 195.58 191.56 194.91 193.98C201.58 194.18 216.66 194.81 234.21 195.63C250.52 196.38 264.7 197.1 271.96 197.53C271.32 195.53 270.34 192.68 269.14 189.67C261.32 189.38 248.74 188.84 234.56 188.19C218.65 187.45 204.78 186.75 197.36 186.31Z" fill="#FF9A0D"/>
<path d="M207.71 227.06C207.43 228.62 207.15 230.19 206.88 231.73C206.72 232.63 206.54 233.58 206.35 234.57C213.57 234.87 222.58 235.27 232.35 235.72C242.12 236.17 251.06 236.61 258.26 236.98L258.19 229.41C251.05 229.11 242.24 228.72 232.7 228.28C223.37 227.85 214.75 227.43 207.71 227.06Z" fill="#FF9A0D"/>
<path d="M230.19 173.08C228.753 172.114 227.431 170.987 226.25 169.72C226.25 169.72 216.51 165.45 208.9 169.58C207.714 170.238 206.627 171.059 205.67 172.02C212.22 172.28 220.73 172.64 230.19 173.08Z" fill="#FF9A0D"/>
<path d="M205.279 172.41C203.655 174.134 202.254 176.056 201.109 178.13C208.969 178.43 221.209 178.95 234.959 179.59C246.709 180.13 257.339 180.66 265.099 181.07C264.269 179.515 263.161 178.125 261.829 176.97C260.682 176.131 259.436 175.436 258.119 174.9C253.059 174.69 247.279 174.44 241.119 174.16C237.729 176.41 234.059 175.35 231.209 173.7C221.139 173.22 212.109 172.78 205.279 172.41Z" fill="#FF9A0D"/>
<path d="M201.11 178.13C201.041 178.243 200.977 178.36 200.92 178.48C208.77 178.91 221.08 179.53 234.92 180.17C246.8 180.72 257.56 181.17 265.33 181.49L265.09 181.07C257.33 180.66 246.7 180.13 234.95 179.59C221.21 179 209 178.43 201.11 178.13Z" fill="#263238"/>
<path d="M256.66 174.34C252.16 174.11 247.15 173.87 241.81 173.62C241.57 173.807 241.33 173.987 241.09 174.16C247.28 174.44 253.09 174.69 258.09 174.9C257.64 174.7 257.15 174.52 256.66 174.34Z" fill="#263238"/>
<path d="M205.669 172C205.529 172.12 205.409 172.26 205.279 172.39C212.109 172.76 221.139 173.2 231.179 173.68C230.839 173.48 230.509 173.27 230.179 173.06C220.729 172.64 212.219 172.28 205.669 172Z" fill="#263238"/>
<path d="M197.469 186C197.439 186.096 197.402 186.189 197.359 186.28C204.779 186.72 218.649 187.42 234.559 188.16C248.739 188.81 261.319 189.35 269.139 189.64C269.139 189.53 269.049 189.41 268.999 189.29C261.179 188.86 248.669 188.23 234.589 187.58C218.749 186.87 204.919 186.29 197.469 186Z" fill="#263238"/>
<path d="M194.91 194L194.85 194.22C201.48 194.64 216.59 195.41 234.19 196.22C250.57 196.98 264.81 197.58 272.06 197.83C272.06 197.74 272 197.65 271.96 197.55C264.7 197.12 250.52 196.4 234.21 195.65C216.66 194.81 201.58 194.18 194.91 194Z" fill="#263238"/>
<path d="M193 202C193.005 202.06 193.005 202.12 193 202.18C198.61 202.56 214.76 203.39 233.82 204.27C248.05 204.93 260.67 205.47 268.49 205.76L268.74 205.44C260.95 205 248.23 204.36 233.84 203.7C214.81 202.76 198.68 202.1 193 202Z" fill="#263238"/>
<path d="M210.64 210.65C210.64 210.8 210.64 210.96 210.56 211.13C217.18 211.47 225.03 211.85 233.44 212.24C242.59 212.67 251.06 213.04 258.03 213.33V213.24V213.33L262.45 213.51L262.76 213.1C255.09 212.7 244.76 212.19 233.43 211.66C225.08 211.27 217.26 210.93 210.64 210.65Z" fill="#263238"/>
<path d="M209.21 218.62C209.21 218.78 209.16 218.94 209.13 219.1C215.97 219.45 224.2 219.85 233.07 220.26C242.42 220.69 251.07 221.08 258.07 221.37V220.9C251.07 220.54 242.4 220.12 233.07 219.68C224.26 219.27 216 218.91 209.21 218.62Z" fill="#263238"/>
<path d="M207.79 226.6C207.79 226.75 207.79 226.91 207.71 227.06C214.71 227.43 223.37 227.85 232.71 228.28C242.25 228.72 251.06 229.11 258.2 229.41V228.94C251.08 228.57 242.28 228.14 232.75 227.7C223.43 227.27 214.82 226.89 207.79 226.6Z" fill="#263238"/>
<path d="M206.35 234.57L206.26 235.03C213.49 235.4 222.52 235.84 232.33 236.3C242.14 236.76 251.05 237.14 258.26 237.44V237C251.06 236.63 242.09 236.19 232.35 235.74C222.61 235.29 213.57 234.87 206.35 234.57Z" fill="#263238"/>
<path d="M204.68 242.54C204.68 242.68 204.61 242.83 204.58 242.98C212.01 243.37 221.58 243.83 231.96 244.32C241.9 244.78 251.06 245.18 258.34 245.48V245C251.07 244.63 241.93 244.18 231.99 243.72C221.61 243.26 212.1 242.84 204.68 242.54Z" fill="#263238"/>
<path d="M202.87 250.5C202.87 250.64 202.8 250.78 202.77 250.92C210.38 251.32 220.49 251.82 231.58 252.33C241.74 252.81 251.06 253.21 258.41 253.52V253.07C251.06 252.69 241.75 252.24 231.61 251.77C220.55 251.24 210.48 250.8 202.87 250.5Z" fill="#263238"/>
<path d="M215.689 258.15L219.629 258.88H220.239L231.119 259.39C241.509 259.88 251.049 260.29 258.479 260.6H258.539V260.15C251.109 259.76 241.539 259.3 231.199 258.82C225.689 258.59 220.479 258.36 215.689 258.15Z" fill="#263238"/>
<path d="M258.32 220.66C258.16 220.66 257.47 214.86 256.78 207.66C256.09 200.46 255.66 194.66 255.78 194.66C255.9 194.66 256.63 200.46 257.32 207.66C258.01 214.86 258.48 220.64 258.32 220.66Z" fill="#263238"/>
<path d="M257.669 191.83C257.799 191.92 257.369 192.78 256.669 193.76C255.969 194.74 255.359 195.47 255.219 195.38C255.079 195.29 255.519 194.38 256.219 193.44C256.919 192.5 257.539 191.74 257.669 191.83Z" fill="#263238"/>
<path d="M248.559 223C248.639 223.14 241.639 227 232.919 231.59C224.199 236.18 217.079 239.8 217.009 239.66C216.939 239.52 223.939 235.66 232.649 231.08C241.359 226.5 248.489 222.85 248.559 223Z" fill="#263238"/>
<path d="M250.249 229.88C249.159 230.203 248.046 230.444 246.919 230.6L238.919 232.11L230.919 233.74C229.82 234.029 228.7 234.229 227.569 234.34C228.62 233.899 229.712 233.564 230.829 233.34C232.829 232.81 235.689 232.15 238.829 231.53C241.969 230.91 244.829 230.46 246.929 230.18C248.025 229.983 249.136 229.883 250.249 229.88V229.88Z" fill="#263238"/>
<path d="M211.909 199.29C212.02 200.146 212.02 201.014 211.909 201.87C211.849 203.46 211.679 205.65 211.369 208.06C211.059 210.47 210.649 212.64 210.309 214.2C210.173 215.051 209.938 215.883 209.609 216.68C209.61 215.818 209.711 214.959 209.909 214.12C210.149 212.55 210.479 210.39 210.789 207.99C211.099 205.59 211.339 203.41 211.499 201.84C211.548 200.978 211.685 200.124 211.909 199.29V199.29Z" fill="#263238"/>
<path d="M243.67 171.44C243.559 171.693 243.407 171.927 243.22 172.13C242.772 172.722 242.277 173.277 241.74 173.79C240.941 174.593 239.96 175.19 238.88 175.53C237.54 175.89 236.13 175.89 234.79 175.53C232.411 174.86 230.206 173.679 228.33 172.07C227.764 171.588 227.236 171.063 226.75 170.5C226.41 170.11 226.25 169.86 226.28 169.84C226.31 169.82 227.11 170.65 228.57 171.78C230.454 173.265 232.612 174.366 234.92 175.02C236.172 175.375 237.494 175.402 238.76 175.1C239.777 174.798 240.713 174.272 241.5 173.56C242.87 172.29 243.6 171.38 243.67 171.44Z" fill="#263238"/>
</svg>
