<svg width="500" height="500" viewBox="0 0 500 500" fill="none" xmlns="http://www.w3.org/2000/svg">
<path d="M249.99 479.68C382.351 479.68 489.65 417.73 489.65 341.31C489.65 264.89 382.351 202.94 249.99 202.94C117.63 202.94 10.3301 264.89 10.3301 341.31C10.3301 417.73 117.63 479.68 249.99 479.68Z" fill="#F5F5F5"/>
<path d="M418.91 360.09L470.46 330.33C476.7 326.73 476.7 320.89 470.46 317.33L383.62 267.19C377.38 263.59 367.27 263.59 361.04 267.19L309.49 296.95C303.26 300.55 303.26 306.39 309.49 309.95L396.34 360.09C402.57 363.69 412.68 363.69 418.91 360.09Z" fill="#E0E0E0"/>
<path d="M281.56 458.13C310.77 458.13 334.45 444.457 334.45 427.59C334.45 410.723 310.77 397.05 281.56 397.05C252.35 397.05 228.67 410.723 228.67 427.59C228.67 444.457 252.35 458.13 281.56 458.13Z" fill="#E0E0E0"/>
<path d="M88.3195 415.66L26.5795 380C24.2495 378.65 24.2495 376.47 26.5795 375.13L157.5 299.53C158.806 298.869 160.25 298.525 161.715 298.525C163.179 298.525 164.623 298.869 165.93 299.53L227.67 335.21C230 336.56 230 338.74 227.67 340.08L96.7495 415.66C95.4428 416.321 93.9989 416.665 92.5345 416.665C91.0702 416.665 89.6263 416.321 88.3195 415.66Z" fill="#E0E0E0"/>
<path d="M345.86 76.65L351.86 80.12C351.828 79.8545 351.812 79.5874 351.81 79.32V77.59C351.81 74.49 353.98 73.24 356.66 74.78C357.812 75.4919 358.798 76.4434 359.55 77.57C359.99 73.67 363.04 72.23 366.75 74.37C368.863 75.7456 370.622 77.6014 371.882 79.7858C373.142 81.9703 373.868 84.4217 374 86.94V89.54C374.027 90.5744 373.815 91.6012 373.38 92.54L378.38 95.42C379.16 95.9337 379.81 96.6225 380.277 97.4315C380.744 98.2406 381.015 99.1475 381.07 100.08C381.07 101.8 379.87 102.5 378.38 101.64L345.86 82.87C345.08 82.3563 344.43 81.6675 343.963 80.8584C343.496 80.0494 343.225 79.1425 343.17 78.21C343.17 76.49 344.38 75.8 345.86 76.65Z" fill="#EBEBEB"/>
<path d="M385.54 60.71L388.85 62V54.69C388.85 48.91 393.46 47.52 398.47 50.41C403.47 53.31 407.54 60.34 407.54 66.12V67.18C408.243 66.9594 408.988 66.9033 409.716 67.016C410.444 67.1287 411.137 67.4072 411.74 67.83C413.641 69.0668 415.223 70.7348 416.358 72.6983C417.493 74.6619 418.148 76.8655 418.27 79.13V79.61L422.88 82.27C424.132 83.0838 425.174 84.1819 425.922 85.4748C426.669 86.7677 427.1 88.2188 427.18 89.71C427.18 92.45 425.26 93.56 422.88 92.19L385.54 70.63C384.289 69.815 383.248 68.7166 382.501 67.424C381.754 66.1313 381.322 64.6808 381.24 63.19C381.24 60.45 383.17 59.34 385.54 60.71Z" fill="#EBEBEB"/>
<path d="M82.0796 358C82.0796 358 87.0796 332.38 80.9296 309.27C74.7796 286.16 61.6296 268.82 46.2596 262.56C30.8896 256.3 13.5296 266.76 27.2596 282.09C40.9896 297.42 67.7096 317.09 69.6596 358.77L82.0796 358Z" fill="#E60014"/>
<g opacity="0.15">
<path opacity="0.15" d="M82.0796 358C82.0796 358 87.0796 332.38 80.9296 309.27C74.7796 286.16 61.6296 268.82 46.2596 262.56C30.8896 256.3 13.5296 266.76 27.2596 282.09C40.9896 297.42 67.7096 317.09 69.6596 358.77L82.0796 358Z" fill="black"/>
</g>
<path d="M79.49 350.14H79.68C79.7957 350.131 79.9085 350.1 80.0119 350.047C80.1153 349.994 80.2073 349.922 80.2826 349.834C80.3579 349.745 80.415 349.643 80.4506 349.532C80.4862 349.422 80.4996 349.306 80.49 349.19C76.88 302.92 50.63 275.73 37.26 267.82C37.0584 267.701 36.8177 267.666 36.5908 267.724C36.3639 267.783 36.1693 267.928 36.05 268.13C35.9306 268.332 35.8963 268.572 35.9544 268.799C36.0125 269.026 36.1584 269.221 36.36 269.34C49.46 277.09 75.17 303.78 78.73 349.34C78.7465 349.54 78.8308 349.728 78.969 349.874C79.1073 350.019 79.2911 350.113 79.49 350.14Z" fill="white"/>
<path d="M20.11 329.57C20.5369 331.842 21.6381 333.933 23.27 335.57C25.44 337.81 28.16 339.47 30.21 341.82C30.7483 342.383 31.1398 343.07 31.35 343.82C31.8 345.82 29.93 347.56 28.75 349.28C27.5199 351.18 26.9943 353.451 27.2647 355.698C27.535 357.945 28.5843 360.026 30.23 361.58C33.56 364.58 38.4 364.75 42.77 365.58C46.1363 366.195 49.1331 368.091 51.13 370.87C53.34 374.11 53.22 378.45 54.29 382.11C55.1006 384.682 56.4589 387.049 58.2715 389.046C60.0841 391.044 62.308 392.624 64.79 393.68C67.7311 394.921 70.8632 395.648 74.05 395.83C76.3707 396.111 78.7187 395.608 80.72 394.4C84.17 391.99 84.53 387.12 84.57 382.92L84.72 364C84.72 359.75 84.72 355.38 83.72 351.24C83.01 348.53 81.4 346.34 80.51 343.8C79.07 339.68 79.13 334.19 75 331.68C69.14 328.12 61.38 330.08 55 327.53C52.891 326.547 50.8586 325.407 48.92 324.12C44.27 321.36 38.92 319.51 33.53 319.75C29.0304 319.886 24.7467 321.711 21.53 324.86C20.938 325.477 20.5006 326.226 20.2537 327.044C20.0069 327.863 19.9576 328.729 20.11 329.57Z" fill="#E60014"/>
<path d="M80.5204 389H80.5804C80.6692 389.001 80.7574 388.985 80.8399 388.952C80.9223 388.919 80.9973 388.87 81.0606 388.807C81.1239 388.745 81.1742 388.671 81.2084 388.589C81.2427 388.507 81.2604 388.419 81.2604 388.33C81.8204 345.85 41.7704 328.45 31.8204 326.42C31.6453 326.384 31.4632 326.419 31.3142 326.518C31.1651 326.616 31.0612 326.77 31.0254 326.945C30.9896 327.12 31.0248 327.302 31.1232 327.451C31.2217 327.6 31.3753 327.704 31.5504 327.74C41.2804 329.74 80.4504 346.74 79.9104 388.32C79.9095 388.489 79.9714 388.652 80.0842 388.778C80.1969 388.903 80.3524 388.983 80.5204 389Z" fill="white"/>
<path d="M38.3703 351.94C38.4992 351.957 38.63 351.929 38.7404 351.86C38.8604 351.79 51.6603 344.72 67.6003 351.86C67.7499 351.907 67.9115 351.897 68.0545 351.833C68.1975 351.769 68.3119 351.654 68.3761 351.511C68.4402 351.368 68.4496 351.207 68.4024 351.057C68.3553 350.907 68.2549 350.78 68.1204 350.7C51.5604 343.32 38.2403 350.7 38.1203 350.79C37.9735 350.874 37.8659 351.012 37.8209 351.176C37.7759 351.339 37.7973 351.513 37.8803 351.66C37.934 351.742 38.0065 351.81 38.0916 351.859C38.1768 351.908 38.2723 351.935 38.3703 351.94Z" fill="white"/>
<path d="M403.93 343.29C403.683 341.11 402.927 339.018 401.724 337.184C400.52 335.35 398.902 333.824 397 332.73C395.11 331.73 393.47 331.82 392.37 332.66L388.25 335.33L398.16 350.18L402.24 347.52C403.38 346.8 404.05 345.34 403.93 343.29Z" fill="#455A64"/>
<path d="M392.74 335.52C394.643 336.611 396.262 338.137 397.464 339.972C398.667 341.807 399.419 343.899 399.66 346.08C399.89 350.08 397.16 351.89 393.56 350.08C391.66 348.985 390.044 347.459 388.842 345.624C387.64 343.79 386.886 341.699 386.64 339.52C386.42 335.49 389.15 333.7 392.74 335.52Z" fill="#37474F"/>
<path d="M391 341.68C390.91 340.11 391.82 339.34 393 339.95C393.683 340.382 394.253 340.97 394.663 341.665C395.073 342.361 395.312 343.144 395.36 343.95C395.45 345.52 394.54 346.29 393.36 345.68C392.679 345.246 392.111 344.658 391.701 343.963C391.291 343.268 391.051 342.486 391 341.68Z" fill="#263238"/>
<path d="M399.75 328.39C399.75 328.39 400.15 335.59 396.87 338.32C396.25 338.84 395.58 339.21 395.2 339.57C394.36 340.35 395.02 341.65 396.11 342.16C397.7 342.9 405.99 340.16 409.17 333.16L399.75 328.39Z" fill="#E60014"/>
<path opacity="0.6" d="M399.75 328.39C399.75 328.39 400.15 335.59 396.87 338.32C396.25 338.84 395.58 339.21 395.2 339.57C394.36 340.35 395.02 341.65 396.11 342.16C397.7 342.9 405.99 340.16 409.17 333.16L399.75 328.39Z" fill="black"/>
<path d="M396.591 330.45C396.591 330.45 396.991 337.65 393.711 340.38C393.091 340.9 392.421 341.27 392.041 341.63C391.201 342.41 391.861 343.71 392.951 344.22C394.541 344.96 402.831 342.22 406.011 335.22L396.591 330.45Z" fill="#E60014"/>
<path opacity="0.4" d="M396.591 330.45C396.591 330.45 396.991 337.65 393.711 340.38C393.091 340.9 392.421 341.27 392.041 341.63C391.201 342.41 391.861 343.71 392.951 344.22C394.541 344.96 402.831 342.22 406.011 335.22L396.591 330.45Z" fill="black"/>
<path d="M393.11 342.1C393.293 342.202 393.449 342.346 393.565 342.52C393.681 342.694 393.755 342.892 393.78 343.1C393.78 343.49 393.54 343.66 393.19 343.48C393.009 343.377 392.855 343.233 392.74 343.059C392.626 342.885 392.554 342.687 392.53 342.48C392.51 342.09 392.77 341.92 393.11 342.1Z" fill="#263238"/>
<path d="M448.761 313.39C448.515 311.211 447.761 309.12 446.559 307.286C445.357 305.451 443.741 303.925 441.841 302.83C439.951 301.88 438.311 301.93 437.201 302.76L433.091 305.43L443.001 320.28L447.071 317.62C448.211 316.9 448.871 315.44 448.761 313.39Z" fill="#455A64"/>
<path d="M437.57 305.62C439.47 306.715 441.086 308.241 442.288 310.076C443.49 311.91 444.245 314.001 444.49 316.18C444.72 320.18 441.99 321.99 438.39 320.18C436.489 319.084 434.872 317.556 433.67 315.72C432.468 313.884 431.715 311.791 431.47 309.61C431.24 305.59 434 303.81 437.57 305.62Z" fill="#37474F"/>
<path d="M435.781 311.79C435.691 310.21 436.601 309.44 437.781 310.05C438.461 310.484 439.029 311.073 439.439 311.768C439.849 312.463 440.09 313.245 440.141 314.05C440.231 315.62 439.321 316.4 438.141 315.78C437.459 315.349 436.89 314.763 436.48 314.069C436.07 313.376 435.83 312.594 435.781 311.79Z" fill="#263238"/>
<path d="M444.06 299.55C444.06 299.55 444.98 305.69 441.7 308.43C441.08 308.94 440.41 309.31 440.03 309.67C439.19 310.45 439.85 311.76 440.94 312.26C442.53 313.01 450.3 311.34 453.48 304.26L444.06 299.55Z" fill="#E60014"/>
<path opacity="0.6" d="M444.06 299.55C444.06 299.55 444.98 305.69 441.7 308.43C441.08 308.94 440.41 309.31 440.03 309.67C439.19 310.45 439.85 311.76 440.94 312.26C442.53 313.01 450.3 311.34 453.48 304.26L444.06 299.55Z" fill="black"/>
<path d="M441.42 300.56C441.42 300.56 441.82 307.75 438.54 310.49C437.92 311 437.25 311.37 436.86 311.73C436.03 312.51 436.69 313.82 437.78 314.33C439.37 315.07 447.66 312.33 450.84 305.33L441.42 300.56Z" fill="#E60014"/>
<path opacity="0.4" d="M441.42 300.56C441.42 300.56 441.82 307.75 438.54 310.49C437.92 311 437.25 311.37 436.86 311.73C436.03 312.51 436.69 313.82 437.78 314.33C439.37 315.07 447.66 312.33 450.84 305.33L441.42 300.56Z" fill="black"/>
<path d="M437.941 312.2C438.122 312.302 438.277 312.446 438.392 312.62C438.507 312.794 438.578 312.993 438.601 313.2C438.601 313.59 438.361 313.76 438.021 313.59C437.84 313.487 437.686 313.342 437.572 313.169C437.457 312.995 437.385 312.797 437.361 312.59C437.331 312.2 437.601 312 437.941 312.2Z" fill="#263238"/>
<path d="M359.61 321.2C359.366 319.019 358.613 316.926 357.411 315.09C356.208 313.254 354.592 311.726 352.69 310.63C350.81 309.68 349.17 309.73 348.06 310.57L343.94 313.24L353.85 328.09L357.93 325.42C359.07 324.71 359.73 323.25 359.61 321.2Z" fill="#455A64"/>
<path d="M348.42 313.43C350.326 314.521 351.946 316.047 353.149 317.884C354.352 319.721 355.103 321.817 355.34 324C355.57 328 352.84 329.81 349.25 328C347.345 326.91 345.726 325.386 344.523 323.55C343.32 321.715 342.569 319.621 342.33 317.44C342.1 313.4 344.83 311.61 348.42 313.43Z" fill="#37474F"/>
<path d="M346.63 319.59C346.54 318.02 347.46 317.25 348.63 317.86C349.314 318.291 349.885 318.879 350.297 319.574C350.71 320.27 350.95 321.053 351 321.86C351.09 323.43 350.17 324.2 349 323.59C348.317 323.158 347.747 322.57 347.335 321.875C346.923 321.179 346.681 320.396 346.63 319.59Z" fill="#263238"/>
<path d="M355.431 306.3C355.431 306.3 355.841 313.49 352.551 316.23C351.931 316.75 351.271 317.12 350.881 317.48C350.051 318.26 350.701 319.56 351.801 320.07C353.391 320.81 361.681 318.07 364.861 311.07L355.431 306.3Z" fill="#E60014"/>
<path opacity="0.6" d="M355.431 306.3C355.431 306.3 355.841 313.49 352.551 316.23C351.931 316.75 351.271 317.12 350.881 317.48C350.051 318.26 350.701 319.56 351.801 320.07C353.391 320.81 361.681 318.07 364.861 311.07L355.431 306.3Z" fill="black"/>
<path d="M352.271 308.36C352.271 308.36 352.681 315.56 349.391 318.29C348.771 318.81 348.101 319.18 347.721 319.54C346.891 320.32 347.541 321.62 348.641 322.13C350.231 322.87 358.521 320.13 361.701 313.13L352.271 308.36Z" fill="#E60014"/>
<path opacity="0.4" d="M352.271 308.36C352.271 308.36 352.681 315.56 349.391 318.29C348.771 318.81 348.101 319.18 347.721 319.54C346.891 320.32 347.541 321.62 348.641 322.13C350.231 322.87 358.521 320.13 361.701 313.13L352.271 308.36Z" fill="black"/>
<path d="M348.8 320C348.981 320.103 349.135 320.247 349.25 320.421C349.365 320.595 349.437 320.793 349.46 321C349.46 321.39 349.22 321.56 348.87 321.38C348.689 321.277 348.535 321.133 348.42 320.959C348.305 320.785 348.233 320.587 348.21 320.38C348.19 320 348.45 319.83 348.8 320Z" fill="#263238"/>
<path d="M406.231 290.66C405.989 288.479 405.237 286.387 404.035 284.552C402.832 282.717 401.214 281.191 399.311 280.1C397.421 279.1 395.781 279.2 394.681 280.03L390.561 282.7L400.471 297.55L404.551 294.89C405.691 294.17 406.351 292.71 406.231 290.66Z" fill="#455A64"/>
<path d="M395 282.89C396.918 283.972 398.552 285.493 399.769 287.329C400.986 289.164 401.75 291.262 402 293.45C402.23 297.45 399.5 299.26 395.9 297.45C393.999 296.354 392.382 294.826 391.18 292.99C389.978 291.154 389.224 289.061 388.98 286.88C388.72 282.87 391.45 281.08 395 282.89Z" fill="#37474F"/>
<path d="M393.25 289.06C393.16 287.49 394.08 286.71 395.25 287.32C395.932 287.754 396.502 288.342 396.913 289.037C397.325 289.732 397.567 290.514 397.62 291.32C397.7 292.89 396.79 293.67 395.57 293.05C394.898 292.613 394.338 292.024 393.935 291.331C393.532 290.638 393.298 289.86 393.25 289.06Z" fill="#263238"/>
<path d="M402.051 275.77C402.051 275.77 402.451 282.96 399.171 285.7C398.551 286.21 397.881 286.58 397.501 286.94C396.661 287.72 397.321 289.03 398.411 289.54C400.011 290.28 408.301 287.54 411.471 280.54L402.051 275.77Z" fill="#E60014"/>
<path opacity="0.6" d="M402.051 275.77C402.051 275.77 402.451 282.96 399.171 285.7C398.551 286.21 397.881 286.58 397.501 286.94C396.661 287.72 397.321 289.03 398.411 289.54C400.011 290.28 408.301 287.54 411.471 280.54L402.051 275.77Z" fill="black"/>
<path d="M398.891 277.83C398.891 277.83 399.291 285.02 396.011 287.76C395.391 288.27 394.721 288.64 394.341 289C393.501 289.78 394.161 291.09 395.251 291.6C396.841 292.34 405.131 289.6 408.311 282.6L398.891 277.83Z" fill="#E60014"/>
<path opacity="0.4" d="M398.891 277.83C398.891 277.83 399.291 285.02 396.011 287.76C395.391 288.27 394.721 288.64 394.341 289C393.501 289.78 394.161 291.09 395.251 291.6C396.841 292.34 405.131 289.6 408.311 282.6L398.891 277.83Z" fill="black"/>
<path d="M395.41 289.47C395.593 289.572 395.748 289.716 395.865 289.89C395.981 290.064 396.055 290.262 396.08 290.47C396.08 290.86 395.84 291.03 395.49 290.86C395.311 290.755 395.159 290.61 395.044 290.437C394.93 290.263 394.857 290.066 394.83 289.86C394.81 289.47 395.07 289.3 395.41 289.47Z" fill="#263238"/>
<path d="M419.691 339.93C417.402 340.105 415.106 339.691 413.021 338.73L349.601 307C346.031 305.2 342.021 300.53 341.771 296.11L338.421 236.83L341.721 236.65L345.061 296C345.231 299 348.381 302.77 351.061 304.13L414.481 335.82C416.069 336.486 417.788 336.782 419.507 336.683C421.226 336.584 422.9 336.094 424.401 335.25L459.561 314.9C460.501 314.28 461.041 313.54 461.001 312.9C460.961 312.26 460.381 311.65 459.381 311.14L396.071 274.39C392.511 272.6 388.511 267.92 388.261 263.49L385.871 223L389.161 222.82L391.571 263.33C391.741 266.33 394.881 270.11 397.571 271.46L460.871 308.21C462.991 309.28 464.211 310.88 464.321 312.73C464.312 313.737 464.036 314.724 463.521 315.59C463.006 316.456 462.271 317.17 461.391 317.66L426.231 338C424.251 339.19 422 339.855 419.691 339.93Z" fill="#E60014"/>
<g opacity="0.5">
<path opacity="0.5" d="M419.691 339.93C417.402 340.105 415.106 339.691 413.021 338.73L349.601 307C346.031 305.2 342.021 300.53 341.771 296.11L338.421 236.83L341.721 236.65L345.061 296C345.231 299 348.381 302.77 351.061 304.13L414.481 335.82C416.069 336.486 417.788 336.782 419.507 336.683C421.226 336.584 422.9 336.094 424.401 335.25L459.561 314.9C460.501 314.28 461.041 313.54 461.001 312.9C460.961 312.26 460.381 311.65 459.381 311.14L396.071 274.39C392.511 272.6 388.511 267.92 388.261 263.49L385.871 223L389.161 222.82L391.571 263.33C391.741 266.33 394.881 270.11 397.571 271.46L460.871 308.21C462.991 309.28 464.211 310.88 464.321 312.73C464.312 313.737 464.036 314.724 463.521 315.59C463.006 316.456 462.271 317.17 461.391 317.66L426.231 338C424.251 339.19 422 339.855 419.691 339.93Z" fill="black"/>
</g>
<path d="M328.68 177C328.122 174.854 328.226 172.59 328.977 170.504C329.728 168.418 331.092 166.607 332.89 165.31L368.72 141.67C372.29 139.33 376.2 140.95 377.46 145.04L382.91 162.73L380.27 164.46L375 148C374.878 147.522 374.639 147.082 374.305 146.718C373.971 146.354 373.553 146.079 373.087 145.915C372.621 145.752 372.122 145.706 371.634 145.782C371.146 145.858 370.685 146.053 370.29 146.35L335.5 169.42C334.345 170.262 333.465 171.428 332.974 172.77C332.482 174.113 332.401 175.571 332.74 176.96L337.34 192.63L334.17 194.71L328.68 177Z" fill="#E60014"/>
<g opacity="0.5">
<path opacity="0.5" d="M328.68 177C328.122 174.854 328.226 172.59 328.977 170.504C329.728 168.418 331.092 166.607 332.89 165.31L368.72 141.67C372.29 139.33 376.2 140.95 377.46 145.04L382.91 162.73L380.27 164.46L375 148C374.878 147.522 374.639 147.082 374.305 146.718C373.971 146.354 373.553 146.079 373.087 145.915C372.621 145.752 372.122 145.706 371.634 145.782C371.146 145.858 370.685 146.053 370.29 146.35L335.5 169.42C334.345 170.262 333.465 171.428 332.974 172.77C332.482 174.113 332.401 175.571 332.74 176.96L337.34 192.63L334.17 194.71L328.68 177Z" fill="black"/>
</g>
<path d="M334.131 194.67L382.911 162.71L388.051 227.99L339.261 259.95L334.131 194.67Z" fill="#E60014"/>
<path d="M382.91 162.71L388.05 228L472.66 270.69L487.05 215.26L382.91 162.71ZM413.38 226C412.266 226.349 411.06 226.243 410.023 225.705C408.987 225.167 408.206 224.242 407.85 223.13L395.09 190C394.822 189.482 394.666 188.913 394.632 188.33C394.598 187.748 394.687 187.165 394.894 186.619C395.1 186.073 395.419 185.577 395.829 185.162C396.24 184.747 396.733 184.424 397.277 184.212C397.82 184 398.403 183.906 398.986 183.934C399.568 183.962 400.139 184.112 400.66 184.375C401.181 184.638 401.64 185.008 402.009 185.46C402.378 185.912 402.647 186.437 402.8 187L415.56 220.1C415.807 220.63 415.946 221.204 415.97 221.788C415.994 222.372 415.902 222.956 415.699 223.504C415.496 224.053 415.187 224.555 414.789 224.984C414.391 225.412 413.912 225.758 413.38 226ZM437.48 237.34C436.365 237.686 435.158 237.579 434.121 237.042C433.084 236.505 432.301 235.581 431.94 234.47L419.19 201.37C418.922 200.852 418.766 200.283 418.732 199.7C418.698 199.118 418.787 198.535 418.994 197.989C419.2 197.443 419.519 196.947 419.929 196.532C420.34 196.117 420.833 195.794 421.377 195.582C421.92 195.37 422.503 195.276 423.086 195.304C423.668 195.332 424.239 195.482 424.76 195.745C425.281 196.008 425.74 196.378 426.109 196.83C426.478 197.282 426.747 197.807 426.9 198.37L439.65 231.47C440.13 232.533 440.171 233.743 439.765 234.836C439.359 235.929 438.538 236.818 437.48 237.31V237.34ZM461.57 248.67C460.458 249.019 459.252 248.915 458.216 248.379C457.18 247.843 456.398 246.92 456.04 245.81L443.29 212.71C443.022 212.192 442.866 211.623 442.832 211.04C442.798 210.458 442.887 209.875 443.094 209.329C443.3 208.783 443.619 208.287 444.029 207.872C444.44 207.457 444.933 207.134 445.477 206.922C446.02 206.71 446.603 206.616 447.186 206.644C447.768 206.672 448.339 206.822 448.86 207.085C449.381 207.348 449.84 207.718 450.209 208.17C450.578 208.622 450.847 209.147 451 209.71L463.75 242.81C464.232 243.873 464.273 245.083 463.864 246.175C463.456 247.268 462.631 248.154 461.57 248.64V248.67Z" fill="#E60014"/>
<path opacity="0.55" d="M382.91 162.71L388.05 228L472.66 270.69L487.05 215.26L382.91 162.71ZM413.38 226C412.266 226.349 411.06 226.243 410.023 225.705C408.987 225.167 408.206 224.242 407.85 223.13L395.09 190C394.822 189.482 394.666 188.913 394.632 188.33C394.598 187.748 394.687 187.165 394.894 186.619C395.1 186.073 395.419 185.577 395.829 185.162C396.24 184.747 396.733 184.424 397.277 184.212C397.82 184 398.403 183.906 398.986 183.934C399.568 183.962 400.139 184.112 400.66 184.375C401.181 184.638 401.64 185.008 402.009 185.46C402.378 185.912 402.647 186.437 402.8 187L415.56 220.1C415.807 220.63 415.946 221.204 415.97 221.788C415.994 222.372 415.902 222.956 415.699 223.504C415.496 224.053 415.187 224.555 414.789 224.984C414.391 225.412 413.912 225.758 413.38 226ZM437.48 237.34C436.365 237.686 435.158 237.579 434.121 237.042C433.084 236.505 432.301 235.581 431.94 234.47L419.19 201.37C418.922 200.852 418.766 200.283 418.732 199.7C418.698 199.118 418.787 198.535 418.994 197.989C419.2 197.443 419.519 196.947 419.929 196.532C420.34 196.117 420.833 195.794 421.377 195.582C421.92 195.37 422.503 195.276 423.086 195.304C423.668 195.332 424.239 195.482 424.76 195.745C425.281 196.008 425.74 196.378 426.109 196.83C426.478 197.282 426.747 197.807 426.9 198.37L439.65 231.47C440.13 232.533 440.171 233.743 439.765 234.836C439.359 235.929 438.538 236.818 437.48 237.31V237.34ZM461.57 248.67C460.458 249.019 459.252 248.915 458.216 248.379C457.18 247.843 456.398 246.92 456.04 245.81L443.29 212.71C443.022 212.192 442.866 211.623 442.832 211.04C442.798 210.458 442.887 209.875 443.094 209.329C443.3 208.783 443.619 208.287 444.029 207.872C444.44 207.457 444.933 207.134 445.477 206.922C446.02 206.71 446.603 206.616 447.186 206.644C447.768 206.672 448.339 206.822 448.86 207.085C449.381 207.348 449.84 207.718 450.209 208.17C450.578 208.622 450.847 209.147 451 209.71L463.75 242.81C464.232 243.873 464.273 245.083 463.864 246.175C463.456 247.268 462.631 248.154 461.57 248.64V248.67Z" fill="white"/>
<path d="M388.051 227.99L339.261 259.95L423.881 302.64L472.661 270.69L388.051 227.99Z" fill="#E60014"/>
<path opacity="0.1" d="M388.051 227.99L339.261 259.95L423.881 302.64L472.661 270.69L388.051 227.99Z" fill="black"/>
<path d="M334.131 194.67L339.271 260L423.881 302.69L438.271 247.25L334.131 194.67ZM364.601 257.93C363.487 258.279 362.28 258.175 361.243 257.64C360.205 257.104 359.421 256.181 359.061 255.07L346.311 222C346.043 221.482 345.887 220.913 345.853 220.33C345.819 219.748 345.908 219.165 346.114 218.619C346.321 218.073 346.639 217.577 347.05 217.162C347.46 216.747 347.954 216.424 348.497 216.212C349.041 216 349.623 215.906 350.206 215.934C350.789 215.962 351.359 216.112 351.88 216.375C352.401 216.638 352.861 217.008 353.23 217.46C353.599 217.912 353.868 218.437 354.021 219L366.771 252.1C367.25 253.162 367.291 254.37 366.885 255.461C366.479 256.553 365.658 257.44 364.601 257.93ZM388.691 269.27C387.578 269.619 386.373 269.515 385.337 268.979C384.301 268.443 383.519 267.52 383.161 266.41L370.411 233.31C370.143 232.792 369.987 232.223 369.953 231.64C369.919 231.058 370.008 230.475 370.214 229.929C370.421 229.383 370.739 228.887 371.15 228.472C371.56 228.057 372.054 227.734 372.597 227.522C373.141 227.31 373.723 227.216 374.306 227.244C374.889 227.272 375.459 227.422 375.98 227.685C376.501 227.948 376.961 228.318 377.33 228.77C377.699 229.222 377.968 229.747 378.121 230.31L390.871 263.41C391.114 263.938 391.25 264.508 391.272 265.089C391.294 265.669 391.201 266.249 390.999 266.793C390.796 267.338 390.488 267.837 390.092 268.262C389.696 268.687 389.22 269.03 388.691 269.27ZM412.791 280.61C411.677 280.959 410.47 280.853 409.434 280.315C408.398 279.777 407.617 278.852 407.261 277.74L394.511 244.64C394.243 244.122 394.087 243.553 394.053 242.97C394.019 242.388 394.108 241.805 394.314 241.259C394.521 240.713 394.839 240.217 395.25 239.802C395.66 239.387 396.154 239.064 396.697 238.852C397.241 238.64 397.823 238.546 398.406 238.574C398.989 238.602 399.559 238.752 400.08 239.015C400.601 239.278 401.061 239.648 401.43 240.1C401.799 240.552 402.068 241.077 402.221 241.64L415.001 274.77C415.481 275.838 415.518 277.052 415.104 278.147C414.689 279.242 413.857 280.128 412.791 280.61Z" fill="#E60014"/>
<path opacity="0.65" d="M334.131 194.67L339.271 260L423.881 302.69L438.271 247.25L334.131 194.67ZM364.601 257.93C363.487 258.279 362.28 258.175 361.243 257.64C360.205 257.104 359.421 256.181 359.061 255.07L346.311 222C346.043 221.482 345.887 220.913 345.853 220.33C345.819 219.748 345.908 219.165 346.114 218.619C346.321 218.073 346.639 217.577 347.05 217.162C347.46 216.747 347.954 216.424 348.497 216.212C349.041 216 349.623 215.906 350.206 215.934C350.789 215.962 351.359 216.112 351.88 216.375C352.401 216.638 352.861 217.008 353.23 217.46C353.599 217.912 353.868 218.437 354.021 219L366.771 252.1C367.25 253.162 367.291 254.37 366.885 255.461C366.479 256.553 365.658 257.44 364.601 257.93ZM388.691 269.27C387.578 269.619 386.373 269.515 385.337 268.979C384.301 268.443 383.519 267.52 383.161 266.41L370.411 233.31C370.143 232.792 369.987 232.223 369.953 231.64C369.919 231.058 370.008 230.475 370.214 229.929C370.421 229.383 370.739 228.887 371.15 228.472C371.56 228.057 372.054 227.734 372.597 227.522C373.141 227.31 373.723 227.216 374.306 227.244C374.889 227.272 375.459 227.422 375.98 227.685C376.501 227.948 376.961 228.318 377.33 228.77C377.699 229.222 377.968 229.747 378.121 230.31L390.871 263.41C391.114 263.938 391.25 264.508 391.272 265.089C391.294 265.669 391.201 266.249 390.999 266.793C390.796 267.338 390.488 267.837 390.092 268.262C389.696 268.687 389.22 269.03 388.691 269.27ZM412.791 280.61C411.677 280.959 410.47 280.853 409.434 280.315C408.398 279.777 407.617 278.852 407.261 277.74L394.511 244.64C394.243 244.122 394.087 243.553 394.053 242.97C394.019 242.388 394.108 241.805 394.314 241.259C394.521 240.713 394.839 240.217 395.25 239.802C395.66 239.387 396.154 239.064 396.697 238.852C397.241 238.64 397.823 238.546 398.406 238.574C398.989 238.602 399.559 238.752 400.08 239.015C400.601 239.278 401.061 239.648 401.43 240.1C401.799 240.552 402.068 241.077 402.221 241.64L415.001 274.77C415.481 275.838 415.518 277.052 415.104 278.147C414.689 279.242 413.857 280.128 412.791 280.61Z" fill="white"/>
<path d="M438.271 247.2L487.051 215.26L472.661 270.69L423.881 302.64L438.271 247.2Z" fill="#E60014"/>
<path opacity="0.2" d="M438.271 247.2L487.051 215.26L472.661 270.69L423.881 302.64L438.271 247.2Z" fill="white"/>
<path d="M200.529 68.13V304.63C200.529 306.83 198.979 308.24 197.059 309.34L95.6895 367.88V128.68L200.529 68.13Z" fill="#E60014"/>
<path opacity="0.23" d="M200.529 68.13V304.63C200.529 306.83 198.979 308.24 197.059 309.34L95.6895 367.88V128.68L200.529 68.13Z" fill="black"/>
<path d="M214 37.35L94.3096 106.48C93.1445 107.255 92.1763 108.292 91.4819 109.507C90.7875 110.722 90.3861 112.083 90.3096 113.48V404.7C90.3096 407.28 92.1296 408.33 94.3096 407.04L214 337.91C215.165 337.135 216.133 336.098 216.827 334.883C217.522 333.668 217.923 332.307 218 330.91V39.69C218.08 37.11 216.27 36.06 214 37.35ZM212.21 311.63C212.21 313.84 210.66 315.25 208.74 316.35L99.1596 379.65C97.2496 380.76 95.6896 379.86 95.6896 377.65V128.65L212.25 61.35V311.63H212.21Z" fill="#E60014"/>
<path opacity="0.5" d="M214 37.35L94.3096 106.48C93.1445 107.255 92.1763 108.292 91.4819 109.507C90.7875 110.722 90.3861 112.083 90.3096 113.48V404.7C90.3096 407.28 92.1296 408.33 94.3096 407.04L214 337.91C215.165 337.135 216.133 336.098 216.827 334.883C217.522 333.668 217.923 332.307 218 330.91V39.69C218.08 37.11 216.27 36.06 214 37.35ZM212.21 311.63C212.21 313.84 210.66 315.25 208.74 316.35L99.1596 379.65C97.2496 380.76 95.6896 379.86 95.6896 377.65V128.65L212.25 61.35V311.63H212.21Z" fill="black"/>
<path d="M212.259 61.36V311.63C212.259 313.84 210.709 315.24 208.789 316.35L99.1595 379.65C97.2495 380.75 95.6895 379.86 95.6895 377.65V367.89L197.059 309.35C198.979 308.25 200.529 306.84 200.529 304.64V68.14L212.259 61.36Z" fill="#E60014"/>
<path opacity="0.4" d="M99.1595 379.65L208.789 316.35C209.83 315.799 210.74 315.032 211.459 314.1L199.619 307.25C198.912 308.108 198.042 308.818 197.059 309.34L95.6895 367.88V377.64C95.6895 379.86 97.2495 380.75 99.1595 379.65Z" fill="black"/>
<path opacity="0.15" d="M199.62 307.25C198.912 308.108 198.042 308.818 197.06 309.34L96 367.7V369L197.37 310.46C198.619 309.835 199.661 308.863 200.37 307.66L199.62 307.25Z" fill="black"/>
<path opacity="0.6" d="M212.26 311.63V61.36L200.53 68.14V304.63C200.534 305.581 200.213 306.506 199.62 307.25L211.46 314.1C211.982 313.382 212.262 312.517 212.26 311.63Z" fill="black"/>
<path d="M93.7998 407.29C92.5902 407.8 91.2844 408.042 89.9723 407.999C88.6603 407.956 87.3732 407.629 86.1998 407.04L81.5698 404.36C80.3897 403.595 79.4069 402.563 78.7014 401.346C77.9958 400.13 77.5876 398.764 77.5098 397.36V106.16C77.5426 105.123 77.7841 104.102 78.2198 103.16C78.3606 102.818 78.5208 102.484 78.6998 102.16L91.4398 109.52C91.1702 109.995 90.9362 110.49 90.7398 111C90.429 111.801 90.2598 112.651 90.2398 113.51V404.71C90.2598 407.08 91.8098 408.16 93.7998 407.29Z" fill="#E60014"/>
<path opacity="0.6" d="M93.7998 407.29C92.5902 407.8 91.2844 408.042 89.9723 407.999C88.6603 407.956 87.3732 407.629 86.1998 407.04L81.5698 404.36C80.3897 403.595 79.4069 402.563 78.7014 401.346C77.9958 400.13 77.5876 398.764 77.5098 397.36V106.16C77.5426 105.123 77.7841 104.102 78.2198 103.16C78.3606 102.818 78.5208 102.484 78.6998 102.16L91.4398 109.52C91.1702 109.995 90.9362 110.49 90.7398 111C90.429 111.801 90.2598 112.651 90.2398 113.51V404.71C90.2598 407.08 91.8098 408.16 93.7998 407.29Z" fill="black"/>
<path d="M156.83 354C158.9 354 159.12 356.33 159.12 357.33C158.994 359.329 158.407 361.271 157.406 363.006C156.405 364.74 155.017 366.22 153.35 367.33C152.679 367.753 151.912 367.997 151.12 368.04C149.04 368.04 148.82 365.72 148.82 364.72C148.947 362.721 149.533 360.779 150.534 359.044C151.535 357.31 152.923 355.83 154.59 354.72C155.264 354.295 156.035 354.051 156.83 354.01V354ZM156.83 352.77C155.816 352.806 154.829 353.11 153.97 353.65C152.109 354.862 150.56 356.496 149.45 358.42C148.339 360.344 147.699 362.502 147.58 364.72C147.58 367.61 149.02 369.28 151.12 369.28C152.129 369.241 153.111 368.942 153.97 368.41C155.83 367.196 157.377 365.562 158.487 363.638C159.597 361.715 160.239 359.557 160.36 357.34C160.36 354.44 158.92 352.77 156.83 352.77Z" fill="#37474F"/>
<path d="M154.08 76.0801C155.58 75.2201 156.8 75.9201 156.8 77.6501C156.748 78.5922 156.475 79.5087 156.002 80.3254C155.53 81.142 154.871 81.8357 154.08 82.3501C152.58 83.2201 151.37 82.5201 151.37 80.7801C151.421 79.8388 151.693 78.9228 152.164 78.1063C152.634 77.2897 153.291 76.5955 154.08 76.0801Z" fill="#37474F"/>
<path d="M139.499 92.87L168.85 75.87C170.1 75.15 171.109 75.66 171.109 77.02C171.054 77.7801 170.82 78.5164 170.428 79.1695C170.035 79.8227 169.495 80.3744 168.85 80.78L139.499 97.78C138.249 98.5 137.229 97.99 137.229 96.64C137.284 95.8772 137.518 95.138 137.912 94.4828C138.307 93.8276 138.851 93.275 139.499 92.87Z" fill="#37474F"/>
<path d="M218 39.05C217.71 36.94 216 36.18 214 37.35L94.3 106.48C93.1108 107.222 92.13 108.254 91.45 109.48L78.71 102.12C79.3942 100.894 80.3783 99.8621 81.57 99.12L201.29 30C202.544 29.3593 203.932 29.0251 205.34 29.0251C206.748 29.0251 208.136 29.3593 209.39 30L214 32.67C215.084 33.3854 216.002 34.3252 216.693 35.4258C217.383 36.5265 217.828 37.7623 218 39.05Z" fill="#E60014"/>
<path opacity="0.3" d="M218 39.05C217.71 36.94 216 36.18 214 37.35L94.3 106.48C93.1108 107.222 92.13 108.254 91.45 109.48L78.71 102.12C79.3942 100.894 80.3783 99.8621 81.57 99.12L201.29 30C202.544 29.3593 203.932 29.0251 205.34 29.0251C206.748 29.0251 208.136 29.3593 209.39 30L214 32.67C215.084 33.3854 216.002 34.3252 216.693 35.4258C217.383 36.5265 217.828 37.7623 218 39.05Z" fill="black"/>
<path d="M114.2 284.19L110.79 282.19C110.213 281.828 109.731 281.333 109.383 280.747C109.035 280.161 108.832 279.5 108.79 278.82V148.26C108.832 147.58 109.035 146.919 109.383 146.333C109.731 145.747 110.213 145.253 110.79 144.89L176.35 107C176.954 106.692 177.622 106.531 178.3 106.531C178.978 106.531 179.646 106.692 180.25 107L183.66 109C184.237 109.365 184.719 109.862 185.066 110.45C185.414 111.037 185.617 111.699 185.66 112.38V243C185.618 243.68 185.415 244.341 185.067 244.927C184.72 245.513 184.237 246.008 183.66 246.37L118.1 284.19C117.497 284.501 116.828 284.663 116.15 284.663C115.472 284.663 114.803 284.501 114.2 284.19Z" fill="#E60014"/>
<path opacity="0.6" d="M114.2 284.19L110.79 282.19C110.213 281.828 109.731 281.333 109.383 280.747C109.035 280.161 108.832 279.5 108.79 278.82V148.26C108.832 147.58 109.035 146.919 109.383 146.333C109.731 145.747 110.213 145.253 110.79 144.89L176.35 107C176.954 106.692 177.622 106.531 178.3 106.531C178.978 106.531 179.646 106.692 180.25 107L183.66 109C184.237 109.365 184.719 109.862 185.066 110.45C185.414 111.037 185.617 111.699 185.66 112.38V243C185.618 243.68 185.415 244.341 185.067 244.927C184.72 245.513 184.237 246.008 183.66 246.37L118.1 284.19C117.497 284.501 116.828 284.663 116.15 284.663C115.472 284.663 114.803 284.501 114.2 284.19Z" fill="white"/>
<path d="M118.099 284.19L183.659 246.34C184.236 245.978 184.719 245.483 185.067 244.897C185.414 244.311 185.618 243.65 185.659 242.97V112.49C185.659 111.25 184.789 110.74 183.659 111.36L118.099 149.11C117.532 149.478 117.059 149.975 116.72 150.561C116.381 151.147 116.186 151.804 116.149 152.48V283.07C116.149 284.31 116.999 284.82 118.099 284.19Z" fill="#E60014"/>
<path opacity="0.8" d="M118.099 284.19L183.659 246.34C184.236 245.978 184.719 245.483 185.067 244.897C185.414 244.311 185.618 243.65 185.659 242.97V112.49C185.659 111.25 184.789 110.74 183.659 111.36L118.099 149.11C117.532 149.478 117.059 149.975 116.72 150.561C116.381 151.147 116.186 151.804 116.149 152.48V283.07C116.149 284.31 116.999 284.82 118.099 284.19Z" fill="white"/>
<path d="M185.609 112.39V112.49C185.609 111.25 184.739 110.74 183.609 111.36L118.099 149.11C117.627 149.399 117.224 149.788 116.919 150.25L109.609 146C109.911 145.535 110.315 145.146 110.789 144.86L176.349 107C176.951 106.692 177.618 106.531 178.294 106.531C178.971 106.531 179.637 106.692 180.239 107L183.659 109C184.228 109.372 184.701 109.873 185.04 110.462C185.379 111.051 185.574 111.711 185.609 112.39Z" fill="#E60014"/>
<path opacity="0.95" d="M185.609 112.39V112.49C185.609 111.25 184.739 110.74 183.609 111.36L118.099 149.11C117.627 149.399 117.224 149.788 116.919 150.25L109.609 146C109.911 145.535 110.315 145.146 110.789 144.86L176.349 107C176.951 106.692 177.618 106.531 178.294 106.531C178.971 106.531 179.637 106.692 180.239 107L183.659 109C184.228 109.372 184.701 109.873 185.04 110.462C185.379 111.051 185.574 111.711 185.609 112.39Z" fill="white"/>
<path d="M152.71 253.13C140.58 260.13 129.71 259.32 129.71 259.32C129.71 238.11 137.91 215.94 138.89 211.61C139.87 207.28 141.76 200.61 138.89 197.47C136.02 194.33 134.29 185.99 134.29 185.99C134.29 185.99 138.89 180.46 138.89 176.27V163.6L143.48 160.95V164.95C143.48 171.71 147.59 174.82 152.66 171.89C157.73 168.96 161.84 161.11 161.84 154.35V150.35L166.43 147.7V160.37C166.43 164.56 171.02 164.79 171.02 164.79C171.02 164.79 169.31 175.06 166.43 181.58C163.55 188.1 165.43 192.51 166.43 195.71C167.43 198.91 175.61 211.62 175.61 232.82C175.61 232.82 164.79 246.14 152.66 253.14" fill="#37474F"/>
<path d="M95.6895 128.69L135.879 151.9L252.439 84.6L212.239 61.4L95.6895 128.69Z" fill="#F5F5F5"/>
<path d="M95.6895 128.69L135.879 151.9L148.829 144.42L108.639 121.21L95.6895 128.69Z" fill="#E60014"/>
<path d="M121.6 113.74L161.78 136.94L174.73 129.47L134.55 106.26L121.6 113.74Z" fill="#E60014"/>
<path d="M147.499 98.78L187.689 121.99L200.639 114.51L160.449 91.3L147.499 98.78Z" fill="#E60014"/>
<path d="M173.399 83.83L213.589 107.03L226.539 99.55L186.349 76.35L173.399 83.83Z" fill="#E60014"/>
<path d="M199.31 68.87L239.49 92.08L252.44 84.6L212.26 61.39L199.31 68.87Z" fill="#E60014"/>
<path d="M148.829 144.42C148.829 149.19 151.729 151.42 155.309 149.32C158.889 147.22 161.789 141.71 161.789 136.94L148.829 144.42Z" fill="#E6E6E6"/>
<path d="M174.739 129.47C174.739 134.24 177.639 136.47 181.219 134.37C184.799 132.27 187.699 126.76 187.699 121.99L174.739 129.47Z" fill="#E6E6E6"/>
<path d="M200.649 114.52C200.649 119.28 203.549 121.52 207.129 119.41C210.709 117.3 213.609 111.81 213.609 107.04L200.649 114.52Z" fill="#E6E6E6"/>
<path d="M226.56 99.56C226.56 104.33 229.46 106.56 233.04 104.46C236.62 102.36 239.52 96.85 239.52 92.08L226.56 99.56Z" fill="#E6E6E6"/>
<path d="M135.88 151.9C135.88 156.67 138.78 158.9 142.36 156.8C145.94 154.7 148.83 149.19 148.83 144.42L135.88 151.9Z" fill="#E60014"/>
<path d="M161.789 137C161.789 141.77 164.689 144 168.269 141.89C171.849 139.78 174.739 134.29 174.739 129.52L161.789 137Z" fill="#E60014"/>
<path d="M187.699 122C187.699 126.77 190.599 129 194.169 126.9C197.739 124.8 200.649 119.29 200.649 114.52L187.699 122Z" fill="#E60014"/>
<path d="M213.609 107C213.609 111.77 216.509 114 220.079 111.9C223.649 109.8 226.559 104.29 226.559 99.52L213.609 107Z" fill="#E60014"/>
<path d="M239.52 92.08C239.52 96.85 242.42 99.08 245.99 96.98C249.56 94.88 252.47 89.38 252.47 84.61L239.52 92.08Z" fill="#E60014"/>
<g opacity="0.2">
<path opacity="0.2" d="M135.88 151.9C135.88 156.67 138.78 158.9 142.36 156.8C145.94 154.7 148.83 149.19 148.83 144.42L135.88 151.9Z" fill="black"/>
<path opacity="0.2" d="M161.79 137C161.79 141.77 164.69 144 168.27 141.89C171.85 139.78 174.74 134.29 174.74 129.52L161.79 137Z" fill="black"/>
<path opacity="0.2" d="M187.7 122C187.7 126.77 190.6 129 194.17 126.9C197.74 124.8 200.65 119.29 200.65 114.52L187.7 122Z" fill="black"/>
<path opacity="0.2" d="M213.61 107C213.61 111.77 216.51 114 220.08 111.9C223.65 109.8 226.56 104.29 226.56 99.52L213.61 107Z" fill="black"/>
<path opacity="0.2" d="M239.52 92.08C239.52 96.85 242.42 99.08 245.99 96.98C249.56 94.88 252.47 89.38 252.47 84.61L239.52 92.08Z" fill="black"/>
</g>
<path d="M107.729 302.91C107.82 301.696 108.195 300.52 108.824 299.478C109.453 298.436 110.318 297.556 111.349 296.91L144.809 277.6C146.809 276.44 148.419 277.26 148.419 279.42C148.329 280.633 147.955 281.807 147.328 282.849C146.701 283.891 145.838 284.772 144.809 285.42L111.349 304.74C109.349 305.89 107.729 305.07 107.729 302.91Z" fill="#E60014"/>
<path opacity="0.8" d="M107.729 302.91C107.82 301.696 108.195 300.52 108.824 299.478C109.453 298.436 110.318 297.556 111.349 296.91L144.809 277.6C146.809 276.44 148.419 277.26 148.419 279.42C148.329 280.633 147.955 281.807 147.328 282.849C146.701 283.891 145.838 284.772 144.809 285.42L111.349 304.74C109.349 305.89 107.729 305.07 107.729 302.91Z" fill="white"/>
<path d="M112.83 313C113.155 312.91 113.496 312.889 113.83 312.94C114.103 312.98 114.363 313.083 114.59 313.24C114.797 313.392 114.965 313.591 115.08 313.82C115.199 314.053 115.264 314.309 115.27 314.57C115.272 314.676 115.245 314.78 115.19 314.87C115.155 314.952 115.096 315.022 115.02 315.07L113.44 315.99C113.359 316.041 113.266 316.072 113.17 316.08C113.095 316.075 113.023 316.051 112.96 316.01L112.84 315.91C112.776 315.859 112.701 315.825 112.62 315.81C112.502 315.78 112.378 315.78 112.26 315.81C112.071 315.85 111.892 315.925 111.73 316.03C111.574 316.111 111.426 316.209 111.29 316.32C111.154 316.423 111.027 316.537 110.91 316.66C110.805 316.784 110.718 316.922 110.65 317.07C110.581 317.213 110.546 317.371 110.55 317.53C110.542 317.59 110.547 317.651 110.566 317.708C110.585 317.765 110.617 317.817 110.66 317.86C110.775 317.936 110.915 317.965 111.05 317.94C111.292 317.918 111.53 317.867 111.76 317.79L112.87 317.45C113.245 317.327 113.636 317.256 114.03 317.24C114.321 317.221 114.61 317.291 114.86 317.44C115.091 317.609 115.263 317.847 115.35 318.12C115.47 318.515 115.524 318.927 115.51 319.34C115.511 319.797 115.447 320.251 115.32 320.69C115.187 321.145 115.006 321.584 114.78 322C114.54 322.432 114.255 322.838 113.93 323.21C113.6 323.59 113.239 323.941 112.85 324.26V325.4C112.849 325.527 112.814 325.651 112.75 325.76C112.701 325.868 112.621 325.958 112.52 326.02L110.94 326.93C110.906 326.952 110.866 326.964 110.825 326.964C110.784 326.964 110.744 326.952 110.71 326.93C110.678 326.897 110.653 326.858 110.638 326.815C110.622 326.772 110.616 326.726 110.62 326.68V325.49C110.295 325.58 109.956 325.611 109.62 325.58C109.336 325.552 109.064 325.453 108.83 325.29C108.607 325.138 108.43 324.927 108.32 324.68C108.19 324.405 108.121 324.104 108.12 323.8C108.124 323.699 108.152 323.599 108.2 323.51C108.238 323.424 108.301 323.351 108.38 323.3L109.96 322.39C110.039 322.339 110.127 322.304 110.22 322.29C110.288 322.29 110.354 322.311 110.41 322.35C110.464 322.389 110.514 322.433 110.56 322.48C110.634 322.548 110.723 322.596 110.82 322.62C110.955 322.652 111.095 322.652 111.23 322.62C111.447 322.58 111.654 322.498 111.84 322.38C112.229 322.164 112.586 321.895 112.9 321.58C113.03 321.466 113.135 321.326 113.209 321.169C113.283 321.013 113.324 320.843 113.33 320.67C113.33 320.51 113.28 320.4 113.18 320.36C113.026 320.316 112.864 320.316 112.71 320.36C112.436 320.407 112.165 320.474 111.9 320.56C111.58 320.66 111.19 320.78 110.75 320.9C110.462 321.032 110.145 321.089 109.828 321.066C109.512 321.044 109.207 320.942 108.94 320.77C108.716 320.515 108.549 320.216 108.449 319.892C108.349 319.568 108.318 319.227 108.36 318.89C108.366 318.492 108.42 318.096 108.52 317.71C108.63 317.29 108.781 316.881 108.97 316.49C109.176 316.078 109.42 315.686 109.7 315.32C109.998 314.935 110.333 314.58 110.7 314.26V313.07C110.701 312.945 110.732 312.821 110.79 312.71C110.842 312.604 110.922 312.515 111.02 312.45L112.6 311.53C112.633 311.505 112.674 311.491 112.715 311.491C112.757 311.491 112.797 311.505 112.83 311.53C112.866 311.56 112.895 311.599 112.912 311.642C112.93 311.686 112.936 311.733 112.93 311.78L112.83 313Z" fill="#37474F"/>
<path d="M116.109 314.68C116.077 314.64 116.055 314.592 116.045 314.542C116.035 314.492 116.036 314.44 116.049 314.39C116.069 314.263 116.113 314.141 116.179 314.03L118.779 309.88C118.839 309.78 118.919 309.65 119.009 309.52C119.09 309.39 119.2 309.281 119.329 309.2L120.799 308.35C120.832 308.325 120.873 308.311 120.914 308.311C120.956 308.311 120.996 308.325 121.029 308.35C121.066 308.38 121.094 308.419 121.111 308.462C121.129 308.506 121.135 308.553 121.129 308.6V319C121.129 319.127 121.095 319.251 121.029 319.36C120.98 319.468 120.9 319.558 120.799 319.62L119.219 320.53C119.185 320.552 119.145 320.564 119.104 320.564C119.063 320.564 119.023 320.552 118.989 320.53C118.957 320.497 118.933 320.458 118.917 320.415C118.902 320.372 118.896 320.326 118.899 320.28V313.28L117.459 315.55C117.409 315.653 117.324 315.734 117.219 315.78C117.188 315.804 117.149 315.818 117.109 315.818C117.069 315.818 117.031 315.804 116.999 315.78L116.109 314.68Z" fill="#37474F"/>
<path d="M126.07 305.15C126.54 304.847 127.074 304.659 127.63 304.6C128.018 304.577 128.401 304.694 128.71 304.93C129.015 305.194 129.238 305.542 129.35 305.93C129.497 306.424 129.577 306.935 129.59 307.45C129.59 307.91 129.59 308.38 129.59 308.89C129.59 309.4 129.59 309.89 129.59 310.32C129.568 310.926 129.487 311.529 129.35 312.12C129.209 312.73 128.994 313.322 128.71 313.88C128.415 314.449 128.052 314.979 127.63 315.46C127.178 315.955 126.652 316.377 126.07 316.71C125.605 317.014 125.073 317.2 124.52 317.25C124.132 317.285 123.746 317.17 123.44 316.93C123.13 316.669 122.907 316.32 122.8 315.93C122.648 315.437 122.564 314.926 122.55 314.41C122.55 313.98 122.55 313.52 122.55 313.01C122.55 312.5 122.55 312.01 122.55 311.55C122.575 310.94 122.659 310.334 122.8 309.74C122.938 309.129 123.153 308.537 123.44 307.98C123.728 307.41 124.091 306.882 124.52 306.41C124.965 305.909 125.488 305.483 126.07 305.15ZM127.36 311.54C127.4 310.607 127.4 309.707 127.36 308.84C127.353 308.608 127.323 308.376 127.27 308.15C127.243 307.98 127.171 307.821 127.06 307.69C127.014 307.634 126.956 307.59 126.89 307.561C126.824 307.531 126.752 307.517 126.68 307.52C126.462 307.532 126.252 307.601 126.07 307.72C125.845 307.851 125.643 308.016 125.47 308.21C125.312 308.398 125.181 308.607 125.08 308.83C124.983 309.058 124.913 309.296 124.87 309.54C124.82 309.801 124.789 310.065 124.78 310.33C124.74 311.25 124.74 312.15 124.78 313.03C124.788 313.265 124.814 313.499 124.86 313.73C124.889 313.901 124.965 314.06 125.08 314.19C125.129 314.245 125.189 314.288 125.256 314.318C125.324 314.347 125.396 314.361 125.47 314.36C125.683 314.342 125.888 314.273 126.07 314.16C126.516 313.905 126.867 313.512 127.07 313.04C127.171 312.814 127.242 312.575 127.28 312.33C127.333 312.07 127.359 311.805 127.36 311.54Z" fill="#37474F"/>
<path d="M132.999 312.16C132.999 312.287 132.965 312.411 132.899 312.52C132.854 312.63 132.773 312.721 132.669 312.78L131.089 313.7C131.056 313.725 131.016 313.739 130.975 313.739C130.933 313.739 130.893 313.725 130.859 313.7C130.826 313.668 130.801 313.629 130.785 313.586C130.77 313.542 130.764 313.496 130.769 313.45V311.35C130.772 311.222 130.803 311.095 130.859 310.98C130.912 310.874 130.991 310.785 131.089 310.72L132.669 309.81C132.703 309.785 132.743 309.771 132.784 309.771C132.826 309.771 132.866 309.785 132.899 309.81C132.936 309.84 132.964 309.879 132.982 309.922C132.999 309.966 133.005 310.013 132.999 310.06V312.16Z" fill="#37474F"/>
<path d="M136.22 307.37C136.274 307.438 136.334 307.502 136.4 307.56C136.471 307.63 136.556 307.685 136.65 307.72C136.765 307.741 136.884 307.741 137 307.72C137.17 307.694 137.334 307.633 137.48 307.54C137.656 307.435 137.821 307.311 137.97 307.17C138.122 307.017 138.259 306.849 138.38 306.67C138.497 306.482 138.591 306.281 138.66 306.07C138.729 305.854 138.763 305.627 138.76 305.4C138.779 305.264 138.759 305.124 138.702 304.999C138.646 304.873 138.555 304.766 138.44 304.69C138.292 304.648 138.137 304.641 137.986 304.669C137.835 304.696 137.693 304.758 137.57 304.85C137.452 304.919 137.345 305.003 137.25 305.1C137.151 305.195 137.058 305.295 136.97 305.4L136.74 305.67C136.682 305.733 136.619 305.79 136.55 305.84L134.67 307C134.635 307.026 134.593 307.04 134.55 307.04C134.506 307.04 134.464 307.026 134.43 307C134.395 306.969 134.37 306.93 134.356 306.886C134.342 306.842 134.34 306.795 134.35 306.75L134.71 300.8C134.719 300.671 134.753 300.546 134.81 300.43C134.858 300.328 134.935 300.241 135.03 300.18L140.2 297.18C140.232 297.153 140.273 297.139 140.315 297.139C140.357 297.139 140.397 297.153 140.43 297.18C140.463 297.212 140.488 297.251 140.504 297.295C140.519 297.338 140.525 297.384 140.52 297.43V299.14C140.517 299.265 140.486 299.388 140.43 299.5C140.378 299.606 140.298 299.695 140.2 299.76L136.69 301.76L136.6 303.25C136.75 303.049 136.917 302.862 137.1 302.69C137.288 302.514 137.496 302.36 137.72 302.23C138.117 301.983 138.558 301.816 139.02 301.74C139.359 301.68 139.71 301.729 140.02 301.88C140.334 302.056 140.578 302.335 140.71 302.67C140.886 303.143 140.967 303.646 140.95 304.15C140.952 304.78 140.861 305.407 140.68 306.01C140.504 306.6 140.252 307.165 139.93 307.69C139.619 308.204 139.246 308.678 138.82 309.1C138.406 309.507 137.942 309.86 137.44 310.15C136.995 310.431 136.498 310.621 135.98 310.71C135.613 310.783 135.232 310.741 134.89 310.59C134.586 310.443 134.342 310.196 134.2 309.89C134.028 309.538 133.943 309.151 133.95 308.76C133.95 308.656 133.974 308.553 134.02 308.46C134.067 308.377 134.132 308.305 134.21 308.25L135.74 307.37C135.782 307.337 135.83 307.313 135.882 307.3C135.933 307.286 135.987 307.283 136.04 307.29C136.105 307.302 136.167 307.329 136.22 307.37Z" fill="#37474F"/>
<path d="M141.8 300.07C141.801 299.441 141.903 298.817 142.1 298.22C142.291 297.616 142.557 297.038 142.89 296.5C143.211 295.978 143.59 295.495 144.02 295.06C144.412 294.671 144.852 294.335 145.33 294.06C145.737 293.818 146.184 293.652 146.65 293.57C147.032 293.501 147.427 293.55 147.78 293.71C148.129 293.877 148.408 294.16 148.57 294.51C148.788 294.983 148.891 295.5 148.87 296.02C148.869 296.325 148.843 296.629 148.79 296.93C148.739 297.22 148.672 297.507 148.59 297.79C148.5 298.06 148.41 298.34 148.3 298.61C148.19 298.88 148.09 299.14 147.99 299.39L145.7 304.95L145.56 305.22C145.517 305.335 145.431 305.428 145.32 305.48L143.4 306.59C143.33 306.59 143.27 306.59 143.23 306.59C143.183 306.53 143.159 306.456 143.16 306.38C143.154 306.334 143.154 306.286 143.16 306.24C143.16 306.24 143.16 306.16 143.16 306.13L144.71 302.35C144.35 302.491 143.967 302.566 143.58 302.57C143.244 302.576 142.913 302.482 142.63 302.3C142.34 302.098 142.115 301.817 141.98 301.49C141.821 301.035 141.76 300.551 141.8 300.07ZM146.64 297.28C146.646 297.1 146.608 296.922 146.53 296.76C146.469 296.634 146.367 296.532 146.24 296.47C146.107 296.416 145.962 296.399 145.82 296.42C145.647 296.447 145.48 296.508 145.33 296.6C145.154 296.709 144.993 296.84 144.85 296.99C144.691 297.151 144.55 297.328 144.43 297.52C144.31 297.711 144.212 297.916 144.14 298.13C144.07 298.34 144.033 298.559 144.03 298.78C144.025 298.963 144.062 299.144 144.14 299.31C144.202 299.434 144.304 299.533 144.43 299.59C144.562 299.648 144.708 299.666 144.85 299.64C145.021 299.614 145.184 299.553 145.33 299.46C145.513 299.361 145.679 299.233 145.82 299.08C145.979 298.919 146.12 298.742 146.24 298.55C146.361 298.355 146.458 298.147 146.53 297.93C146.6 297.72 146.637 297.501 146.64 297.28Z" fill="#37474F"/>
<path d="M155.77 294.7C155.77 295.78 156.58 296.19 157.58 295.61L160.75 293.78C161.266 293.458 161.7 293.019 162.015 292.497C162.329 291.976 162.516 291.387 162.56 290.78C162.56 289.7 161.75 289.29 160.75 289.87L157.58 291.69C157.062 292.014 156.629 292.455 156.314 292.978C156 293.501 155.813 294.091 155.77 294.7Z" fill="#37474F"/>
<path d="M166 288.82C166 289.9 166.81 290.31 167.8 289.74L170.97 287.91C171.486 287.587 171.918 287.147 172.233 286.626C172.547 286.105 172.735 285.517 172.78 284.91C172.78 283.83 171.97 283.42 170.97 283.99L167.8 285.82C167.287 286.145 166.856 286.585 166.544 287.106C166.231 287.627 166.045 288.214 166 288.82Z" fill="#37474F"/>
<path d="M176.12 283C176.12 284.08 176.93 284.49 177.93 283.91L181.09 282.09C181.606 281.767 182.039 281.327 182.353 280.806C182.667 280.285 182.855 279.697 182.9 279.09C182.9 278.01 182.09 277.6 181.09 278.18L177.93 280C177.414 280.323 176.982 280.763 176.667 281.284C176.353 281.805 176.165 282.393 176.12 283Z" fill="#37474F"/>
<path d="M186.29 277.08C186.29 278.16 187.1 278.57 188.1 277.99L191.27 276.16C191.784 275.836 192.215 275.396 192.527 274.874C192.84 274.353 193.026 273.766 193.07 273.16C193.07 272.08 192.26 271.67 191.27 272.25L188.1 274.08C187.583 274.402 187.15 274.841 186.835 275.363C186.52 275.884 186.334 276.473 186.29 277.08Z" fill="#37474F"/>
<path d="M170.46 300.72C169.912 300.456 169.31 300.324 168.702 300.334C168.095 300.345 167.498 300.497 166.96 300.78L106.15 335.89C105.623 336.233 105.185 336.695 104.871 337.239C104.556 337.783 104.374 338.393 104.34 339.02V350.51C104.315 351.128 104.46 351.74 104.758 352.282C105.057 352.823 105.497 353.273 106.033 353.582C106.568 353.891 107.178 354.047 107.796 354.035C108.414 354.022 109.017 353.841 109.54 353.51L170.35 318.4C170.876 318.057 171.314 317.595 171.628 317.051C171.943 316.507 172.125 315.897 172.16 315.27V303.78C172.137 303.172 171.972 302.578 171.676 302.046C171.381 301.514 170.964 301.06 170.46 300.72Z" fill="#E60014"/>
<path opacity="0.3" d="M170.46 300.72C169.912 300.456 169.31 300.324 168.702 300.334C168.095 300.345 167.498 300.497 166.96 300.78L106.15 335.89C105.623 336.233 105.185 336.695 104.871 337.239C104.556 337.783 104.374 338.393 104.34 339.02V350.51C104.315 351.128 104.46 351.74 104.758 352.282C105.057 352.823 105.497 353.273 106.033 353.582C106.568 353.891 107.178 354.047 107.796 354.035C108.414 354.022 109.017 353.841 109.54 353.51L170.35 318.4C170.876 318.057 171.314 317.595 171.628 317.051C171.943 316.507 172.125 315.897 172.16 315.27V303.78C172.137 303.172 171.972 302.578 171.676 302.046C171.381 301.514 170.964 301.06 170.46 300.72Z" fill="black"/>
<path d="M109.539 337.85L170.349 302.74C171.349 302.16 172.159 302.63 172.159 303.74V315.23C172.125 315.857 171.943 316.467 171.628 317.011C171.314 317.555 170.876 318.017 170.349 318.36L109.539 353.47C108.539 354.05 107.729 353.58 107.729 352.47V341C107.761 340.369 107.942 339.755 108.256 339.208C108.571 338.66 109.011 338.195 109.539 337.85Z" fill="#E60014"/>
<path d="M172.139 303.49C172.009 302.55 171.259 302.21 170.349 302.74L109.539 337.85C109.002 338.181 108.561 338.647 108.259 339.2L104.869 337.2C105.174 336.649 105.615 336.184 106.149 335.85L166.999 300.78C167.538 300.493 168.136 300.338 168.746 300.325C169.356 300.313 169.96 300.445 170.509 300.71C170.962 301.032 171.341 301.446 171.622 301.925C171.903 302.404 172.079 302.938 172.139 303.49Z" fill="#E60014"/>
<path opacity="0.5" d="M172.139 303.49C172.009 302.55 171.259 302.21 170.349 302.74L109.539 337.85C109.002 338.181 108.561 338.647 108.259 339.2L104.869 337.2C105.174 336.649 105.615 336.184 106.149 335.85L166.999 300.78C167.538 300.493 168.136 300.338 168.746 300.325C169.356 300.313 169.96 300.445 170.509 300.71C170.962 301.032 171.341 301.446 171.622 301.925C171.903 302.404 172.079 302.938 172.139 303.49Z" fill="white"/>
<path d="M114.61 338.52C114.73 338.447 114.82 338.447 114.88 338.52C114.938 338.571 114.983 338.637 115.01 338.71L117.01 345.14C117.02 345.193 117.02 345.247 117.01 345.3C117.007 345.377 116.987 345.452 116.95 345.52C116.919 345.586 116.87 345.641 116.81 345.68L115.68 346.33C115.56 346.4 115.47 346.42 115.42 346.38C115.374 346.346 115.342 346.296 115.33 346.24L115.07 345.38L112.68 346.77L112.43 347.91C112.409 347.998 112.375 348.082 112.33 348.16C112.273 348.267 112.186 348.354 112.08 348.41L110.94 349.07C110.919 349.085 110.895 349.093 110.87 349.093C110.844 349.093 110.82 349.085 110.8 349.07C110.779 349.051 110.762 349.028 110.752 349.002C110.741 348.976 110.737 348.948 110.74 348.92C110.735 348.85 110.735 348.78 110.74 348.71L112.74 340.02C112.775 339.904 112.818 339.79 112.87 339.68C112.936 339.56 113.032 339.461 113.15 339.39L114.61 338.52ZM113.15 344.61L114.61 343.76L113.88 341.31L113.15 344.61Z" fill="white"/>
<path d="M120.819 334.94C121.162 334.723 121.547 334.583 121.949 334.53C122.258 334.483 122.573 334.547 122.839 334.71C123.105 334.881 123.308 335.134 123.419 335.43C123.571 335.816 123.652 336.226 123.659 336.64C123.659 336.81 123.659 336.96 123.659 337.1V337.9C123.659 338.03 123.659 338.18 123.659 338.35C123.637 338.854 123.56 339.353 123.429 339.84C123.294 340.322 123.099 340.786 122.849 341.22C122.615 341.652 122.326 342.052 121.989 342.41C121.659 342.765 121.279 343.068 120.859 343.31L118.429 344.71C118.404 344.727 118.375 344.736 118.344 344.736C118.314 344.736 118.284 344.727 118.259 344.71C118.233 344.686 118.213 344.657 118.201 344.624C118.189 344.591 118.185 344.555 118.189 344.52V336.77C118.189 336.675 118.213 336.582 118.259 336.5C118.294 336.417 118.353 336.347 118.429 336.3L120.819 334.94ZM121.989 337.56C121.989 336.66 121.549 336.43 120.769 336.88L119.849 337.41V342L120.849 341.45C121.211 341.243 121.511 340.943 121.717 340.581C121.923 340.218 122.027 339.807 122.019 339.39C122.019 339.21 122.019 339.05 122.019 338.91V338C121.999 337.87 121.999 337.72 121.999 337.56H121.989Z" fill="white"/>
<path d="M127.769 330.92C128.116 330.704 128.504 330.564 128.909 330.51C129.214 330.473 129.523 330.536 129.789 330.69C130.058 330.86 130.265 331.113 130.379 331.41C130.531 331.799 130.612 332.212 130.619 332.63C130.619 332.79 130.619 332.94 130.619 333.08V333.88C130.619 334.02 130.619 334.17 130.619 334.33C130.6 334.835 130.519 335.335 130.379 335.82C130.241 336.303 130.05 336.769 129.809 337.21C129.569 337.641 129.277 338.041 128.939 338.4C128.613 338.751 128.235 339.051 127.819 339.29L125.389 340.7C125.319 340.7 125.269 340.7 125.219 340.7C125.193 340.676 125.173 340.647 125.161 340.614C125.149 340.58 125.145 340.545 125.149 340.51V332.76C125.148 332.665 125.173 332.572 125.219 332.49C125.254 332.41 125.313 332.343 125.389 332.3L127.769 330.92ZM128.949 333.54C128.949 332.64 128.509 332.41 127.729 332.86L126.809 333.39V338L127.809 337.45C128.175 337.247 128.479 336.948 128.687 336.585C128.895 336.222 129 335.808 128.989 335.39C128.989 335.22 128.989 335.06 128.989 334.91V334C128.999 333.86 128.999 333.7 128.999 333.54H128.949Z" fill="white"/>
<path d="M138.87 324.51C138.893 324.49 138.923 324.478 138.955 324.478C138.986 324.478 139.016 324.49 139.04 324.51C139.066 324.534 139.086 324.563 139.098 324.596C139.11 324.63 139.114 324.665 139.11 324.7V326C139.11 326.095 139.086 326.188 139.04 326.27C139.002 326.348 138.943 326.414 138.87 326.46L137.29 327.38V333.53C137.286 333.625 137.259 333.718 137.21 333.8C137.176 333.883 137.116 333.953 137.04 334L135.86 334.68C135.835 334.699 135.805 334.709 135.775 334.709C135.744 334.709 135.714 334.699 135.69 334.68C135.664 334.656 135.644 334.627 135.631 334.594C135.619 334.561 135.615 334.525 135.62 334.49V328.34L134.04 329.25C134.015 329.267 133.985 329.276 133.955 329.276C133.924 329.276 133.895 329.267 133.87 329.25C133.842 329.227 133.821 329.197 133.807 329.164C133.793 329.132 133.787 329.096 133.79 329.06V327.79C133.793 327.695 133.82 327.602 133.87 327.52C133.903 327.437 133.963 327.367 134.04 327.32L138.87 324.51Z" fill="white"/>
<path d="M140.059 327C140.074 326.529 140.148 326.062 140.279 325.61C140.542 324.661 141.025 323.787 141.689 323.06C142.028 322.691 142.423 322.377 142.859 322.13C143.214 321.899 143.618 321.755 144.039 321.71C144.339 321.674 144.642 321.741 144.899 321.9C145.152 322.078 145.344 322.329 145.449 322.62C145.586 322.985 145.661 323.37 145.669 323.76C145.669 324.09 145.669 324.45 145.669 324.82C145.669 325.19 145.669 325.56 145.669 325.89C145.65 326.36 145.576 326.827 145.449 327.28C145.322 327.754 145.137 328.211 144.899 328.64C144.664 329.075 144.375 329.478 144.039 329.84C143.689 330.201 143.292 330.514 142.859 330.77C142.503 330.99 142.104 331.133 141.689 331.19C141.388 331.228 141.083 331.157 140.829 330.99C140.575 330.814 140.382 330.562 140.279 330.27C140.137 329.907 140.063 329.52 140.059 329.13C140.059 328.81 140.059 328.46 140.059 328.13C140.059 327.8 140.049 327.31 140.059 327ZM144.009 326.79C144.009 326.65 144.009 326.48 144.009 326.3C144.009 326.12 144.009 325.94 144.009 325.76C144.009 325.58 144.009 325.4 144.009 325.23C144.009 325.06 144.009 324.91 144.009 324.78C144.001 324.609 143.967 324.441 143.909 324.28C143.871 324.159 143.798 324.051 143.699 323.97C143.597 323.899 143.474 323.863 143.349 323.87C143.174 323.893 143.007 323.954 142.859 324.05C142.681 324.151 142.519 324.279 142.379 324.43C142.245 324.583 142.127 324.751 142.029 324.93C141.939 325.108 141.868 325.296 141.819 325.49C141.77 325.691 141.737 325.894 141.719 326.1C141.719 326.24 141.719 326.4 141.719 326.57V327.65C141.719 327.82 141.719 327.98 141.719 328.11C141.713 328.413 141.824 328.707 142.029 328.93C142.219 329.09 142.489 329.06 142.859 328.85C143.22 328.649 143.51 328.342 143.689 327.97C143.872 327.588 143.978 327.173 143.999 326.75L144.009 326.79Z" fill="white"/>
<path d="M149.78 326.61C149.755 326.627 149.725 326.636 149.695 326.636C149.664 326.636 149.635 326.627 149.61 326.61C149.583 326.587 149.561 326.557 149.547 326.525C149.533 326.492 149.527 326.456 149.53 326.42V318.67C149.533 318.575 149.561 318.482 149.61 318.4C149.644 318.317 149.703 318.247 149.78 318.2L152.68 316.53C152.981 316.335 153.323 316.211 153.68 316.17C153.797 316.155 153.916 316.164 154.029 316.197C154.143 316.23 154.248 316.285 154.34 316.36C154.52 316.517 154.646 316.727 154.7 316.96C154.811 317.444 154.811 317.946 154.7 318.43C154.663 318.609 154.616 318.786 154.56 318.96C154.515 319.095 154.458 319.225 154.39 319.35C154.35 319.44 154.303 319.527 154.25 319.61C154.362 319.643 154.464 319.702 154.549 319.782C154.634 319.862 154.7 319.961 154.74 320.07C154.848 320.375 154.896 320.697 154.88 321.02C154.879 321.356 154.845 321.691 154.78 322.02C154.699 322.366 154.578 322.702 154.42 323.02C154.255 323.382 154.039 323.718 153.78 324.02C153.492 324.334 153.154 324.597 152.78 324.8L149.78 326.61ZM153.14 318.82C153.14 318.61 153.14 318.47 153 318.4C152.86 318.33 152.78 318.34 152.59 318.45L151.2 319.25V320.62L152.59 319.82C152.767 319.722 152.91 319.572 153 319.39C153.096 319.216 153.145 319.019 153.14 318.82ZM151.2 323.93L152.69 323.08C152.869 322.965 153.017 322.807 153.12 322.62C153.219 322.428 153.274 322.216 153.28 322C153.288 321.921 153.278 321.841 153.25 321.766C153.222 321.692 153.178 321.625 153.12 321.57C153.056 321.528 152.981 321.505 152.905 321.505C152.828 321.505 152.754 321.528 152.69 321.57L151.2 322.43V323.93Z" fill="white"/>
<path d="M159.599 312.55C159.719 312.483 159.809 312.483 159.869 312.55C159.932 312.597 159.978 312.664 159.999 312.74L161.999 319.16C162.01 319.213 162.01 319.267 161.999 319.32C161.999 319.397 161.979 319.473 161.939 319.54C161.912 319.608 161.863 319.664 161.799 319.7L160.669 320.36C160.549 320.43 160.459 320.44 160.409 320.36C160.362 320.327 160.33 320.277 160.319 320.22L160.069 319.37L157.669 320.75L157.419 321.89C157.403 321.982 157.369 322.071 157.319 322.15C157.26 322.255 157.174 322.341 157.069 322.4L155.929 323.05C155.909 323.065 155.884 323.073 155.859 323.073C155.834 323.073 155.81 323.065 155.789 323.05C155.771 323.002 155.771 322.948 155.789 322.9C155.783 322.834 155.783 322.767 155.789 322.7L157.789 314.01C157.821 313.893 157.865 313.779 157.919 313.67C157.983 313.548 158.08 313.448 158.199 313.38L159.599 312.55ZM158.139 318.63L159.599 317.79L158.869 315.33L158.139 318.63Z" fill="white"/>
<path d="M165.61 310.88C165.416 310.98 165.243 311.116 165.1 311.28C164.965 311.435 164.851 311.606 164.76 311.79C164.671 311.964 164.607 312.149 164.57 312.34C164.522 312.531 164.488 312.724 164.47 312.92C164.47 313.03 164.47 313.18 164.47 313.37V313.94C164.47 314.14 164.47 314.33 164.47 314.51C164.47 314.69 164.47 314.84 164.47 314.94C164.487 315.102 164.517 315.263 164.56 315.42C164.597 315.545 164.666 315.659 164.76 315.75C164.856 315.826 164.978 315.861 165.1 315.85C165.283 315.838 165.459 315.776 165.61 315.67C165.769 315.582 165.916 315.474 166.05 315.35C166.191 315.222 166.312 315.074 166.41 314.91C166.515 314.739 166.596 314.554 166.65 314.36C166.712 314.146 166.742 313.923 166.74 313.7L165.99 314.14C165.964 314.155 165.934 314.163 165.905 314.163C165.875 314.163 165.845 314.155 165.82 314.14C165.792 314.117 165.771 314.088 165.757 314.055C165.743 314.022 165.737 313.986 165.74 313.95V312.68C165.743 312.585 165.77 312.492 165.82 312.41C165.851 312.328 165.912 312.261 165.99 312.22L168.16 310.96C168.186 310.941 168.217 310.93 168.25 310.93C168.282 310.93 168.314 310.941 168.34 310.96C168.364 310.983 168.382 311.011 168.394 311.042C168.406 311.073 168.412 311.107 168.41 311.14V312.68C168.412 313.188 168.337 313.694 168.19 314.18C168.051 314.666 167.853 315.133 167.6 315.57C167.349 315.99 167.05 316.379 166.71 316.73C166.386 317.068 166.015 317.357 165.61 317.59C165.259 317.814 164.863 317.954 164.45 318C164.145 318.036 163.838 317.966 163.58 317.8C163.323 317.627 163.129 317.374 163.03 317.08C162.893 316.722 162.819 316.343 162.81 315.96C162.81 315.64 162.81 315.29 162.81 314.96C162.81 314.63 162.81 314.22 162.81 313.87C162.822 313.402 162.896 312.938 163.03 312.49C163.294 311.536 163.78 310.659 164.45 309.93C164.785 309.564 165.176 309.253 165.61 309.01C165.951 308.791 166.337 308.651 166.74 308.6C167.033 308.562 167.331 308.607 167.6 308.73C167.83 308.841 168.021 309.019 168.15 309.24C168.279 309.462 168.351 309.713 168.36 309.97C168.366 310.047 168.349 310.124 168.31 310.19C168.276 310.257 168.224 310.312 168.16 310.35L167 311C166.91 311.05 166.84 311.06 166.79 311L166.64 310.87C166.548 310.774 166.429 310.708 166.3 310.68C166.053 310.659 165.807 310.73 165.61 310.88Z" fill="white"/>
<path d="M192.05 250.36C191.723 250.195 191.361 250.109 190.995 250.109C190.628 250.109 190.267 250.195 189.94 250.36L157.39 269.16C157.073 269.366 156.809 269.643 156.62 269.97C156.43 270.296 156.321 270.663 156.3 271.04V278.32C156.269 278.698 156.345 279.076 156.521 279.412C156.697 279.747 156.964 280.026 157.292 280.216C157.62 280.405 157.995 280.498 158.373 280.483C158.752 280.468 159.118 280.345 159.43 280.13L192 261.38C192.316 261.172 192.58 260.892 192.769 260.564C192.958 260.236 193.068 259.868 193.09 259.49V252.21C193.074 251.842 192.972 251.482 192.792 251.16C192.611 250.839 192.357 250.565 192.05 250.36Z" fill="#263238"/>
<path d="M193.06 252C192.97 251.45 192.52 251.26 191.98 251.57L178.41 259.41L159.41 270.36C159.09 270.567 158.826 270.848 158.64 271.18L156.64 270C156.823 269.666 157.088 269.384 157.41 269.18L189.96 250.39C190.257 250.189 190.603 250.071 190.962 250.05C191.32 250.029 191.678 250.105 191.997 250.269C192.317 250.434 192.585 250.682 192.776 250.986C192.966 251.291 193.071 251.641 193.08 252H193.06Z" fill="#455A64"/>
<path d="M158.34 272.26V279.54C158.34 280.24 158.83 280.54 159.43 280.17L192 261.38C192.316 261.172 192.58 260.892 192.769 260.564C192.958 260.236 193.068 259.868 193.09 259.49V252.21C193.09 251.52 192.6 251.21 192 251.58L159.45 270.38C159.129 270.583 158.862 270.86 158.669 271.186C158.476 271.513 158.363 271.881 158.34 272.26Z" fill="#37474F"/>
<path d="M163.88 269.9L164.41 271.03C164.415 271.047 164.424 271.062 164.436 271.075C164.448 271.088 164.462 271.098 164.479 271.105C164.495 271.111 164.512 271.114 164.53 271.114C164.547 271.113 164.564 271.108 164.58 271.1L165.77 270.65C165.96 270.57 166.03 270.84 165.9 271.1L165.04 272.71C164.985 272.804 164.96 272.912 164.97 273.02L165.17 274.48C165.17 274.71 165.01 275.02 164.84 275L163.78 274.87C163.737 274.872 163.694 274.883 163.656 274.904C163.618 274.925 163.585 274.954 163.56 274.99L162.5 276.35C162.33 276.57 162.13 276.49 162.16 276.22L162.37 274.52C162.38 274.479 162.378 274.436 162.366 274.396C162.354 274.355 162.331 274.319 162.3 274.29L161.44 273.67C161.3 273.57 161.38 273.22 161.57 273.07L162.76 272.15C162.843 272.084 162.902 271.993 162.93 271.89L163.46 270.14C163.55 269.87 163.79 269.73 163.88 269.9Z" fill="#E60014"/>
<path d="M169.89 266.46L170.43 267.59C170.443 267.622 170.468 267.647 170.5 267.66C170.532 267.673 170.568 267.673 170.6 267.66L171.79 267.2C171.98 267.13 172.05 267.39 171.92 267.65L171.06 269.26C171.006 269.354 170.981 269.462 170.99 269.57L171.19 271.04C171.19 271.27 171.03 271.57 170.86 271.55L169.8 271.42C169.755 271.421 169.711 271.433 169.672 271.456C169.634 271.479 169.602 271.511 169.58 271.55L168.52 272.9C168.35 273.12 168.15 273.04 168.18 272.77L168.39 271.08C168.397 271.037 168.395 270.993 168.383 270.952C168.371 270.91 168.349 270.872 168.32 270.84L167.46 270.22C167.32 270.12 167.4 269.77 167.59 269.63L168.78 268.71C168.861 268.638 168.92 268.544 168.95 268.44L169.48 266.7C169.57 266.42 169.81 266.28 169.89 266.46Z" fill="#E60014"/>
<path d="M175.91 263L176.45 264.13C176.455 264.147 176.464 264.162 176.476 264.175C176.488 264.188 176.503 264.198 176.519 264.205C176.535 264.211 176.552 264.214 176.57 264.214C176.587 264.213 176.605 264.208 176.62 264.2L177.81 263.74C178 263.67 178.07 263.94 177.94 264.19L177.07 265.81C177.022 265.906 177.002 266.013 177.01 266.12L177.21 267.58C177.21 267.81 177.05 268.12 176.88 268.1L175.81 267.97C175.768 267.971 175.726 267.982 175.69 268.003C175.653 268.024 175.622 268.054 175.6 268.09L174.54 269.45C174.37 269.66 174.17 269.59 174.2 269.32L174.41 267.62C174.418 267.579 174.415 267.536 174.403 267.496C174.391 267.456 174.369 267.42 174.34 267.39L173.48 266.77C173.34 266.67 173.42 266.32 173.61 266.17L174.8 265.25C174.889 265.188 174.959 265.101 175 265L175.53 263.26C175.59 263 175.83 262.83 175.91 263Z" fill="#E60014"/>
<path d="M181.93 259.57L182.46 260.7C182.467 260.716 182.478 260.731 182.491 260.743C182.504 260.754 182.52 260.763 182.537 260.769C182.553 260.775 182.571 260.777 182.589 260.775C182.607 260.774 182.624 260.769 182.64 260.76L183.83 260.31C184.02 260.24 184.09 260.5 183.95 260.76L183.09 262.37C183.037 262.464 183.016 262.573 183.03 262.68L183.23 264.14C183.23 264.38 183.07 264.68 182.9 264.66L181.83 264.53C181.788 264.532 181.747 264.544 181.71 264.565C181.674 264.586 181.643 264.615 181.62 264.65L180.56 266C180.39 266.22 180.19 266.14 180.22 265.87L180.42 264.18C180.431 264.138 180.432 264.094 180.421 264.052C180.411 264.01 180.39 263.971 180.36 263.94L179.5 263.32C179.36 263.22 179.44 262.87 179.63 262.72L180.81 261.81C180.894 261.739 180.956 261.645 180.99 261.54L181.52 259.8C181.6 259.53 181.85 259.39 181.93 259.57Z" fill="#E60014"/>
<path d="M188 256.12L188.53 257.25C188.546 257.283 188.573 257.308 188.606 257.321C188.64 257.334 188.677 257.334 188.71 257.32L189.9 256.86C190.08 256.79 190.16 257.06 190.02 257.31L189.16 258.93C189.107 259.024 189.086 259.133 189.1 259.24L189.3 260.7C189.3 260.93 189.13 261.24 188.97 261.21L187.9 261.08C187.857 261.083 187.816 261.096 187.779 261.119C187.742 261.141 187.712 261.173 187.69 261.21L186.62 262.57C186.46 262.78 186.26 262.71 186.29 262.44L186.49 260.74C186.502 260.7 186.503 260.657 186.492 260.617C186.482 260.576 186.46 260.539 186.43 260.51L185.57 259.88C185.43 259.79 185.51 259.43 185.69 259.29L186.88 258.37C186.964 258.299 187.027 258.205 187.06 258.1L187.59 256.36C187.62 256.08 187.87 255.94 188 256.12Z" fill="#E60014"/>
<path d="M191.34 287.9C190.78 287.634 190.166 287.502 189.547 287.515C188.927 287.527 188.319 287.683 187.77 287.97L177.62 293.83C177.083 294.179 176.635 294.65 176.314 295.204C175.993 295.758 175.806 296.38 175.77 297.02V308.74C175.746 309.37 175.895 309.995 176.2 310.547C176.505 311.099 176.955 311.558 177.501 311.874C178.047 312.189 178.669 312.35 179.299 312.339C179.93 312.328 180.546 312.145 181.08 311.81L191.23 306C191.767 305.649 192.213 305.176 192.533 304.62C192.852 304.064 193.036 303.44 193.07 302.8V291C193.044 290.384 192.874 289.783 192.574 289.244C192.273 288.706 191.851 288.245 191.34 287.9Z" fill="#E0E0E0"/>
<path d="M181.08 295.83L191.23 290C192.23 289.41 193.07 289.88 193.07 291.06V302.78C193.037 303.42 192.853 304.044 192.533 304.6C192.213 305.156 191.767 305.629 191.23 305.98L181.08 311.84C180.08 312.43 179.23 311.95 179.23 310.77V299C179.267 298.363 179.454 297.744 179.776 297.193C180.097 296.643 180.544 296.175 181.08 295.83Z" fill="white"/>
<path d="M193.05 290.73C192.92 289.73 192.16 289.42 191.23 289.96L181.08 295.82C180.533 296.161 180.082 296.636 179.77 297.2L176.31 295.2C176.622 294.639 177.073 294.167 177.62 293.83L187.77 288C188.319 287.714 188.928 287.56 189.548 287.55C190.167 287.539 190.781 287.673 191.34 287.94C191.809 288.254 192.204 288.667 192.5 289.148C192.795 289.63 192.982 290.169 193.05 290.73Z" fill="#F0F0F0"/>
<path d="M181.439 302.25C181.451 301.303 181.652 300.368 182.029 299.5C182.368 298.588 182.979 297.802 183.779 297.25C184.979 296.54 185.979 297.98 186.139 299.67C186.289 297.8 187.269 295.2 188.469 294.5C188.731 294.298 189.059 294.204 189.388 294.235C189.717 294.267 190.021 294.422 190.239 294.67C190.683 295.262 190.899 295.993 190.849 296.73C190.849 299.59 189.139 302.19 187.699 304.92L186.139 307.56L184.639 306.72C183.189 305.68 181.459 305.12 181.439 302.25Z" fill="#E60014"/>
<path d="M280.82 207.46L282.41 224L297.2 223.08L296.02 204.74L280.82 207.46Z" fill="#FFA8A7"/>
<path d="M262.35 175.54C262.179 174.738 262.092 173.92 262.09 173.1C262.052 172.122 262.265 171.151 262.71 170.28C263.93 168.14 266.28 168.14 268.42 168.17C272.666 168.296 276.897 167.617 280.89 166.17C282.53 165.55 284.11 164.76 285.76 164.17C289.93 162.67 294.76 162.43 298.7 164.38C300.139 165.081 301.416 166.075 302.449 167.297C303.482 168.52 304.249 169.944 304.7 171.48C305.1 172.94 304.93 174.42 305.21 175.89C305.56 177.69 306.32 179.38 306.65 181.19C306.973 183.141 307.157 185.113 307.2 187.09C307.52 195.26 288.56 200.57 288.93 206.17L278.83 193.87C278.83 193.36 277.4 192.09 277.08 191.66C276.47 190.85 275.93 189.98 275.38 189.13C274.329 187.564 272.968 186.23 271.38 185.21C269.89 184.21 268.19 183.61 266.77 182.52C264.528 180.78 262.965 178.311 262.35 175.54Z" fill="#263238"/>
<path d="M269.85 189.3C269.85 189.3 266.58 194.17 267.01 194.68C267.777 195.182 268.626 195.544 269.52 195.75L269.85 189.3Z" fill="#F28F8F"/>
<path d="M279.859 173.88C276.679 175.5 271.18 178.49 269.76 190.01C268.31 201.85 270.99 206.01 272.63 207.51C273.74 208.51 279.45 208.93 282.44 208.02C286.17 206.89 294.25 202.96 298.04 196.85C302.5 189.67 303.419 180.09 298.269 176.34C290.999 171.06 282.559 172.52 279.859 173.88Z" fill="#FFA8A7"/>
<path d="M272.939 207.72C274.279 208.46 278.079 208.72 280.939 208.35L280.859 206.22C279.642 206.751 278.376 207.163 277.079 207.45C275.721 207.748 274.325 207.839 272.939 207.72Z" fill="#F28F8F"/>
<path d="M278.46 173.53C277.114 174.027 275.862 174.751 274.76 175.67C274.208 176.129 273.761 176.702 273.45 177.35C273.201 177.954 273.108 178.611 273.18 179.26C273.277 180.147 273.606 180.994 274.132 181.715C274.658 182.436 275.364 183.007 276.18 183.37C275.756 183.958 275.465 184.631 275.327 185.342C275.188 186.053 275.207 186.786 275.38 187.49C275.964 189.121 276.968 190.57 278.29 191.69C278.357 191.769 278.443 191.831 278.54 191.87C278.633 191.88 278.727 191.871 278.816 191.843C278.906 191.816 278.989 191.771 279.06 191.71C281.06 190.37 282.29 188.06 285.12 188.99C288.83 190.21 289.03 193.81 286.84 196.99C286.472 197.618 285.972 198.157 285.375 198.572C284.777 198.987 284.096 199.266 283.38 199.39C282.968 199.461 282.546 199.439 282.145 199.325C281.743 199.21 281.372 199.007 281.06 198.73C281.06 198.73 281.68 205.57 286.87 207.94C286.87 207.94 292.96 209.32 296.2 207.21C298.15 204.73 301.44 201.55 304.14 198.71C313.04 189.35 313.55 175.76 300.42 171.47C299.97 171.32 299.51 171.18 299.05 171.06C292.701 169.422 285.979 170.059 280.05 172.86C279.47 173.11 279 173.32 278.46 173.53Z" fill="#263238"/>
<path d="M278 195.86C277.657 195.741 277.342 195.555 277.071 195.314C276.801 195.072 276.581 194.779 276.424 194.451C276.268 194.124 276.178 193.768 276.161 193.406C276.143 193.044 276.197 192.681 276.32 192.34C276.583 191.649 277.106 191.089 277.777 190.779C278.448 190.469 279.214 190.433 279.91 190.68L278 195.86Z" fill="#263238"/>
<path d="M304.28 174.32C304.535 174.514 304.826 174.656 305.136 174.737C305.445 174.818 305.768 174.837 306.086 174.792C306.403 174.748 306.708 174.641 306.983 174.477C307.259 174.314 307.499 174.097 307.69 173.84C308.073 173.311 308.233 172.654 308.136 172.009C308.038 171.364 307.692 170.782 307.17 170.39L304.28 174.32Z" fill="#263238"/>
<path d="M298.8 215.8C309.89 216.42 310.87 218.28 314.16 226.29C317.45 234.3 322.65 254.61 324 260C324.61 262.4 306.4 285.16 307.06 284.84C307.26 284.74 301.13 274.49 301.13 274.49L309.31 259.19L304.43 246.19L298.8 215.8Z" fill="#FFA8A7"/>
<path d="M309.75 286.56C309.179 281.599 307.702 276.786 305.39 272.36L287.6 304.23L284.49 315.49C284.49 315.49 284.7 341.29 285.1 347.49C285.5 353.69 289.64 403.87 289.64 403.87L290.39 413.78C297.39 415.73 298.88 413.88 298.95 412.35C299.02 410.82 299.79 404.7 299.79 404.7C299.79 404.7 301.41 404.09 301.79 401.47C302 400.07 300.54 397.05 300.79 394.89C302.11 383.76 305.26 366.81 305.45 363.22C305.762 356.963 304.676 350.715 302.27 344.93C303.68 332 311.77 304 309.75 286.56Z" fill="#FFA8A7"/>
<path d="M289.64 403.85L290.39 413.76C297.39 415.71 298.88 413.86 298.95 412.33C298.95 411.98 299.02 411.38 299.09 410.67C297.96 413.21 295.64 412.47 294.31 408.85C292.98 405.23 287.17 373.69 287.17 373.69C288.37 388.47 289.64 403.85 289.64 403.85Z" fill="#F28F8F"/>
<path d="M285.52 427.2C285.52 427.2 286.59 429.07 292.37 426.64C298.15 424.21 299.78 421.32 299.78 421.32C299.78 421.32 298.28 409.71 294.7 412.63C291.12 415.55 285.52 427.2 285.52 427.2Z" fill="#E60014"/>
<path opacity="0.3" d="M285.52 427.2C285.52 427.2 286.59 429.07 292.37 426.64C298.15 424.21 299.78 421.32 299.78 421.32C299.78 421.32 298.28 409.71 294.7 412.63C291.12 415.55 285.52 427.2 285.52 427.2Z" fill="black"/>
<path d="M301.12 398.55C299.94 397.92 296.8 399.22 294.95 400.82C292.52 402.91 291.95 405.74 290.69 409.07C289.36 412.62 286.95 417.5 285 418.59C283.05 419.68 279.49 418.67 276.55 418.65C273.61 418.63 271.34 419.98 271.17 422.13C271.09 423.81 278.73 427.69 283.56 427.89C287.56 428.05 288.93 428.73 291.14 422.89C293.35 417.05 294.2 413.73 295.96 417.71C297.72 421.69 298.45 430.71 298.45 430.71C299.122 430.956 299.862 430.939 300.522 430.663C301.182 430.386 301.713 429.871 302.01 429.22C301.982 426.603 302.129 423.987 302.45 421.39C302.95 417.79 304.87 412.12 304.62 407.78C304.37 403.44 302.29 399.13 301.12 398.55Z" fill="#263238"/>
<path d="M303.329 273.68L261.41 286.45C261.41 286.45 257.21 332.08 257.32 345.98C257.39 355.77 257.91 356.75 259.54 360.45C261.47 364.8 263.15 369.27 264.88 373.7C267.57 380.57 278.24 406.29 277.88 409.79C277.66 412.21 275.03 418.87 273.69 423.17C272.35 427.47 268.92 427.61 268.92 427.61C268.92 427.61 274.339 431.34 277.579 430.55C279.989 429.97 280.719 426.92 281.579 424.95C282.798 422.331 284.881 420.212 287.48 418.95C288.554 418.415 289.587 417.8 290.57 417.11C291.554 416.405 292.281 415.397 292.64 414.24C293.1 412.47 292.31 410.65 291.54 408.99L290.23 406.2C289.566 404.774 289.089 403.268 288.809 401.72C288.039 397.45 287.419 393.14 286.739 388.85C285.949 383.85 285.16 378.75 284.29 373.72C283.865 370.415 283.196 367.146 282.29 363.94C280.782 359.81 278.816 355.862 276.429 352.17L287.609 304.24C301.109 300.24 305.519 294.46 307.079 286.24C308.349 279.48 305.849 277.8 303.329 273.68Z" fill="#FFA8A7"/>
<path d="M261.169 365.38C256.709 356.03 255.489 350.38 257.319 330.74C259.149 311.1 261.169 285.79 261.169 285.79L305.999 271.55C309.289 279.3 311.719 290.09 311.239 299.08C310.759 308.07 303.689 344.24 303.689 344.24C304.539 347.773 305.206 351.348 305.689 354.95C306.075 358.5 306.142 362.078 305.889 365.64C305.589 370.26 303.009 382.83 303.009 382.83C300.817 383.911 298.359 384.338 295.929 384.06C292.999 383.704 290.155 382.831 287.529 381.48C287.529 381.48 286.299 365.69 285.809 362.14C285.319 358.59 284.809 352.35 284.539 347.72C284.199 341.72 284.539 319.72 284.539 319.72L277.359 351.34L280.569 357.15C283.329 362.54 285.679 375.2 286.569 384.26C286.569 384.26 284.569 386.5 279.699 387.85C276.677 388.557 273.567 388.813 270.469 388.61C270.469 388.61 263.109 369.78 261.169 365.38Z" fill="#37474F"/>
<path d="M284.49 319.69L287.92 305.69C287.92 305.69 299.66 304.19 305.84 295.99C305.84 295.99 301.84 307.05 290.72 307.84L285.51 319.52L284.38 329.59L284.49 319.69Z" fill="#263238"/>
<path d="M275.42 435.73C275.42 435.73 276.49 437.61 282.27 435.18C288.05 432.75 289.68 429.86 289.68 429.86C289.68 429.86 288.18 418.25 284.6 421.17C281.02 424.09 275.42 435.73 275.42 435.73Z" fill="#E60014"/>
<path opacity="0.3" d="M275.42 435.73C275.42 435.73 276.49 437.61 282.27 435.18C288.05 432.75 289.68 429.86 289.68 429.86C289.68 429.86 288.18 418.25 284.6 421.17C281.02 424.09 275.42 435.73 275.42 435.73Z" fill="black"/>
<path d="M291 407.08C289.82 406.46 286.67 407.76 284.82 409.35C282.39 411.45 281.82 414.28 280.56 417.6C279.23 421.15 276.82 426.03 274.87 427.12C272.92 428.21 269.36 427.2 266.42 427.19C263.48 427.18 261.21 428.52 261.04 430.66C260.96 432.35 268.6 436.23 273.43 436.42C277.43 436.59 278.8 437.27 281.02 431.42C283.24 425.57 284.07 422.25 285.83 426.24C287.59 430.23 288.32 439.24 288.32 439.24C288.993 439.481 289.733 439.463 290.393 439.187C291.054 438.911 291.588 438.399 291.89 437.75C291.856 435.133 292 432.517 292.32 429.92C292.82 426.31 294.74 420.64 294.49 416.3C294.24 411.96 292.19 407.67 291 407.08Z" fill="#263238"/>
<path d="M307.409 221.94C306.239 217.72 304.609 215.8 299.349 215.83L296.719 215.67C296.399 217.67 285.559 218.29 281.579 215.36C280.459 215.31 276.469 215.58 274.179 215.8L273.489 217.62C271.489 220.05 264.279 224.07 258.929 239.33C258.295 241.55 258.429 243.919 259.309 246.053C260.19 248.188 261.765 249.962 263.779 251.09C263.639 254.47 263.929 254.41 266.699 265.39L261.279 282.84C261.279 282.84 271.449 289.01 288.109 287.72C303.009 286.57 310.039 278.21 309.469 279.3C309.469 279.3 306.899 274.49 302.099 263.35L303.199 258.44L304.939 250.92C309.099 234.94 308.999 227.56 307.409 221.94Z" fill="#455A64"/>
<path d="M303.36 262.49C299.84 267.49 278.02 273.05 266.56 265.54C266.56 265.54 248.36 291.69 245.43 315.16C245.43 315.16 259.88 332.74 293.24 328.63C317.58 325.63 325.86 310.46 325.86 310.46C323.912 299.688 320.245 289.298 315 279.69C311.91 274.11 304.88 267.66 303.36 262.49Z" fill="#E60014"/>
<path opacity="0.1" d="M303.36 262.49C299.84 267.49 278.02 273.05 266.56 265.54C266.56 265.54 248.36 291.69 245.43 315.16C245.43 315.16 259.88 332.74 293.24 328.63C317.58 325.63 325.86 310.46 325.86 310.46C323.912 299.688 320.245 289.298 315 279.69C311.91 274.11 304.88 267.66 303.36 262.49Z" fill="black"/>
<path d="M309.48 325.63L307.2 325.11C307.2 325.11 304.95 294.11 292.2 267L293.79 266.61C293.79 266.61 303.21 283.67 308.09 300.18C312.97 316.69 309.48 325.63 309.48 325.63Z" fill="#E60014"/>
<path opacity="0.2" d="M309.48 325.63L307.2 325.11C307.2 325.11 304.95 294.11 292.2 267L293.79 266.61C293.79 266.61 303.21 283.67 308.09 300.18C312.97 316.69 309.48 325.63 309.48 325.63Z" fill="black"/>
<path d="M271.34 330.92L273.05 328.48C273.05 328.48 272.5 285.06 276.65 268.13L275.55 268.01C275.55 268.01 268.07 291.64 271.34 330.92Z" fill="#E60014"/>
<path opacity="0.2" d="M271.34 330.92L273.05 328.48C273.05 328.48 272.5 285.06 276.65 268.13L275.55 268.01C275.55 268.01 268.07 291.64 271.34 330.92Z" fill="black"/>
<path d="M271.29 328.18C271.29 329.93 271.29 330.92 271.29 330.92C254.08 328.92 250.85 322.78 250.85 322.78C251 321.93 251.14 321.08 251.29 320.22C256.46 291.37 269.73 266.7 269.73 266.7C271.604 267.331 273.537 267.769 275.5 268.01C271.05 281.91 271.16 318 271.29 328.18Z" fill="#E60014"/>
<path opacity="0.3" d="M271.29 328.18C271.29 329.93 271.29 330.92 271.29 330.92C254.08 328.92 250.85 322.78 250.85 322.78C251 321.93 251.14 321.08 251.29 320.22C256.46 291.37 269.73 266.7 269.73 266.7C271.604 267.331 273.537 267.769 275.5 268.01C271.05 281.91 271.16 318 271.29 328.18Z" fill="#E60014"/>
<path d="M299.11 328.84C289.25 333.32 278.77 331.19 278.77 331.19C278.77 330.49 278.71 329.79 278.69 329.1C277.69 301.41 281.69 274.1 282.55 268.29C284.283 268.224 286.012 268.07 287.73 267.83C295.81 289.45 298.53 321.08 299.03 327.63C299.08 328.42 299.11 328.84 299.11 328.84Z" fill="#E60014"/>
<path d="M323 316.81C317.53 322.72 309.45 325.63 309.45 325.63C309.45 325.14 309.4 324.63 309.38 324.16C307.9 299.42 295.3 270.09 293.78 266.61C295.436 266.179 297.06 265.634 298.64 264.98C312.64 275.98 320.64 306.58 322.54 314.77C322.87 316.08 323 316.81 323 316.81Z" fill="#E60014"/>
<path d="M265.479 260.64C265.789 262.21 266.149 264.51 266.479 265.64C266.479 265.64 273.189 269.64 284.549 269.16C295.909 268.68 302.189 265.8 303.339 262.52L303.179 258.47C297.869 264.91 277.609 268 265.479 260.64Z" fill="#37474F"/>
<path d="M232 240.49C229.94 238.13 229.589 232.92 226.839 229.33C224.089 225.74 224.589 222.13 222.839 223.74C221.089 225.35 222.399 231.23 222.399 231.23C222.399 231.23 219.199 237.17 218.929 240.23C218.659 243.29 226.71 250.91 226.71 250.91L232 240.49Z" fill="#FFA8A7"/>
<path d="M222.89 230.82C221.35 233.06 216.27 229.39 214.89 228.36C214.067 227.65 213.126 227.088 212.11 226.7C211.601 226.514 211.05 226.475 210.52 226.586C209.99 226.698 209.501 226.955 209.11 227.33C208.712 227.84 208.46 228.448 208.38 229.09C208.019 231.105 208.1 233.175 208.618 235.155C209.136 237.136 210.078 238.98 211.38 240.56C214.5 244.38 219.58 244.92 223.56 247.61C223.423 246.757 223.393 245.89 223.47 245.03C223.4 243.12 223.32 241.21 223.24 239.3C223.13 236.47 223 233.64 222.89 230.82Z" fill="#FFA8A7"/>
<path d="M274.18 215.8C267.69 215.35 261.72 216.31 257.56 224.71C252.81 234.28 243.4 252.8 243.4 252.8L232 240.49C232 240.49 230.35 238.16 227.27 243.24C224.19 248.32 225.55 249.74 225.55 249.74C225.55 249.74 238.78 267.46 241.21 269.74C243.64 272.02 247.63 270.24 250.21 266.74C252.79 263.24 267.06 238.64 267.06 238.64C267.06 238.64 277.29 226.06 274.18 215.8Z" fill="#FFA8A7"/>
<path d="M255.6 271.71L252.32 269.82C252.291 267.981 252.104 266.147 251.76 264.34C252.41 263.28 253.2 261.96 254.05 260.49C255.08 264.141 255.601 267.917 255.6 271.71Z" fill="#263238"/>
<path d="M255.73 272.76L255.6 271.71L255.49 271.78V271.71L252.22 269.82C251.79 271.04 251.29 272.7 250.76 274.55C244 278.44 232.66 285 232.66 285L236.14 311.35L258.88 298.15C259.336 297.894 259.673 297.471 259.82 296.97C260.78 294.19 256.79 277.17 255.73 272.76Z" fill="#37474F"/>
<path d="M255.6 271.71L232.66 284.95L229.38 283.06L252.32 269.82L255.6 271.71Z" fill="#455A64"/>
<path opacity="0.1" d="M255.6 271.71L232.66 284.95L229.38 283.06L252.32 269.82L255.6 271.71Z" fill="white"/>
<path opacity="0.2" d="M234 290.63C234 290.63 233.86 291.24 236.09 291.72C238.32 292.2 247.58 292.08 248.81 291.35C250.04 290.62 253.31 286.6 254.81 283.9C255.719 282.241 256.494 280.512 257.13 278.73L234 290.63Z" fill="black"/>
<path d="M229.38 283.06C227.48 288.58 223.84 302.75 224.38 304.87C224.92 306.99 227.72 308.6 229.38 309.55C231.04 310.5 235.9 313.31 237.01 310.17C238.12 307.03 232.66 285 232.66 285L229.38 283.06Z" fill="#263238"/>
<path d="M232.66 285C232.66 285.33 233.15 289.36 234 290.68C234.85 292 246.1 291.22 248 290.68C249.9 290.14 256.84 280.31 257.08 278.78C257.32 277.25 255.57 271.78 255.57 271.78L232.66 285Z" fill="#455A64"/>
<path d="M247.6 288.59C247.65 289.08 248.02 289.24 248.42 288.94C248.627 288.769 248.792 288.551 248.9 288.304C249.007 288.057 249.055 287.789 249.04 287.52C248.98 287.03 248.62 286.87 248.22 287.17C248.01 287.34 247.844 287.557 247.736 287.804C247.628 288.051 247.581 288.321 247.6 288.59Z" fill="#E60014"/>
<path d="M244.51 250.61C232.51 252.69 229.38 283.06 229.38 283.06L232.66 284.95C233.25 267 240.81 254.36 243.47 252.79L244.51 250.61Z" fill="#263238"/>
</svg>
